<svg width="19" height="21" viewBox="0 0 19 21" fill="none" xmlns="http://www.w3.org/2000/svg">
<path d="M18.7742 5.60019C18.7742 7.03236 18.2069 8.40587 17.1972 9.41857C16.1875 10.4313 14.818 11.0002 13.39 11.0002C11.962 11.0002 10.5925 10.4313 9.5828 9.41857C8.57307 8.40587 8.00581 7.03236 8.00581 5.60019C8.00581 4.16803 8.57307 2.79451 9.5828 1.78182C10.5925 0.769122 11.962 0.200195 13.39 0.200195C14.818 0.200195 16.1875 0.769122 17.1972 1.78182C18.2069 2.79451 18.7742 4.16803 18.7742 5.60019ZM13.9882 3.20019C13.9882 3.04106 13.9252 2.88845 13.813 2.77593C13.7008 2.66341 13.5487 2.60019 13.39 2.60019C13.2313 2.60019 13.0792 2.66341 12.967 2.77593C12.8548 2.88845 12.7918 3.04106 12.7918 3.20019V5.00019H10.997C10.8384 5.00019 10.6862 5.06341 10.574 5.17593C10.4618 5.28845 10.3988 5.44106 10.3988 5.60019C10.3988 5.75932 10.4618 5.91194 10.574 6.02446C10.6862 6.13698 10.8384 6.20019 10.997 6.20019H12.7918V8.00019C12.7918 8.15932 12.8548 8.31194 12.967 8.42446C13.0792 8.53698 13.2313 8.60019 13.39 8.60019C13.5487 8.60019 13.7008 8.53698 13.813 8.42446C13.9252 8.31194 13.9882 8.15932 13.9882 8.00019V6.20019H15.783C15.9416 6.20019 16.0938 6.13698 16.206 6.02446C16.3182 5.91194 16.3812 5.75932 16.3812 5.60019C16.3812 5.44106 16.3182 5.28845 16.206 5.17593C16.0938 5.06341 15.9416 5.00019 15.783 5.00019H13.9882V3.20019ZM13.9882 18.8218V12.1738C14.3931 12.1371 14.7936 12.0628 15.1847 11.9518V20.0002C15.1846 20.1108 15.154 20.2193 15.0963 20.3135C15.0386 20.4078 14.9561 20.4843 14.8578 20.5344C14.7595 20.5846 14.6493 20.6065 14.5393 20.5978C14.4293 20.5891 14.3239 20.55 14.2347 20.485L8.00581 15.9418L1.77691 20.485C1.6877 20.55 1.58229 20.5891 1.47233 20.5978C1.36238 20.6065 1.25216 20.5846 1.15385 20.5344C1.05554 20.4843 0.972982 20.4078 0.915284 20.3135C0.857586 20.2193 0.826999 20.1108 0.826904 20.0002V4.40019C0.826904 3.60455 1.14205 2.84148 1.70301 2.27887C2.26397 1.71627 3.0248 1.4002 3.81812 1.4002H8.31331C8.00858 1.77036 7.74499 2.17273 7.52722 2.60019H3.81812C3.34212 2.60019 2.88563 2.78984 2.54905 3.1274C2.21248 3.46497 2.02339 3.92281 2.02339 4.40019V18.8218L7.65405 14.7154C7.75628 14.6409 7.87942 14.6007 8.00581 14.6007C8.1322 14.6007 8.25535 14.6409 8.35758 14.7154L13.9882 18.8218Z" fill="white"/>
</svg>
