<svg width="19" height="13" viewBox="0 0 19 13" fill="none" xmlns="http://www.w3.org/2000/svg">
<path fill-rule="evenodd" clip-rule="evenodd" d="M16.4617 8.63997L13.9336 6.29997L16.4617 3.96087V8.63997ZM11.9603 9.89996C11.9603 10.3968 11.5571 10.8 11.0603 10.8H2.96035C2.46355 10.8 2.06035 10.3968 2.06035 9.89996V2.69996C2.06035 2.20406 2.46355 1.79996 2.96035 1.79996H11.0603C11.5571 1.79996 11.9603 2.20406 11.9603 2.69996V9.89996ZM17.3718 1.9314C16.8084 1.6857 16.155 1.7928 15.7059 2.2068L13.761 4.0068V2.7C13.761 1.2114 12.5496 0 11.061 0H2.96099C1.47239 0 0.260986 1.2114 0.260986 2.7V9.9C0.260986 11.3895 1.47239 12.6 2.96099 12.6H11.061C12.5496 12.6 13.761 11.3895 13.761 9.9V8.5941L15.7059 10.3932C15.9939 10.6605 16.3674 10.8 16.7481 10.8C16.9587 10.8 17.1702 10.7577 17.3718 10.6695C17.9199 10.4301 18.261 9.918 18.261 9.3339V3.267C18.261 2.6829 17.9199 2.1708 17.3718 1.9314Z" fill="#505050"/>
</svg>
