<svg width="21" height="21" viewBox="0 0 21 21" fill="none" xmlns="http://www.w3.org/2000/svg">
<path d="M20.3093 20.3093C19.5031 21.1155 18.1593 21.1155 17.3531 20.3093L10.5 13.4562L3.64686 20.3093C2.84064 21.1155 1.49682 21.1155 0.690601 20.3093C-0.115617 19.5031 -0.115617 18.1593 0.690601 17.3531L7.5437 10.5L0.690601 3.64686C-0.115617 2.84064 -0.115617 1.49682 0.690601 0.690601C1.49682 -0.115617 2.84064 -0.115617 3.64686 0.690601L10.5 7.5437L17.3531 0.690601C18.1593 -0.115617 19.5031 -0.115617 20.3093 0.690601C21.1155 1.49682 21.1155 2.84064 20.3093 3.64686L13.4562 10.5L20.3093 17.3531C21.1155 18.1593 21.1155 19.503 20.3093 20.3093Z" fill="white"/>
</svg>
