<svg width="21" height="16" viewBox="0 0 21 16" fill="none" xmlns="http://www.w3.org/2000/svg">
<path d="M17.7207 1.75C18.0522 1.75 18.3702 1.8817 18.6046 2.11612C18.839 2.35054 18.9707 2.66848 18.9707 3V13C18.9707 13.3315 18.839 13.6495 18.6046 13.8839C18.3702 14.1183 18.0522 14.25 17.7207 14.25H2.7207C2.38918 14.25 2.07124 14.1183 1.83682 13.8839C1.6024 13.6495 1.4707 13.3315 1.4707 13V3C1.4707 2.66848 1.6024 2.35054 1.83682 2.11612C2.07124 1.8817 2.38918 1.75 2.7207 1.75H17.7207ZM2.7207 0.5C2.05766 0.5 1.42178 0.763392 0.952936 1.23223C0.484095 1.70107 0.220703 2.33696 0.220703 3L0.220703 13C0.220703 13.663 0.484095 14.2989 0.952936 14.7678C1.42178 15.2366 2.05766 15.5 2.7207 15.5H17.7207C18.3837 15.5 19.0196 15.2366 19.4885 14.7678C19.9573 14.2989 20.2207 13.663 20.2207 13V3C20.2207 2.33696 19.9573 1.70107 19.4885 1.23223C19.0196 0.763392 18.3837 0.5 17.7207 0.5H2.7207Z" fill="#53B175"/>
<path d="M2.7207 4.875C2.7207 4.70924 2.78655 4.55027 2.90376 4.43306C3.02097 4.31585 3.17994 4.25 3.3457 4.25H5.8457C6.01146 4.25 6.17043 4.31585 6.28764 4.43306C6.40486 4.55027 6.4707 4.70924 6.4707 4.875V6.125C6.4707 6.29076 6.40486 6.44973 6.28764 6.56694C6.17043 6.68415 6.01146 6.75 5.8457 6.75H3.3457C3.17994 6.75 3.02097 6.68415 2.90376 6.56694C2.78655 6.44973 2.7207 6.29076 2.7207 6.125V4.875ZM2.7207 8.625C2.7207 8.45924 2.78655 8.30027 2.90376 8.18306C3.02097 8.06585 3.17994 8 3.3457 8H9.5957C9.76146 8 9.92043 8.06585 10.0376 8.18306C10.1549 8.30027 10.2207 8.45924 10.2207 8.625C10.2207 8.79076 10.1549 8.94973 10.0376 9.06694C9.92043 9.18415 9.76146 9.25 9.5957 9.25H3.3457C3.17994 9.25 3.02097 9.18415 2.90376 9.06694C2.78655 8.94973 2.7207 8.79076 2.7207 8.625ZM2.7207 11.125C2.7207 10.9592 2.78655 10.8003 2.90376 10.6831C3.02097 10.5658 3.17994 10.5 3.3457 10.5H4.5957C4.76146 10.5 4.92043 10.5658 5.03764 10.6831C5.15486 10.8003 5.2207 10.9592 5.2207 11.125C5.2207 11.2908 5.15486 11.4497 5.03764 11.5669C4.92043 11.6842 4.76146 11.75 4.5957 11.75H3.3457C3.17994 11.75 3.02097 11.6842 2.90376 11.5669C2.78655 11.4497 2.7207 11.2908 2.7207 11.125ZM6.4707 11.125C6.4707 10.9592 6.53655 10.8003 6.65376 10.6831C6.77097 10.5658 6.92994 10.5 7.0957 10.5H8.3457C8.51146 10.5 8.67043 10.5658 8.78764 10.6831C8.90485 10.8003 8.9707 10.9592 8.9707 11.125C8.9707 11.2908 8.90485 11.4497 8.78764 11.5669C8.67043 11.6842 8.51146 11.75 8.3457 11.75H7.0957C6.92994 11.75 6.77097 11.6842 6.65376 11.5669C6.53655 11.4497 6.4707 11.2908 6.4707 11.125ZM10.2207 11.125C10.2207 10.9592 10.2866 10.8003 10.4038 10.6831C10.521 10.5658 10.6799 10.5 10.8457 10.5H12.0957C12.2615 10.5 12.4204 10.5658 12.5376 10.6831C12.6549 10.8003 12.7207 10.9592 12.7207 11.125C12.7207 11.2908 12.6549 11.4497 12.5376 11.5669C12.4204 11.6842 12.2615 11.75 12.0957 11.75H10.8457C10.6799 11.75 10.521 11.6842 10.4038 11.5669C10.2866 11.4497 10.2207 11.2908 10.2207 11.125ZM13.9707 11.125C13.9707 10.9592 14.0366 10.8003 14.1538 10.6831C14.271 10.5658 14.4299 10.5 14.5957 10.5H15.8457C16.0115 10.5 16.1704 10.5658 16.2876 10.6831C16.4049 10.8003 16.4707 10.9592 16.4707 11.125C16.4707 11.2908 16.4049 11.4497 16.2876 11.5669C16.1704 11.6842 16.0115 11.75 15.8457 11.75H14.5957C14.4299 11.75 14.271 11.6842 14.1538 11.5669C14.0366 11.4497 13.9707 11.2908 13.9707 11.125Z" fill="#53B175"/>
</svg>
