<svg width="27" height="21" viewBox="0 0 27 21" fill="none" xmlns="http://www.w3.org/2000/svg">
<path d="M9.64427 10.7085L6.39062 7.45486C5.6105 6.67474 4.34568 6.67474 3.56569 7.45486L0.914679 10.1059C0.13456 10.886 0.13456 12.1508 0.914679 12.9308L7.46209 19.4782L8.17137 19.9076L11.1924 19.787L25.3943 5.47264L23.8334 2.62498L20.676 1.40967L20.2015 1.76437L11.2574 10.7084C10.8118 11.1539 10.0897 11.1539 9.64427 10.7085Z" fill="#EAF6FF"/>
<path d="M26.0852 3.61664L23.6299 1.16126C22.8497 0.381142 21.5849 0.381142 20.8049 1.16126L20.2016 1.76454C20.7808 1.70335 21.3814 1.89377 21.8254 2.3376L23.0936 3.61664C23.8737 4.39676 23.8737 5.66158 23.0936 6.44157L11.0083 18.5632C10.0482 19.5233 8.68114 19.828 7.4624 19.4783L7.70691 19.7228C9.11455 21.1304 11.3966 21.1304 12.8043 19.7228L26.0854 6.4417C26.8653 5.66158 26.8653 4.39676 26.0852 3.61664Z" fill="#C8EFFE"/>
</svg>
