<svg width="14" height="14" viewBox="0 0 14 14" fill="none" xmlns="http://www.w3.org/2000/svg">
<path d="M1.64117 9.02237L0.90228 12.2113C0.87679 12.3278 0.877664 12.4486 0.904837 12.5648C0.93201 12.681 0.984795 12.7897 1.05934 12.8828C1.13388 12.976 1.2283 13.0514 1.33569 13.1034C1.44308 13.1554 1.56073 13.1828 1.68006 13.1835C1.73566 13.1891 1.79168 13.1891 1.84728 13.1835L5.05561 12.4446L11.2156 6.30793L7.77784 2.87793L1.64117 9.02237Z" fill="#B0B7C3"/>
<path d="M13.1518 3.23582L10.8574 0.941371C10.7066 0.791285 10.5024 0.707031 10.2896 0.707031C10.0768 0.707031 9.87269 0.791285 9.72184 0.941371L8.44629 2.21693L11.8802 5.65082L13.1557 4.37526C13.2304 4.30023 13.2895 4.21123 13.3297 4.11333C13.3699 4.01543 13.3904 3.91056 13.3901 3.80473C13.3897 3.6989 13.3685 3.59417 13.3276 3.49655C13.2867 3.39893 13.227 3.31033 13.1518 3.23582Z" fill="#B0B7C3"/>
</svg>
