<svg width="30" height="30" viewBox="0 0 30 30" fill="none" xmlns="http://www.w3.org/2000/svg">
<rect opacity="0.1" width="30" height="30" rx="10" fill="#5B7FFF"/>
<path d="M9.375 12.75H20.625M15 21.1875C18.4172 21.1875 21.1875 18.4172 21.1875 15C21.1875 11.5828 18.4172 8.8125 15 8.8125C11.5828 8.8125 8.8125 11.5828 8.8125 15C8.8125 18.4172 11.5828 21.1875 15 21.1875ZM15 21.1875C16.6875 21.1875 17.25 18.375 17.25 15C17.25 11.625 16.6875 8.8125 15 8.8125C13.3125 8.8125 12.75 11.625 12.75 15C12.75 18.375 13.3125 21.1875 15 21.1875ZM9.375 17.25H20.625H9.375Z" stroke="#5B7FFF" stroke-width="1.5"/>
</svg>
