<svg width="10" height="6" viewBox="0 0 10 6" fill="none" xmlns="http://www.w3.org/2000/svg">
<path d="M4.66667 5L4.44552 5.20272L4.64894 5.42463L4.87015 5.22044L4.66667 5ZM9.29976 1.01199C9.30638 0.846437 9.17754 0.706862 9.01199 0.70024L6.31415 0.592326C6.14859 0.585704 6.00902 0.714543 6.0024 0.880096C5.99577 1.04565 6.12461 1.18522 6.29017 1.19185L8.68825 1.28777L8.59233 3.68585C8.5857 3.85141 8.71454 3.99098 8.8801 3.9976C9.04565 4.00422 9.18522 3.87539 9.19185 3.70983L9.29976 1.01199ZM0.778854 1.20272L4.44552 5.20272L4.88781 4.79728L1.22115 0.797283L0.778854 1.20272ZM4.87015 5.22044L9.20348 1.22044L8.79652 0.779559L4.46318 4.77956L4.87015 5.22044Z" fill="#F06E62"/>
</svg>
