<svg width="44" height="44" viewBox="0 0 44 44" fill="none" xmlns="http://www.w3.org/2000/svg">
<path fill-rule="evenodd" clip-rule="evenodd" d="M14.858 18.4287C16.3366 18.4287 17.5366 17.2287 17.5366 15.7501C17.5366 14.2716 16.3366 13.0716 14.858 13.0716C13.3794 13.0716 12.1794 14.2716 12.1794 15.7501C12.1794 17.2287 13.3794 18.4287 14.858 18.4287ZM11.2866 9.50014H32.7152C33.7009 9.50014 34.5009 10.3001 34.5009 11.2859V26.2216L28.7812 21.343C27.0134 19.8394 24.2473 19.8394 22.4955 21.3323L9.50087 32.1751V11.2859C9.50087 10.3001 10.3009 9.50014 11.2866 9.50014ZM32.7152 5.92871H11.2866C8.33301 5.92871 5.92944 8.33228 5.92944 11.2859V32.7144C5.92944 35.668 8.33301 38.0716 11.2866 38.0716H32.7152C35.6687 38.0716 38.0723 35.668 38.0723 32.7144V11.2859C38.0723 8.33228 35.6687 5.92871 32.7152 5.92871Z" fill="#C3C3C3"/>
<mask id="mask0_1_16587" style="mask-type:alpha" maskUnits="userSpaceOnUse" x="5" y="5" width="34" height="34">
<path fill-rule="evenodd" clip-rule="evenodd" d="M14.858 18.4287C16.3366 18.4287 17.5366 17.2287 17.5366 15.7501C17.5366 14.2716 16.3366 13.0716 14.858 13.0716C13.3794 13.0716 12.1794 14.2716 12.1794 15.7501C12.1794 17.2287 13.3794 18.4287 14.858 18.4287ZM11.2866 9.50014H32.7152C33.7009 9.50014 34.5009 10.3001 34.5009 11.2859V26.2216L28.7812 21.343C27.0134 19.8394 24.2473 19.8394 22.4955 21.3323L9.50087 32.1751V11.2859C9.50087 10.3001 10.3009 9.50014 11.2866 9.50014ZM32.7152 5.92871H11.2866C8.33301 5.92871 5.92944 8.33228 5.92944 11.2859V32.7144C5.92944 35.668 8.33301 38.0716 11.2866 38.0716H32.7152C35.6687 38.0716 38.0723 35.668 38.0723 32.7144V11.2859C38.0723 8.33228 35.6687 5.92871 32.7152 5.92871Z" fill="white"/>
</mask>
<g mask="url(#mask0_1_16587)">
</g>
</svg>
