<svg width="29" height="29" viewBox="0 0 29 29" fill="none" xmlns="http://www.w3.org/2000/svg">
<circle cx="14.5728" cy="14.5718" r="14.2857" fill="#53B175"/>
<path fill-rule="evenodd" clip-rule="evenodd" d="M20.4332 14.4686C20.4459 14.5091 20.4586 14.5496 20.467 14.5917C20.5039 14.778 20.5248 14.9697 20.5248 15.1667C20.5248 15.35 20.5033 15.5304 20.47 15.7084C20.4626 15.749 20.4527 15.7878 20.4428 15.8268C20.4383 15.8444 20.4338 15.862 20.4295 15.8798C20.3998 15.9983 20.3646 16.1143 20.3212 16.228C20.2986 16.287 20.2754 16.3447 20.2492 16.4018C20.1974 16.5149 20.1373 16.6233 20.0712 16.7298C20.0609 16.7463 20.0512 16.7631 20.0414 16.7799C20.0251 16.8078 20.0088 16.8358 19.9902 16.8625C19.9848 16.8703 19.9802 16.8783 19.9756 16.8862C19.9707 16.8948 19.9657 16.9033 19.9599 16.9114C19.9553 16.9179 19.9489 16.9221 19.9426 16.9263C19.9374 16.9297 19.9323 16.933 19.9283 16.9375C19.3855 17.6649 18.5259 18.1429 17.5486 18.1429H15.7629V17.3887C15.942 17.4923 16.1456 17.5477 16.3581 17.5477C16.6759 17.5477 16.9748 17.4239 17.1998 17.1989C17.664 16.7352 17.664 15.9792 17.1998 15.5155L15.414 13.7298C15.1902 13.5054 14.8914 13.3816 14.5736 13.3816C14.2646 13.3816 13.9712 13.4989 13.7474 13.7125L11.9599 15.4387C11.4879 15.8947 11.4748 16.65 11.9307 17.1221C12.1545 17.3536 12.4664 17.4864 12.7879 17.4864C12.9992 17.4864 13.2027 17.431 13.3819 17.3274V18.1429H11.5962C10.6188 18.1429 9.75928 17.6649 9.21702 16.9375C9.21285 16.9331 9.20776 16.9298 9.20266 16.9265C9.19612 16.9223 9.18956 16.918 9.18488 16.9114C9.17858 16.9027 9.17339 16.8936 9.16818 16.8844C9.16403 16.877 9.15986 16.8697 9.15511 16.8625C9.13611 16.8352 9.1193 16.8066 9.1025 16.7781C9.09298 16.7619 9.08347 16.7457 9.07357 16.7298C9.00809 16.6233 8.94738 16.5149 8.89559 16.4018C8.87024 16.3465 8.84824 16.2907 8.8258 16.2337L8.82357 16.228C8.78071 16.1143 8.745 15.9983 8.71583 15.8798C8.71206 15.8647 8.70817 15.8498 8.70429 15.8349C8.69344 15.7932 8.68265 15.7518 8.67476 15.7084C8.64202 15.5304 8.62 15.35 8.62 15.1667C8.62 14.9697 8.64142 14.778 8.67773 14.5917C8.68641 14.5483 8.69962 14.5066 8.71284 14.4649C8.72048 14.4408 8.72812 14.4167 8.73488 14.3923C8.73736 14.3832 8.73984 14.374 8.74232 14.3649C8.7707 14.2603 8.79908 14.1557 8.83904 14.0566C8.8606 14.0027 8.88707 13.9523 8.91362 13.9017C8.92519 13.8796 8.93677 13.8576 8.94797 13.8352C8.95178 13.8276 8.95558 13.82 8.95937 13.8125C9.0012 13.7292 9.0424 13.6471 9.09261 13.5691C9.13057 13.509 9.17357 13.4536 9.21661 13.3982C9.22689 13.3849 9.23716 13.3717 9.24738 13.3584L9.24948 13.3557C9.3071 13.2816 9.36423 13.2081 9.42833 13.1393C9.48575 13.0774 9.54744 13.0219 9.60986 12.9657C9.61344 12.9624 9.61701 12.9592 9.62059 12.956C9.69083 12.8929 9.76226 12.8322 9.83845 12.7762C9.90928 12.7239 9.9819 12.6762 10.0575 12.631C10.1408 12.5798 10.2259 12.534 10.314 12.4917C10.3914 12.4542 10.4688 12.4203 10.5498 12.3899C10.6462 12.353 10.7456 12.3239 10.8468 12.2977C10.9271 12.2762 11.0057 12.2554 11.089 12.2417C11.1048 12.2388 11.12 12.2347 11.1353 12.2305C11.1547 12.2252 11.1741 12.22 11.1944 12.2173C11.6831 10.7983 13.0367 9.80957 14.5724 9.80957C16.1087 9.80957 17.4623 10.7983 17.9504 12.2173C17.9707 12.22 17.9903 12.2253 18.0099 12.2306C18.0253 12.2347 18.0406 12.2388 18.0563 12.2417C18.139 12.2554 18.2182 12.2762 18.298 12.2977C18.3992 12.3239 18.4986 12.353 18.595 12.3899C18.6759 12.4203 18.7539 12.4542 18.8307 12.4917C18.9188 12.534 19.0039 12.5798 19.0873 12.631C19.1629 12.6762 19.2361 12.7239 19.3069 12.7762C19.3825 12.8322 19.4539 12.8929 19.5242 12.956C19.5908 13.0155 19.6557 13.0739 19.717 13.1393C19.7819 13.209 19.8396 13.2834 19.8974 13.3584C19.9049 13.3681 19.9125 13.3778 19.92 13.3875C19.9661 13.4465 20.0118 13.5052 20.0527 13.5691C20.1022 13.6468 20.1432 13.7285 20.1849 13.8115C20.1888 13.8194 20.1928 13.8273 20.1968 13.8352C20.208 13.8576 20.2196 13.8796 20.2311 13.9017C20.2577 13.9523 20.2841 14.0027 20.3057 14.0566C20.3463 14.156 20.3748 14.2609 20.4033 14.3658C20.4057 14.3747 20.4081 14.3835 20.4105 14.3923C20.4173 14.418 20.4253 14.4433 20.4332 14.4686ZM14.1588 14.1428C14.3933 13.919 14.7642 13.9208 14.9933 14.1505L16.779 15.9362C17.0118 16.169 17.0118 16.5452 16.779 16.7779C16.663 16.894 16.5106 16.9523 16.3582 16.9523C16.2058 16.9523 16.0534 16.894 15.9374 16.7779L15.1677 16.0083V19.3333C15.1677 19.6624 14.9011 19.9285 14.5725 19.9285C14.2439 19.9285 13.9773 19.6624 13.9773 19.3333V15.9737L13.2005 16.7237C12.9642 16.9529 12.5874 16.9452 12.3588 16.7089C12.1302 16.472 12.1368 16.0958 12.3731 15.8672L14.1588 14.1428Z" fill="white"/>
<mask id="mask0_1_16584" style="mask-type:alpha" maskUnits="userSpaceOnUse" x="8" y="9" width="13" height="11">
<path fill-rule="evenodd" clip-rule="evenodd" d="M20.4332 14.4686C20.4459 14.5091 20.4586 14.5496 20.467 14.5917C20.5039 14.778 20.5248 14.9697 20.5248 15.1667C20.5248 15.35 20.5033 15.5304 20.47 15.7084C20.4626 15.749 20.4527 15.7878 20.4428 15.8268C20.4383 15.8444 20.4338 15.862 20.4295 15.8798C20.3998 15.9983 20.3646 16.1143 20.3212 16.228C20.2986 16.287 20.2754 16.3447 20.2492 16.4018C20.1974 16.5149 20.1373 16.6233 20.0712 16.7298C20.0609 16.7463 20.0512 16.7631 20.0414 16.7799C20.0251 16.8078 20.0088 16.8358 19.9902 16.8625C19.9848 16.8703 19.9802 16.8783 19.9756 16.8862C19.9707 16.8948 19.9657 16.9033 19.9599 16.9114C19.9553 16.9179 19.9489 16.9221 19.9426 16.9263C19.9374 16.9297 19.9323 16.933 19.9283 16.9375C19.3855 17.6649 18.5259 18.1429 17.5486 18.1429H15.7629V17.3887C15.942 17.4923 16.1456 17.5477 16.3581 17.5477C16.6759 17.5477 16.9748 17.4239 17.1998 17.1989C17.664 16.7352 17.664 15.9792 17.1998 15.5155L15.414 13.7298C15.1902 13.5054 14.8914 13.3816 14.5736 13.3816C14.2646 13.3816 13.9712 13.4989 13.7474 13.7125L11.9599 15.4387C11.4879 15.8947 11.4748 16.65 11.9307 17.1221C12.1545 17.3536 12.4664 17.4864 12.7879 17.4864C12.9992 17.4864 13.2027 17.431 13.3819 17.3274V18.1429H11.5962C10.6188 18.1429 9.75928 17.6649 9.21702 16.9375C9.21285 16.9331 9.20776 16.9298 9.20266 16.9265C9.19612 16.9223 9.18956 16.918 9.18488 16.9114C9.17858 16.9027 9.17339 16.8936 9.16818 16.8844C9.16403 16.877 9.15986 16.8697 9.15511 16.8625C9.13611 16.8352 9.1193 16.8066 9.1025 16.7781C9.09298 16.7619 9.08347 16.7457 9.07357 16.7298C9.00809 16.6233 8.94738 16.5149 8.89559 16.4018C8.87024 16.3465 8.84824 16.2907 8.8258 16.2337L8.82357 16.228C8.78071 16.1143 8.745 15.9983 8.71583 15.8798C8.71206 15.8647 8.70817 15.8498 8.70429 15.8349C8.69344 15.7932 8.68265 15.7518 8.67476 15.7084C8.64202 15.5304 8.62 15.35 8.62 15.1667C8.62 14.9697 8.64142 14.778 8.67773 14.5917C8.68641 14.5483 8.69962 14.5066 8.71284 14.4649C8.72048 14.4408 8.72812 14.4167 8.73488 14.3923C8.73736 14.3832 8.73984 14.374 8.74232 14.3649C8.7707 14.2603 8.79908 14.1557 8.83904 14.0566C8.8606 14.0027 8.88707 13.9523 8.91362 13.9017C8.92519 13.8796 8.93677 13.8576 8.94797 13.8352C8.95178 13.8276 8.95558 13.82 8.95937 13.8125C9.0012 13.7292 9.0424 13.6471 9.09261 13.5691C9.13057 13.509 9.17357 13.4536 9.21661 13.3982C9.22689 13.3849 9.23716 13.3717 9.24738 13.3584L9.24948 13.3557C9.3071 13.2816 9.36423 13.2081 9.42833 13.1393C9.48575 13.0774 9.54744 13.0219 9.60986 12.9657C9.61344 12.9624 9.61701 12.9592 9.62059 12.956C9.69083 12.8929 9.76226 12.8322 9.83845 12.7762C9.90928 12.7239 9.9819 12.6762 10.0575 12.631C10.1408 12.5798 10.2259 12.534 10.314 12.4917C10.3914 12.4542 10.4688 12.4203 10.5498 12.3899C10.6462 12.353 10.7456 12.3239 10.8468 12.2977C10.9271 12.2762 11.0057 12.2554 11.089 12.2417C11.1048 12.2388 11.12 12.2347 11.1353 12.2305C11.1547 12.2252 11.1741 12.22 11.1944 12.2173C11.6831 10.7983 13.0367 9.80957 14.5724 9.80957C16.1087 9.80957 17.4623 10.7983 17.9504 12.2173C17.9707 12.22 17.9903 12.2253 18.0099 12.2306C18.0253 12.2347 18.0406 12.2388 18.0563 12.2417C18.139 12.2554 18.2182 12.2762 18.298 12.2977C18.3992 12.3239 18.4986 12.353 18.595 12.3899C18.6759 12.4203 18.7539 12.4542 18.8307 12.4917C18.9188 12.534 19.0039 12.5798 19.0873 12.631C19.1629 12.6762 19.2361 12.7239 19.3069 12.7762C19.3825 12.8322 19.4539 12.8929 19.5242 12.956C19.5908 13.0155 19.6557 13.0739 19.717 13.1393C19.7819 13.209 19.8396 13.2834 19.8974 13.3584C19.9049 13.3681 19.9125 13.3778 19.92 13.3875C19.9661 13.4465 20.0118 13.5052 20.0527 13.5691C20.1022 13.6468 20.1432 13.7285 20.1849 13.8115C20.1888 13.8194 20.1928 13.8273 20.1968 13.8352C20.208 13.8576 20.2196 13.8796 20.2311 13.9017C20.2577 13.9523 20.2841 14.0027 20.3057 14.0566C20.3463 14.156 20.3748 14.2609 20.4033 14.3658C20.4057 14.3747 20.4081 14.3835 20.4105 14.3923C20.4173 14.418 20.4253 14.4433 20.4332 14.4686ZM14.1588 14.1428C14.3933 13.919 14.7642 13.9208 14.9933 14.1505L16.779 15.9362C17.0118 16.169 17.0118 16.5452 16.779 16.7779C16.663 16.894 16.5106 16.9523 16.3582 16.9523C16.2058 16.9523 16.0534 16.894 15.9374 16.7779L15.1677 16.0083V19.3333C15.1677 19.6624 14.9011 19.9285 14.5725 19.9285C14.2439 19.9285 13.9773 19.6624 13.9773 19.3333V15.9737L13.2005 16.7237C12.9642 16.9529 12.5874 16.9452 12.3588 16.7089C12.1302 16.472 12.1368 16.0958 12.3731 15.8672L14.1588 14.1428Z" fill="white"/>
</mask>
<g mask="url(#mask0_1_16584)">
</g>
</svg>
