<svg width="15" height="13" viewBox="0 0 15 13" fill="none" xmlns="http://www.w3.org/2000/svg">
<path fill-rule="evenodd" clip-rule="evenodd" d="M0.980713 5.62492H11.5356L8.30376 1.80992C7.98885 1.43892 8.04045 0.886795 8.41763 0.57792C8.7957 0.26817 9.35614 0.31892 9.67016 0.68992L14.1181 5.93992C14.1528 5.98105 14.1706 6.02917 14.1964 6.07467C14.2177 6.11142 14.2435 6.14292 14.2595 6.18317C14.2996 6.28379 14.3236 6.38967 14.3236 6.49642C14.3236 6.4973 14.3245 6.49904 14.3245 6.49992C14.3245 6.50079 14.3236 6.50254 14.3236 6.50342C14.3236 6.61017 14.2996 6.71604 14.2595 6.81667C14.2435 6.85692 14.2177 6.88842 14.1964 6.92517C14.1706 6.97067 14.1528 7.0188 14.1181 7.05992L9.67016 12.3099C9.49403 12.5173 9.24138 12.6249 8.98696 12.6249C8.78592 12.6249 8.58398 12.5584 8.41763 12.4219C8.04045 12.113 7.98885 11.5609 8.30376 11.1899L11.5356 7.37492H0.980713C0.489663 7.37492 0.0911293 6.98292 0.0911293 6.49992C0.0911293 6.01692 0.489663 5.62492 0.980713 5.62492Z" fill="#505050"/>
</svg>
