<svg width="33" height="33" viewBox="0 0 33 33" fill="none" xmlns="http://www.w3.org/2000/svg">
<rect width="22.7345" height="22.7345" rx="6.84814" transform="matrix(0.704215 -0.709987 0.704215 0.709987 0.500488 16.8594)" fill="#53B175"/>
<path d="M21.4209 17.0688C21.4209 16.8049 21.2069 16.591 20.9431 16.591C20.6792 16.591 20.4653 16.8049 20.4653 17.0688H21.4209ZM13.2635 17.0688C13.2635 16.8049 13.0496 16.591 12.7857 16.591C12.5218 16.591 12.3079 16.8049 12.3079 17.0688H13.2635ZM22.1502 15.689L22.5951 15.5146L22.1502 15.689ZM21.2458 13.3816L21.6906 13.2072V13.2072L21.2458 13.3816ZM12.483 13.3816L12.0382 13.2072L12.483 13.3816ZM11.5786 15.689L12.0234 15.8634L11.5786 15.689ZM20.6779 16.7789L20.3253 17.1013L20.6779 16.7789ZM20.4533 16.5333L20.8058 16.2108V16.2108L20.4533 16.5333ZM18.9828 16.3741L18.7014 15.988L18.9828 16.3741ZM18.7154 16.569L18.9968 16.9551H18.9968L18.7154 16.569ZM16.1788 16.2944L16.4602 16.6805L16.1788 16.2944ZM15.7341 16.6185L15.4527 16.2324L15.4527 16.2324L15.7341 16.6185ZM13.3107 16.4948L12.9581 16.1723L12.9581 16.1723L13.3107 16.4948ZM13.0509 16.7789L13.4035 17.1013H13.4035L13.0509 16.7789ZM14.5914 16.4948L14.2389 16.8173H14.2389L14.5914 16.4948ZM16.3866 15.7947C16.3866 16.0585 16.6005 16.2725 16.8644 16.2725C17.1283 16.2725 17.3422 16.0585 17.3422 15.7947H16.3866ZM17.3422 15.1576C17.3422 14.8937 17.1283 14.6798 16.8644 14.6798C16.6005 14.6798 16.3866 14.8937 16.3866 15.1576H17.3422ZM13.5165 15.596C13.4068 15.8359 13.5124 16.1194 13.7524 16.2292C13.9923 16.3389 14.2758 16.2333 14.3856 15.9934L13.5165 15.596ZM14.6769 15.3563C14.7866 15.1163 14.6811 14.8328 14.4411 14.7231C14.2011 14.6134 13.9176 14.7189 13.8079 14.9589L14.6769 15.3563ZM19.3432 15.9934C19.453 16.2333 19.7365 16.3389 19.9764 16.2292C20.2164 16.1194 20.322 15.8359 20.2122 15.596L19.3432 15.9934ZM19.9209 14.9589C19.8112 14.7189 19.5277 14.6134 19.2877 14.7231C19.0477 14.8328 18.9421 15.1163 19.0519 15.3563L19.9209 14.9589ZM19.6729 16.4317C19.6729 16.1678 19.4589 15.9539 19.1951 15.9539C18.9312 15.9539 18.7173 16.1678 18.7173 16.4317H19.6729ZM15.0115 16.4317C15.0115 16.1678 14.7976 15.9539 14.5337 15.9539C14.2698 15.9539 14.0559 16.1678 14.0559 16.4317H15.0115ZM20.4653 17.0688V20.2541H21.4209V17.0688H20.4653ZM19.7777 21.0504H13.9511V22.006H19.7777V21.0504ZM13.2635 20.2541V17.0688H12.3079V20.2541H13.2635ZM13.9511 21.0504C13.6106 21.0504 13.2635 20.7349 13.2635 20.2541H12.3079C12.3079 21.1806 13.0043 22.006 13.9511 22.006V21.0504ZM20.4653 20.2541C20.4653 20.7349 20.1182 21.0504 19.7777 21.0504V22.006C20.7244 22.006 21.4209 21.1806 21.4209 20.2541H20.4653ZM22.5951 15.5146L21.6906 13.2072L20.8009 13.556L21.7054 15.8634L22.5951 15.5146ZM20.1746 12.1316H13.5541V13.0872H20.1746V12.1316ZM12.0382 13.2072L11.1337 15.5146L12.0234 15.8634L12.9279 13.556L12.0382 13.2072ZM21.0305 16.4564L20.8058 16.2108L20.1007 16.8557L20.3253 17.1013L21.0305 16.4564ZM18.7014 15.988L18.4339 16.1829L18.9968 16.9551L19.2643 16.7602L18.7014 15.988ZM15.8973 15.9083L15.4527 16.2324L16.0156 17.0046L16.4602 16.6805L15.8973 15.9083ZM12.9581 16.1723L12.6983 16.4564L13.4035 17.1013L13.6633 16.8173L12.9581 16.1723ZM14.944 16.1723C14.4009 15.5786 13.5012 15.5786 12.9581 16.1723L13.6633 16.8173C13.8275 16.6377 14.0746 16.6377 14.2389 16.8173L14.944 16.1723ZM17.7996 16.1093C17.3011 15.5642 16.4981 15.4704 15.8973 15.9083L16.4602 16.6805C16.6568 16.5372 16.9155 16.5584 17.0945 16.7542L17.7996 16.1093ZM20.8058 16.2108C20.2533 15.6067 19.3657 15.5038 18.7014 15.988L19.2643 16.7602C19.5244 16.5706 19.8677 16.6009 20.1007 16.8557L20.8058 16.2108ZM20.3253 17.1013C20.5807 17.3806 20.9368 17.5466 21.3181 17.5466V16.591C21.2191 16.591 21.1146 16.5484 21.0305 16.4564L20.3253 17.1013ZM18.4339 16.1829C18.2373 16.3262 17.9787 16.305 17.7996 16.1093L17.0945 16.7542C17.593 17.2993 18.3961 17.393 18.9968 16.9551L18.4339 16.1829ZM15.4527 16.2324C15.2956 16.3469 15.0895 16.3314 14.944 16.1723L14.2389 16.8173C14.7039 17.3257 15.4543 17.4137 16.0156 17.0046L15.4527 16.2324ZM12.6983 16.4564C12.6142 16.5484 12.5097 16.591 12.4107 16.591V17.5466C12.792 17.5466 13.148 17.3806 13.4035 17.1013L12.6983 16.4564ZM13.5541 12.1316C12.8717 12.1316 12.2861 12.5748 12.0382 13.2072L12.9279 13.556C13.0472 13.2515 13.3042 13.0872 13.5541 13.0872V12.1316ZM21.6906 13.2072C21.4427 12.5748 20.8571 12.1316 20.1746 12.1316V13.0872C20.4245 13.0872 20.6816 13.2515 20.8009 13.556L21.6906 13.2072ZM21.7054 15.8634C21.8621 16.2631 21.5694 16.591 21.3181 16.591V17.5466C22.3666 17.5466 22.9504 16.4213 22.5951 15.5146L21.7054 15.8634ZM11.1337 15.5146C10.7784 16.4212 11.3622 17.5466 12.4107 17.5466V16.591C12.1593 16.591 11.8667 16.2631 12.0234 15.8634L11.1337 15.5146ZM17.3422 15.7947V15.1576H16.3866V15.7947H17.3422ZM14.3856 15.9934L14.6769 15.3563L13.8079 14.9589L13.5165 15.596L14.3856 15.9934ZM20.2122 15.596L19.9209 14.9589L19.0519 15.3563L19.3432 15.9934L20.2122 15.596ZM18.7173 16.4317V18.98H19.6729V16.4317H18.7173ZM18.6124 19.1392H15.1164V20.0948H18.6124V19.1392ZM15.0115 18.98V16.4317H14.0559V18.98H15.0115ZM15.1164 19.1392C15.102 19.1392 15.0806 19.1338 15.057 19.108C15.0327 19.0814 15.0115 19.0374 15.0115 18.98H14.0559C14.0559 19.5546 14.4915 20.0948 15.1164 20.0948V19.1392ZM18.7173 18.98C18.7173 19.0374 18.6961 19.0814 18.6718 19.108C18.6482 19.1338 18.6268 19.1392 18.6124 19.1392V20.0948C19.2373 20.0948 19.6729 19.5546 19.6729 18.98H18.7173Z" fill="white"/>
</svg>
