<svg width="30" height="28" viewBox="0 0 30 28" fill="none" xmlns="http://www.w3.org/2000/svg">
<path d="M1.00212 11.9346C0.760755 11.7589 0.657566 11.4493 0.745221 11.1638L0.859396 10.807C0.942871 10.525 1.19383 10.3254 1.48736 10.3075L10.6071 9.57956L14.1037 1.17281C14.221 0.878309 14.5154 0.693581 14.8316 0.716082H15.2027C15.5007 0.709757 15.7701 0.893134 15.8734 1.17281L19.3843 9.57956L28.5041 10.3075C28.7976 10.3254 29.0486 10.525 29.132 10.807L29.2462 11.1638C29.3433 11.4402 29.2579 11.7479 29.0321 11.9346L22.1531 17.8436L24.2653 26.707C24.3349 26.9908 24.2281 27.2886 23.9942 27.4635L23.5803 27.6919C23.3388 27.8551 23.0225 27.8551 22.781 27.6919L15.0171 22.9818L7.21039 27.7347C6.96897 27.8979 6.65259 27.8979 6.41117 27.7347L6.09719 27.5206C5.8632 27.3457 5.75643 27.0479 5.82602 26.7641L7.88117 17.8436L1.00212 11.9346Z" fill="#FFD855"/>
</svg>
