<svg width="112" height="113" viewBox="0 0 112 113" fill="none" xmlns="http://www.w3.org/2000/svg">
<g filter="url(#filter0_d_1504_3185)">
<rect width="52.8217" height="52.8217" rx="12.4063" transform="matrix(0.704215 -0.709987 0.704215 0.709987 18.5947 46.5029)" fill="white"/>
</g>
<path d="M66.351 33.7122C66.5183 34.2875 66.632 34.6019 66.7123 34.7023C66.7925 34.8026 66.7123 35.0234 66.5316 35.0836C66.351 35.1438 65.7356 35.3444 65.7356 35.3444L65.4346 33.1971L65.6152 32.8359L66.1236 32.3877C66.1303 32.3877 66.244 33.3443 66.351 33.7122Z" fill="#F37E4E"/>
<path d="M58.5439 37.72C58.5439 37.72 59.7012 36.75 59.9688 36.4021C60.3434 35.9071 60.5107 35.7064 60.417 35.3051C60.3167 34.9037 60.1628 34.6361 60.3836 34.7164C60.6043 34.7967 64.1899 37.3788 64.1899 37.3788C64.1899 37.3788 63.4273 37.72 62.8854 38.2217C62.3503 38.7167 61.8887 39.7469 61.8887 39.7469L58.5439 37.72Z" fill="#FFA171"/>
<path d="M60.8049 37.0973C61.4671 38.0539 62.0625 39.3718 62.0625 39.3718C62.0625 39.3718 62.3769 38.7028 62.611 38.4687C63.1395 37.9402 63.9623 37.405 63.9623 37.405L62.1963 34.6289L60.5841 35.1641L60.3634 35.8464L60.0557 36.2946C60.0557 36.2946 60.3968 36.502 60.8049 37.0973Z" fill="#F37E4E"/>
<path d="M65.8485 30.709C65.8485 30.709 66.0425 31.1839 66.096 32.1138C66.1428 32.95 66.1562 33.4115 66.1227 33.9333C66.0826 34.6156 66.1495 35.1575 66.1294 35.793C66.1094 36.4285 65.8685 36.9904 65.6478 37.1978C65.3066 37.5122 65.1327 37.5389 64.5306 37.559C63.9353 37.5791 63.253 37.3717 62.3566 36.977C61.4669 36.5824 60.6842 36.4352 60.5036 35.5789C60.323 34.7227 60.4233 33.9066 60.4233 33.9066L63.5072 31.0234L65.8485 30.709Z" fill="#FFA171"/>
<path d="M62.1031 34.168C62.1031 34.168 61.9693 34.4489 62.3172 34.8503C62.665 35.2517 62.8323 35.5192 62.8992 35.7132C62.9661 35.9139 62.6182 35.9608 62.3306 35.8136C62.0496 35.6664 62.0295 35.5795 61.7954 35.6463C61.5613 35.7132 61.2469 35.7467 61.0796 35.5995C60.9124 35.4523 60.899 35.4189 60.6983 35.4858C60.4976 35.5527 60.1966 35.439 60.0494 35.0844C59.909 34.7366 62.1031 34.168 62.1031 34.168Z" fill="#5E2D1E"/>
<path fill-rule="evenodd" clip-rule="evenodd" d="M63.3408 28.1742C64.6853 28.3748 65.6955 29.2177 66.1972 30.5958C66.7056 31.9738 66.7725 33.8602 66.7591 33.8468C66.4581 34.3486 65.7824 34.7232 65.2138 35.0242C64.6527 35.3279 64.1502 35.0322 63.5906 34.7029C63.5831 34.6985 63.5757 34.6941 63.5682 34.6897C62.9996 34.3552 62.5915 34.3218 62.1233 34.4556C61.8144 34.5438 61.3424 34.8679 60.9801 35.1167C60.7933 35.245 60.6356 35.3533 60.5446 35.3988C60.277 35.5326 59.9358 35.5326 59.6682 35.1647C59.6294 35.1112 59.5884 35.0603 59.5455 35.007C59.2929 34.6934 58.9735 34.2966 58.6247 32.81C58.2501 31.2179 58.5511 30.288 59.6147 29.1709C60.5245 28.221 61.9962 27.9735 63.3408 28.1742ZM65.4816 34.2548C65.8027 34.2214 66.0636 34.034 66.1639 33.9203C66.3178 33.7531 66.2843 33.4989 66.2308 33.1711C66.184 32.8433 66.0167 32.2212 65.515 32.0874C65.2006 32.0004 64.8728 32.2814 64.7658 32.6694C64.6655 33.0373 64.6588 33.4186 64.8461 33.8534C64.9464 34.0876 65.1337 34.2882 65.4816 34.2548Z" fill="#53B175"/>
<path d="M61.253 33.7595C61.9402 33.7595 62.4973 33.1874 62.4973 32.4818C62.4973 31.7761 61.9402 31.2041 61.253 31.2041C60.5659 31.2041 60.0088 31.7761 60.0088 32.4818C60.0088 33.1874 60.5659 33.7595 61.253 33.7595Z" fill="#FFAA00"/>
<path d="M61.254 33.257C61.6714 33.257 62.0099 32.9096 62.0099 32.4811C62.0099 32.0525 61.6714 31.7051 61.254 31.7051C60.8365 31.7051 60.498 32.0525 60.498 32.4811C60.498 32.9096 60.8365 33.257 61.254 33.257Z" fill="#FFC648"/>
<path d="M55.7686 28.4412C55.7686 27.993 56.4442 27.906 58.4577 28.207C60.478 28.5081 61.381 28.5415 61.8225 28.9496C62.2574 29.3509 62.157 29.7924 62.0567 30.4614C61.9563 31.137 61.555 32.2073 61.4881 32.4482C61.4212 32.6823 61.0867 32.6823 60.9195 32.582C60.7522 32.4816 60.7522 32.0134 60.7857 31.8394C60.8191 31.6722 60.2505 31.0634 60.2505 31.0634C60.2505 31.0634 59.6083 30.9297 59.2404 30.729C58.8725 30.5283 58.8056 30.3276 58.8056 30.3276C58.8056 30.3276 57.9627 30.2273 57.5279 29.9931C57.0931 29.759 57.0596 29.3844 57.0596 29.3844C57.0596 29.3844 55.7686 29.0834 55.7686 28.4412Z" fill="#FFAA00"/>
<path d="M65.6085 33.8529C65.7784 33.8529 65.9162 33.6073 65.9162 33.3044C65.9162 33.0014 65.7784 32.7559 65.6085 32.7559C65.4386 32.7559 65.3008 33.0014 65.3008 33.3044C65.3008 33.6073 65.4386 33.8529 65.6085 33.8529Z" fill="#5E2D1E"/>
<path d="M56.1023 28.5546C56.2294 28.8557 56.5773 29.0296 57.2596 29.0764C57.9353 29.1232 60.591 29.1968 60.9857 29.1834C61.387 29.1701 61.7416 28.8289 60.4304 28.6617C59.1193 28.4944 57.4737 28.2469 56.9185 28.2335C56.3632 28.2135 55.9752 28.2603 56.1023 28.5546Z" fill="#FFC648"/>
<path d="M57.4876 29.5245C57.5478 29.7586 57.782 29.8322 58.2302 29.9526C58.6784 30.0731 58.9526 30.0329 59.461 30.0128C59.9694 29.9995 60.7253 29.8456 60.9528 29.8122C61.1869 29.7787 61.615 29.5044 60.6116 29.4442C59.6082 29.384 58.1298 29.3506 57.7619 29.3506C57.4676 29.3506 57.4609 29.3974 57.4876 29.5245Z" fill="#FFC648"/>
<path d="M59.293 30.4147C59.38 30.582 59.681 30.6756 59.8817 30.7224C60.0824 30.7693 60.3767 30.6154 60.7112 30.4749C61.0524 30.3345 61.3266 30.0869 61.1594 30.0736C60.9922 30.0602 60.4035 30.1538 60.0021 30.194C59.6008 30.2475 59.1994 30.2475 59.293 30.4147Z" fill="#FFC648"/>
<path d="M60.5245 30.9968C60.665 31.2176 60.7721 31.4718 60.8858 31.5052C60.9995 31.5387 61.1667 31.425 61.2136 31.0102C61.2604 30.6021 61.3474 30.2877 61.0798 30.5018C60.8189 30.7159 60.5848 30.7961 60.5045 30.8497C60.4242 30.8965 60.4376 30.863 60.5245 30.9968Z" fill="#FFC648"/>
<path d="M64.3041 71.1465C64.3041 71.1465 64.0566 73.8022 63.9562 74.2236C63.8492 74.6451 63.6084 74.9595 63.6418 75.4144C63.6753 75.8693 64.0298 76.0097 65.0734 76.0097C66.1236 76.0097 69.2008 75.9763 69.2008 75.9763C69.2008 75.9763 66.8929 74.6852 66.5785 74.4712C66.2641 74.2638 66.1571 74.0497 66.2641 73.4544C66.3711 72.859 66.6855 71.7753 66.6855 71.7753L64.3041 71.1465Z" fill="#FFA171"/>
<path d="M64.8725 73.4885C65.6017 73.5219 66.2773 73.2878 66.2773 73.2878L66.8058 71.4014L64.2437 71.475L64.0898 73.3079C64.0898 73.3146 64.344 73.4617 64.8725 73.4885Z" fill="#F37E4E"/>
<path d="M66.8664 74.2377C67.3614 74.4518 68.1976 74.8799 68.7729 75.201C69.3548 75.5221 69.589 75.6291 69.589 75.9302C69.589 76.2312 68.6056 76.1844 67.2878 76.1844C66.1506 76.1844 63.642 76.1777 63.5618 76.1777C63.4748 76.1777 63.2206 75.676 63.3276 74.9936C63.4347 74.3046 63.9564 74.231 63.9564 74.231C63.9564 74.231 64.0367 74.9803 64.7057 75.0271C65.6422 75.0873 66.1171 74.9067 66.3312 74.7796C66.5453 74.6525 66.5453 74.5053 66.5453 74.5053C66.5453 74.5053 66.2643 74.2243 66.5051 74.0772C66.7326 73.9166 66.8664 74.2377 66.8664 74.2377Z" fill="#FFC648"/>
<path d="M43.5263 55.7213C43.5263 55.7213 42.6968 58.0358 45.3459 60.0828C47.9949 62.1231 52.4635 62.2903 57.2598 62.2903C62.0562 62.2903 64.1032 62.3438 64.1032 62.3438C64.1032 62.3438 63.7754 67.4212 63.3874 69.5685C62.9994 71.7225 62.5579 72.3246 62.8389 72.5453C63.1131 72.7661 63.7754 72.6791 65.4812 72.6791C67.2272 72.6791 67.943 72.5453 68.1637 72.271C68.3845 71.9968 69.8428 69.1738 70.3913 65.0397C70.9398 60.8989 71.2743 58.8586 70.3378 57.3736C69.4013 55.8818 67.5817 54.7245 64.9327 54.283C62.2836 53.8415 59.8554 53.293 59.8554 53.293L43.5263 55.7213Z" fill="#FFC648"/>
<path d="M46.0284 57.6412C48.7242 58.2432 53.2731 58.4105 56.1228 56.7916C58.9725 55.1728 60.5513 54.5506 61.1466 54.3901C61.742 54.2295 63.4545 54.069 63.4545 54.069L61.0998 53.6074L50.5304 55.34L43.3994 56.611C43.3994 56.6177 44.7106 57.3468 46.0284 57.6412Z" fill="#FFAA00"/>
<path d="M58.825 37.5855C58.825 37.5855 58.7514 35.8194 56.0823 35.2575C53.4199 34.6956 52.8178 34.8093 51.7676 35.8596C50.7173 36.9098 50.1554 38.3347 50.6772 39.3849C51.199 40.4352 53.7945 39.7595 55.2528 39.1976C56.7245 38.6357 58.1092 38.3414 58.825 37.5855Z" fill="#FFC648"/>
<path d="M58.5573 37.2311C58.5573 37.2311 58.2027 36.2945 57.119 35.7928C56.2962 35.4115 54.9182 35.1172 53.8947 35.1172C53.0451 35.1172 52.617 35.3446 52.5167 35.7059C52.3962 36.134 53.8746 35.746 55.4199 36.0872C56.4768 36.3213 57.507 36.5956 57.9686 37.1107C58.2429 37.4117 58.5104 37.7662 58.6108 37.6993C58.7379 37.6324 58.6375 37.3649 58.5573 37.2311Z" fill="#FFAA00"/>
<path d="M59.7012 38.3818C60.825 39.024 61.882 39.7398 61.882 39.7398C61.882 39.7398 60.9856 41.76 60.8785 44.2284C60.7715 46.6968 60.4504 48.5164 60.718 50.5031C60.9856 52.4899 61.0926 53.6138 61.0926 53.6138C61.0926 53.6138 57.3398 55.654 53.0451 56.1892C48.7572 56.7244 43.3922 56.6173 43.3922 56.6173C43.3922 56.6173 41.2984 53.0786 45.7001 46.4828C50.1018 39.8869 53.9616 38.5959 55.1925 38.0072C56.4233 37.4185 58.5372 37.7195 58.5372 37.7195L59.7012 38.3818Z" fill="#FFC648"/>
<path d="M44.9443 84.0175C48.0736 84.0175 50.6103 81.4808 50.6103 78.3515C50.6103 75.2223 48.0736 72.6855 44.9443 72.6855C41.8151 72.6855 39.2783 75.2223 39.2783 78.3515C39.2783 81.4808 41.8151 84.0175 44.9443 84.0175Z" fill="#5E2D1E"/>
<path d="M44.9438 81.9443C46.9278 81.9443 48.5361 80.336 48.5361 78.352C48.5361 76.3681 46.9278 74.7598 44.9438 74.7598C42.9599 74.7598 41.3516 76.3681 41.3516 78.352C41.3516 80.336 42.9599 81.9443 44.9438 81.9443Z" fill="#DBB38A"/>
<path d="M44.9444 81.5625C46.7177 81.5625 48.1553 80.1249 48.1553 78.3516C48.1553 76.5782 46.7177 75.1406 44.9444 75.1406C43.171 75.1406 41.7334 76.5782 41.7334 78.3516C41.7334 80.1249 43.171 81.5625 44.9444 81.5625Z" fill="#F9E5D0"/>
<path d="M44.9445 79.6361C45.6539 79.6361 46.2289 79.0611 46.2289 78.3518C46.2289 77.6424 45.6539 77.0674 44.9445 77.0674C44.2352 77.0674 43.6602 77.6424 43.6602 78.3518C43.6602 79.0611 44.2352 79.6361 44.9445 79.6361Z" fill="#5E2D1E"/>
<path d="M79.8164 84.0175C82.9456 84.0175 85.4824 81.4808 85.4824 78.3515C85.4824 75.2223 82.9456 72.6855 79.8164 72.6855C76.6871 72.6855 74.1504 75.2223 74.1504 78.3515C74.1504 81.4808 76.6871 84.0175 79.8164 84.0175Z" fill="#5E2D1E"/>
<path d="M79.8169 81.9443C81.8008 81.9443 83.4091 80.336 83.4091 78.352C83.4091 76.3681 81.8008 74.7598 79.8169 74.7598C77.8329 74.7598 76.2246 76.3681 76.2246 78.352C76.2246 80.336 77.8329 81.9443 79.8169 81.9443Z" fill="#DBB38A"/>
<path d="M79.8164 81.5625C81.5898 81.5625 83.0274 80.1249 83.0274 78.3516C83.0274 76.5782 81.5898 75.1406 79.8164 75.1406C78.0431 75.1406 76.6055 76.5782 76.6055 78.3516C76.6055 80.1249 78.0431 81.5625 79.8164 81.5625Z" fill="#F9E5D0"/>
<path d="M79.8166 79.6361C80.526 79.6361 81.101 79.0611 81.101 78.3518C81.101 77.6424 80.526 77.0674 79.8166 77.0674C79.1073 77.0674 78.5322 77.6424 78.5322 78.3518C78.5322 79.0611 79.1073 79.6361 79.8166 79.6361Z" fill="#5E2D1E"/>
<path d="M37.105 73.1403C37.8069 73.1403 38.376 72.4485 38.376 71.5951C38.376 70.7416 37.8069 70.0498 37.105 70.0498C36.403 70.0498 35.834 70.7416 35.834 71.5951C35.834 72.4485 36.403 73.1403 37.105 73.1403Z" fill="#53B175"/>
<path d="M40.938 69.5346C40.938 69.5346 39.3258 69.4677 38.5498 69.5346C37.7805 69.6015 37.0781 69.8825 37.0781 69.8825V73.1938C37.0781 73.1938 37.2186 73.3944 37.8474 73.3944C38.4762 73.3944 40.938 69.5346 40.938 69.5346Z" fill="#F9E5D0"/>
<path d="M50.4971 40.9173C50.4971 40.9173 51.2931 41.1447 52.6912 40.4624C53.8151 39.9139 54.9924 39.5125 56.0627 39.0442C57.133 38.576 58.5445 37.7197 58.5445 37.7197C58.5445 37.7197 53.708 39.1981 53.5006 39.2516C53.2933 39.3051 51.7212 39.9072 51.7212 39.9072L50.4971 40.9173Z" fill="#FFAA00"/>
<path d="M43.5394 67.0262C43.5394 66.8121 43.4123 66.6315 43.2384 66.5446V59.8083C43.2384 59.5541 43.031 59.3467 42.7768 59.3467H41.8403C41.5861 59.3467 41.3787 59.5541 41.3787 59.8083V66.4977H25.8926C25.5982 66.4977 25.3574 66.7386 25.3574 67.0329C25.3574 67.3272 25.5982 67.5681 25.8926 67.5681H36.85L42.5762 70.5047C42.7635 70.5984 42.9909 70.5248 43.0846 70.3442L43.3388 69.8492C43.4324 69.6619 43.3588 69.4344 43.1782 69.3408L39.7465 67.5747H43.011C43.2986 67.5614 43.5394 67.3205 43.5394 67.0262Z" fill="#9E9E9F"/>
<path d="M57.6951 40.1875C57.6951 40.1875 59.1868 40.2276 59.3942 42.8232C59.4945 44.054 59.5882 44.9638 59.6551 45.5859C59.7287 46.2281 60.0832 46.8034 60.6184 47.1579L60.6652 48.0945L58.2837 48.3487L57.0596 47.3319L57.6951 40.1875Z" fill="#FFAA00"/>
<path d="M51.8343 51.4259C52.122 53.1384 53.5067 53.8809 56.149 53.8608C58.972 53.8408 61.0524 53.2789 61.0524 53.2789L60.6845 50.9977C60.6845 50.9977 55.547 51.0513 54.6439 49.7803C53.7408 48.5093 52.8979 41.3047 52.8979 41.3047C52.8979 41.3047 50.7774 45.1244 51.8343 51.4259Z" fill="#FFAA00"/>
<path d="M56.6173 66.6448C56.6173 66.6448 55.8146 65.133 50.2757 65.3337C44.7368 65.5343 42.0209 66.7719 39.9806 69.4611C38.2279 71.7756 37.1911 73.9898 36.5823 75.903C35.9803 77.8162 35.6792 77.9166 36.2813 78.4183C36.8833 78.92 51.9548 79.0337 51.9548 79.0337L53.4867 79.522L66.772 79.4217L73.9163 78.4183L86.5996 74.7926C86.5996 74.7926 86.1514 71.8024 82.6863 70.4444C80.6393 69.6417 79.0539 69.8624 79.0539 69.8624L72.3109 50.0348C72.3109 50.0348 71.7757 49.406 70.9395 48.8842C70.1033 48.3624 68.5915 48.6233 67.6483 49.2521C66.7118 49.8809 68.6919 51.5466 69.7354 53.4799C70.779 55.4131 72.1971 57.8816 72.1971 64.1362C72.1971 70.3909 72.1971 71.0799 72.1971 72.2372C72.1971 73.3945 71.6887 74.8327 70.2706 75.9365C69.7822 76.3178 59.6677 76.2442 58.8182 76.2442C57.7479 76.2442 55.0721 74.5518 54.6038 72.0833C54.1355 69.6149 56.6173 66.6448 56.6173 66.6448Z" fill="#53B175"/>
<path d="M49.4397 67.722C52.3831 68.5113 53.2728 70.3576 53.4132 72.9665C53.5537 75.4416 53.4868 75.5821 53.6006 76.338C53.741 77.3013 53.6674 77.0471 58.3434 77.1474C63.2535 77.2545 66.15 77.1675 68.3174 76.7193C69.8828 76.3982 70.7323 75.93 71.4481 74.8864C72.3646 73.5351 72.1438 71.1604 72.2241 67.7822C72.3244 63.4608 71.515 57.4068 70.4982 54.8179C69.856 53.1723 71.0066 50.1554 72.3177 50.0483C73.6356 49.9413 74.5988 67.4009 74.5988 67.4009L76.7595 69.0665C76.7595 69.0665 79.3484 69.7756 79.81 69.8225C81.7967 70.0432 82.265 70.3576 82.2583 70.3643C82.2583 70.3643 80.5726 70.3643 78.4252 74.9734C78.1911 75.4751 77.7429 77.308 77.7429 77.308C77.7429 77.308 74.9868 78.1375 74.7259 78.1977C73.0536 78.5723 72.4716 79.2212 72.4716 79.2212L63.8823 79.6359L53.5069 79.5356L51.9616 79.0406L50.8846 73.0334L46.1418 70.7657L42.2217 72.3444L38.8569 75.4349L37.1846 78.7262C37.1846 78.7262 36.743 78.7997 36.2882 78.4251C35.8333 78.0505 35.8333 78.2378 36.5892 75.9099C37.3451 73.5819 38.8369 71.7022 40.8838 69.7623C42.9308 67.8223 47.2924 67.1467 49.4397 67.722Z" fill="#53B175"/>
<path d="M46.6769 68.8453C50.0953 68.7516 51.9215 70.5444 52.2292 73.1667C52.5369 75.789 51.9616 79.0401 51.9616 79.0401L37.1846 78.7257C37.1846 78.7257 37.9539 69.0794 46.6769 68.8453Z" fill="#53B175"/>
<path d="M44.2827 59.0527C44.2827 59.0527 42.8177 58.745 42.5836 59.9023C42.3494 61.0596 42.5836 64.993 42.5836 65.769C42.5836 66.5382 44.5235 66.0098 46.2962 65.8559C48.0689 65.7021 50.8986 65.4077 52.979 65.7957C55.0594 66.1837 56.6114 66.6587 56.6114 66.6587C56.6114 66.6587 57.3941 66.6185 58.0898 66.6185C58.7855 66.6185 58.9393 65.2271 59.0932 63.9962C59.2471 62.7587 58.8925 62.2971 57.2603 62.2971C55.628 62.2971 46.905 62.8323 44.2827 59.0527Z" fill="#53B175"/>
<path d="M69.1939 50.3227C68.9597 51.1054 68.9865 51.3061 68.5249 51.1723C68.0567 51.0452 67.856 51.1991 67.6486 51.587C67.4412 51.975 66.0498 50.684 66.0498 50.684C66.0498 50.684 66.4913 50.0886 67.4211 49.7541C68.351 49.4197 68.7122 49.5735 69.0199 49.6739C69.321 49.7742 69.2674 50.0618 69.1939 50.3227Z" fill="#53B175"/>
<path d="M66.8262 47.2452C67.4173 47.2452 67.8965 46.4276 67.8965 45.419C67.8965 44.4104 67.4173 43.5928 66.8262 43.5928C66.2351 43.5928 65.7559 44.4104 65.7559 45.419C65.7559 46.4276 66.2351 47.2452 66.8262 47.2452Z" fill="#53B175"/>
<path d="M69.5689 45.7C70.0972 45.7 70.5255 44.9692 70.5255 44.0678C70.5255 43.1663 70.0972 42.4355 69.5689 42.4355C69.0406 42.4355 68.6123 43.1663 68.6123 44.0678C68.6123 44.9692 69.0406 45.7 69.5689 45.7Z" fill="#53B175"/>
<path d="M67.3812 45.2656C67.3812 45.2656 67.9364 45.5867 68.0568 46.7774C68.1773 47.9682 69.2877 49.005 69.2877 49.005L68.3244 49.5737C68.3244 49.5737 67.816 48.209 67.7023 47.4129C67.5819 46.6169 67.3076 45.4262 67.3076 45.4262L67.3812 45.2656Z" fill="#53B175"/>
<path d="M68.7727 44.3486C68.7727 44.3486 68.6055 45.2651 68.8128 46.3354C69.2075 48.3623 70.0638 48.9911 70.0638 48.9911L71.2746 49.232C71.2746 49.232 69.9233 47.9208 69.5688 47.1248C69.2142 46.3287 69.2878 45.0979 69.2878 45.0979L68.7727 44.3486Z" fill="#53B175"/>
<path d="M78.8531 55.828H78.7461C79.8365 55.828 80.7195 54.8781 80.7195 53.6071V53.2994C80.7195 51.9882 79.8365 51.0049 78.7461 51.0049H78.8531V55.828Z" fill="#FFC648"/>
<path d="M79.3222 56.0281H78.6065C77.4224 56.0281 76.4658 55.0715 76.4658 53.8874V52.9375C76.4658 51.7535 77.4224 50.7969 78.6065 50.7969H79.3222V56.0281Z" fill="#53B175"/>
<path d="M62.5312 48.4423C62.5312 48.4423 63.3205 48.4624 64.6852 48.4624C66.0498 48.4624 67.0599 48.362 67.769 48.1279C68.4781 47.8938 68.4781 47.7533 69.1939 48.2082C69.903 48.6631 70.0234 48.7634 70.0635 48.9975C70.1037 49.2317 69.8628 50.2819 69.7491 50.6766C69.6287 51.0713 69.4146 51.0512 69.2942 50.991C69.1738 50.9308 69.2541 50.3354 69.2742 50.1013C69.2942 49.8672 69.2541 49.7267 69.2541 49.7267C69.2541 49.7267 68.5784 49.5461 68.3242 49.5662C68.07 49.5862 67.4747 49.5862 67.0198 49.9207C66.6719 50.1816 66.4846 50.3956 65.9695 50.496C65.5816 50.5696 65.0598 50.5963 64.5848 50.4358C64.1567 50.2953 62.1699 50.4157 62.1699 50.4157L62.5312 48.4423Z" fill="#FFA171"/>
<path d="M52.7181 43.0576C52.5977 45.1113 52.1629 48.5564 52.785 50.3023C53.1128 51.2255 53.6011 51.5733 54.4172 52.0282C55.6013 52.6905 57.8155 52.2824 59.5882 52.2356C62.2573 52.1687 62.0767 50.978 62.0767 50.978C62.0767 50.978 61.6753 50.5164 61.9496 49.3925C62.2172 48.2687 62.4379 48.2955 62.4379 48.2955C62.4379 48.2955 62.5383 47.2519 61.0867 47.466C59.6417 47.68 58.7253 47.573 58.7253 47.573C58.7253 47.573 59.314 44.1948 58.6718 41.7264C58.0296 39.258 56.4174 38.6693 55.3136 38.9235C53.9356 39.2312 52.8787 40.3216 52.7181 43.0576Z" fill="#FFC648"/>
<path d="M63.3742 49.205C63.5347 49.7736 64.0899 49.9943 64.4244 50.1081C64.7589 50.2218 65.3275 50.3957 65.8292 50.2017C66.3309 50.0077 67.4079 49.7468 67.4079 49.7468C67.4079 49.7468 66.5717 50.2285 66.3778 50.369C66.1838 50.5094 65.6887 50.6566 65.3275 50.6098C64.973 50.5629 64.5181 50.4158 64.304 50.369C64.0899 50.3221 62.4443 50.3957 62.4443 50.3957L62.6116 48.7501L62.9929 48.4424L63.3474 48.4691C63.3541 48.4691 63.2538 48.7769 63.3742 49.205Z" fill="#F37E4E"/>
<path d="M62.4244 48.2822L63.1803 48.4026C63.1803 48.4026 62.8392 48.6033 62.8392 49.3592C62.8392 50.3627 63.0532 50.5165 63.0532 50.5165L62.0431 50.8042C62.0431 50.8042 61.5146 50.8777 61.5146 49.8074C61.5146 48.7371 61.7153 48.3491 62.4244 48.2822Z" fill="#FFC648"/>
<path d="M62.1295 48.021C61.9823 48.2418 61.5609 48.2351 61.4539 49.4191C61.3468 50.6031 61.3937 51.038 61.2064 51.3925C61.019 51.747 60.912 51.7939 60.805 51.9009C60.698 52.0079 60.417 52.1752 60.417 52.1752C60.417 52.1752 61.1127 52.115 61.494 51.834C61.882 51.5597 61.9221 51.4795 62.0024 51.3122C62.0827 51.145 62.0492 50.864 62.0492 50.864C62.0492 50.864 61.8151 50.476 61.9556 49.5261C62.0961 48.5695 62.4171 48.2819 62.4171 48.2819C62.4171 48.2819 62.4305 48.1882 62.4171 48.021C62.4038 47.8538 62.2298 47.6865 62.1362 47.6397C62.0559 47.5929 62.2566 47.8337 62.1295 48.021Z" fill="#FFAA00"/>
<path d="M66.7458 52.3362C67.2962 52.3362 67.7425 51.89 67.7425 51.3395C67.7425 50.789 67.2962 50.3428 66.7458 50.3428C66.1953 50.3428 65.749 50.789 65.749 51.3395C65.749 51.89 66.1953 52.3362 66.7458 52.3362Z" fill="#53B175"/>
<path d="M72.8331 49.2522C71.522 50.055 70.9601 51.1922 71.8966 56.8047C72.8331 62.4171 74.1242 68.819 73.482 72.4179C72.8331 76.0169 71.8297 76.5186 69.9566 77.6692C68.0836 78.8197 60.685 78.9402 58.3102 78.9402C55.9355 78.9402 51.9619 79.0405 51.9619 79.0405C51.9619 79.0405 52.1091 79.6894 52.5372 79.977C52.972 80.2647 70.3848 79.977 71.6758 79.977C72.9736 79.977 75.2748 78.1776 77.5024 74.7994C79.73 71.4145 80.8872 67.8222 80.6665 62.9991C80.4457 58.176 78.3653 54.2225 76.994 52.2759C75.636 50.3292 74.1242 48.4562 72.8331 49.2522Z" fill="#53B175"/>
<path d="M62.739 72.2107C62.739 72.2107 64.4113 66.2437 65.1271 64.5713C65.8429 62.899 66.3178 61.9491 65.6422 61.7484C64.9666 61.5477 61.3877 62.2635 61.3877 62.2635L64.1036 62.3371C64.1036 62.3437 62.6587 71.2541 62.739 72.2107Z" fill="#FFAA00"/>
<path d="M37.4326 78.8266L51.9555 79.054C52.2164 79.0607 52.4372 78.9135 52.4773 78.7129L52.5308 78.4252C52.571 78.2178 52.3636 78.0707 52.096 78.0372C51.0391 77.9101 48.8181 77.8232 44.7175 77.7964C40.5366 77.7696 38.2621 77.7429 37.3323 77.8499C37.1249 77.8767 37.0246 77.9436 36.9978 78.1041L36.9644 78.4051C36.9309 78.6259 37.145 78.8199 37.4326 78.8266Z" fill="#FFC648"/>
<path d="M74.7197 78.1973L86.6069 74.799C86.8009 74.7388 86.9213 74.5381 86.8611 74.3374C86.8143 74.1836 86.7474 74.0966 86.5802 73.8759C86.4063 73.6417 86.1788 73.7421 86.1788 73.7421L75.8502 76.9932C75.8502 76.9999 75.2348 77.8628 74.7197 78.1973Z" fill="#FFC648"/>
<path d="M44.7775 55.7615C47.1791 55.8551 49.7411 55.8284 53.3133 55.2397C57.9358 54.4838 61.0464 53.1191 61.0464 53.1191L61.0932 53.6075C61.0932 53.6075 58.4442 55.1461 54.8854 55.8886C51.3266 56.6311 46.7443 56.6913 45.8813 56.6913C45.0184 56.6913 43.3928 56.6111 43.3928 56.6111L42.958 55.4337C42.9647 55.4404 43.6002 55.7147 44.7775 55.7615Z" fill="white"/>
<path fill-rule="evenodd" clip-rule="evenodd" d="M62.5447 40.0943H62.6718C63.0464 40.0943 64.1435 40.0474 64.4579 39.5123C64.5984 39.2715 64.565 38.9771 64.3576 38.6493C64.1903 38.3818 63.9629 38.2413 63.6953 38.2346C62.8391 38.2145 61.8156 39.5992 61.7754 39.6595L61.6885 39.7732L61.8022 39.8601C61.8032 39.8607 61.8059 39.8623 61.8101 39.865C61.8602 39.8969 62.1313 40.0696 62.5447 40.0943ZM62.5651 39.8066C62.3644 39.7933 62.2039 39.7397 62.1035 39.6929C62.4313 39.2715 63.1404 38.5156 63.6689 38.5223H63.6889C63.8562 38.529 64.0033 38.6159 64.1171 38.8032C64.2709 39.0307 64.2977 39.2247 64.2174 39.3651C63.99 39.7531 62.9865 39.8267 62.5651 39.8066Z" fill="#FFAA00"/>
<path fill-rule="evenodd" clip-rule="evenodd" d="M62.1499 41.9941C62.2302 42.0409 62.3238 42.061 62.4175 42.061C62.5646 42.061 62.7319 42.0008 62.9192 41.8804C63.1533 41.7198 63.2737 41.5191 63.2737 41.2783C63.2804 40.5358 62.1164 39.713 61.9827 39.6193L61.8622 39.5391L61.782 39.6595C61.7815 39.6605 61.78 39.6628 61.7778 39.6665C61.7501 39.7117 61.6004 39.9566 61.588 40.3217C61.588 40.3219 61.588 40.3224 61.588 40.3231C61.5875 40.3723 61.576 41.6775 62.1499 41.9941ZM61.8693 40.3285C61.876 40.1746 61.9161 40.0408 61.9495 39.9539C62.3241 40.2415 62.9864 40.8302 62.9797 41.2784C62.9797 41.4255 62.9061 41.546 62.7523 41.6463C62.5583 41.7734 62.4044 41.8068 62.284 41.7399C61.9629 41.566 61.8559 40.7365 61.8693 40.3285Z" fill="#FFAA00"/>
<path d="M64.3242 40.5219C63.1 40.5219 62.0765 39.9801 62.0297 39.96C61.9628 39.9199 61.936 39.8396 61.9695 39.766C62.0096 39.6991 62.0899 39.6724 62.1635 39.7058C62.1702 39.7125 63.1736 40.2343 64.3242 40.2343C65.4146 40.2343 65.7223 39.8061 65.729 39.7995C65.7758 39.7326 65.8628 39.7192 65.923 39.7593C65.9899 39.7995 66.0099 39.8864 65.9631 39.9533C65.9497 39.9801 65.5952 40.5219 64.3242 40.5219Z" fill="#FFAA00"/>
<path d="M63.963 42.2479C63.9496 42.2479 63.9296 42.2479 63.9162 42.2412C63.8426 42.2145 63.8025 42.1409 63.8292 42.0673C63.8292 42.0539 63.8426 42.0406 63.856 42.0138C63.9229 41.8733 64.1169 41.4586 63.8159 41.1442C63.4279 40.7361 62.4178 40.2478 62.4044 40.2411C62.3308 40.2076 62.304 40.1207 62.3375 40.0538C62.3709 39.9802 62.4579 39.9534 62.5248 39.9869C62.5716 40.007 63.5951 40.502 64.0232 40.9502C64.3109 41.2512 64.3376 41.6526 64.1102 42.1342C64.1035 42.1476 64.1035 42.1543 64.0968 42.161C64.0767 42.2078 64.0165 42.2479 63.963 42.2479Z" fill="#FFAA00"/>
<path d="M38.8574 75.4346C38.8574 75.4346 39.6535 72.0564 43.0785 70.3305C46.5102 68.6047 48.6709 69.6884 49.4402 70.1165C50.35 70.6249 50.8249 72.0297 50.8851 73.0264C50.952 74.0298 38.8574 75.4346 38.8574 75.4346Z" fill="#2C7747"/>
<path d="M73.0204 50.1146C72.2311 50.7234 72.0504 52.0546 72.1909 53.8607C72.3314 55.6669 73.4017 61.2192 73.7429 63.6341C74.0907 66.049 74.2245 69.0258 74.2245 70.27C74.2245 71.5143 74.084 72.2033 74.084 72.2033C74.084 72.2033 74.8466 70.8186 74.6393 68.0558C74.4319 65.2931 74.4988 63.2862 74.0171 60.4566C73.5355 57.6269 73.1208 54.931 73.0472 53.4794C72.9803 52.0278 72.9803 50.9909 73.6024 50.5762C74.2245 50.1614 73.89 49.439 73.0204 50.1146Z" fill="#2C7747"/>
<path d="M32.3812 70.9326C33.2977 70.3573 33.9466 70.3105 34.5285 70.9326C35.1105 71.5547 35.0169 72.2304 34.4817 72.7187C33.9466 73.207 33.5853 73.1669 33.2776 73.5683C32.9632 73.9696 31.8461 73.9696 31.5384 73.4813C31.2173 72.993 31.1771 71.6952 32.3812 70.9326Z" fill="#C1E5F2"/>
<path d="M26.1739 70.6249C27.5051 70.0161 28.3614 69.8221 29.0772 70.1767C29.7929 70.5312 30.3281 70.9393 30.4619 71.6484C30.5957 72.3641 30.6826 72.9461 30.1943 73.5682C29.706 74.1904 29.2979 74.5984 28.7226 74.7322C28.1406 74.866 27.5586 74.4646 27.3847 74.284C27.2041 74.1034 26.8964 74.1971 26.7626 74.4646C26.6288 74.7322 26 74.953 25.5585 74.7322C25.1103 74.5115 25.0702 74.284 25.0233 74.0633C24.9765 73.8425 24.7558 73.9295 24.622 73.6151C24.4748 73.3007 24.2072 71.5146 26.1739 70.6249Z" fill="#C1E5F2"/>
<path d="M17.016 70.0902C16.929 71.5351 17.1966 72.1438 17.8187 72.5452C18.4409 72.9466 18.4409 73.1272 18.5345 73.5754C18.6215 74.0236 19.2503 74.6056 20.4076 74.3781C21.5715 74.1574 22.5081 73.0402 22.595 72.5452C22.682 72.0502 22.7756 71.9231 23.177 71.8294C23.5784 71.7425 24.7424 71.2073 24.8293 69.8627C24.9163 68.5248 24.3811 68.1636 23.9798 67.9897C23.5784 67.8091 23.4914 67.9027 23.5784 67.5013C23.6653 67.1 23.1302 66.1634 22.1937 66.0297C21.2571 65.8959 20.2738 66.0297 19.645 66.926C19.1968 67.5682 19.3306 67.9562 19.063 68.177C18.8021 68.391 17.103 68.6586 17.016 70.0902Z" fill="#C1E5F2"/>
<path d="M79.3216 56.1156C79.2079 56.1156 79.1143 56.022 79.1143 55.9083V50.9447C79.1143 50.831 79.2079 50.7373 79.3216 50.7373C79.4354 50.7373 79.529 50.831 79.529 50.9447V55.9083C79.529 56.022 79.4354 56.1156 79.3216 56.1156Z" fill="white"/>
<path d="M63.334 75.6685L69.5485 75.6953" stroke="#FFDDA1" stroke-width="0.147031"/>
<path d="M65.6149 72.7119L65.3339 72.6584C66.3173 67.7617 67.7421 59.7945 67.3675 59.2728C66.9594 58.8246 65.1399 58.7844 61.5075 58.7109C60.377 58.6841 59.0926 58.6573 57.6009 58.6172C53.547 58.4968 51.975 57.7007 51.3663 57.0585C51.0117 56.6772 51.0117 56.3762 51.0117 56.3428L51.2994 56.3495C51.2994 56.3695 51.3796 58.1489 57.6075 58.3362C59.0993 58.3831 60.377 58.4098 61.5075 58.4299C65.4543 58.5102 67.0865 58.5503 67.5749 59.0922C67.6953 59.2259 67.9829 59.547 66.8257 66.2098C66.2704 69.4542 65.6216 72.6785 65.6149 72.7119Z" fill="#FFDDA1"/>
<rect x="22.6826" y="53.126" width="18.4295" height="2.0336" fill="#FFC263"/>
<rect x="22.6826" y="54.0488" width="18.4295" height="0.749222" fill="#FBA647"/>
<rect x="22.3213" y="52.3438" width="19.1453" height="2.0336" fill="#FFC263"/>
<rect x="22.6826" y="58.792" width="18.4295" height="2.0336" fill="#FFC263"/>
<rect x="22.6826" y="59.708" width="18.4295" height="0.749222" fill="#FBA647"/>
<rect x="22.3213" y="58.002" width="19.1453" height="2.0336" fill="#FFC263"/>
<rect x="22.8223" y="50.3096" width="18.4295" height="2.0336" fill="#FCA647"/>
<rect x="22.8223" y="51.373" width="18.4295" height="0.615433" fill="#EF851B"/>
<rect x="22.4678" y="49.5205" width="19.1453" height="2.0336" fill="#FBA647"/>
<rect x="22.3945" y="55.9756" width="18.4295" height="2.0336" fill="#FCA647"/>
<rect x="22.3945" y="57.0391" width="18.4295" height="0.615433" fill="#EF851B"/>
<rect x="22.04" y="55.1865" width="19.1453" height="2.0336" fill="#FBA647"/>
<rect x="22.6826" y="64.4648" width="18.4295" height="2.0336" fill="#FFC263"/>
<rect x="22.6826" y="65.3877" width="18.4295" height="0.749222" fill="#FBA647"/>
<rect x="22.3213" y="63.6748" width="19.1453" height="2.0336" fill="#FFC263"/>
<rect x="22.3945" y="61.6484" width="18.4295" height="2.0336" fill="#FCA647"/>
<rect x="22.3945" y="62.7119" width="18.4295" height="0.615433" fill="#EF851B"/>
<rect x="22.04" y="60.8584" width="19.1453" height="2.0336" fill="#FBA647"/>
<rect x="22.0332" y="47.4863" width="18.4295" height="2.0336" fill="#FFC263"/>
<rect x="22.0605" y="48.3896" width="18.4295" height="0.749222" fill="#FBA647"/>
<rect x="21.6787" y="46.6973" width="19.1453" height="2.0336" fill="#FFC263"/>
<path d="M23.4111 57.2665L23.5315 58.0692H23.672C23.672 58.0692 23.6921 58.6311 23.9329 59.2265C24.1737 59.8285 24.6353 60.1429 24.9296 60.3436C25.2307 60.5443 25.8862 60.8855 27.0502 60.8654C28.2075 60.8453 29.231 60.6848 29.8263 60.2433C30.4284 59.8018 32.3081 58.0625 32.3081 58.0625H32.5891L32.9436 57.2598L23.4111 57.2665Z" fill="#EF851B"/>
<path d="M23.6318 57.2266C23.6318 57.2266 23.779 58.7785 24.555 59.5545C25.3644 60.3639 26.4147 60.8723 27.9265 60.5044C29.4383 60.1365 29.94 59.5946 30.7896 58.9658C31.6391 58.337 32.9302 57.2667 32.9302 57.2667L23.6318 57.2266Z" fill="#FFF498"/>
<path d="M25.3442 59.3475C25.8459 59.7288 26.5483 60.0298 27.2106 59.9696C27.8728 59.9094 28.8294 59.6352 29.592 59.0398C30.3613 58.4378 32.0203 57.2805 32.0203 57.2805L24.1602 57.2403C24.1602 57.227 24.3073 58.5582 25.3442 59.3475Z" fill="#FBE17B"/>
<path d="M26.0669 58.3099C26.7894 58.3701 27.1573 57.8751 27.2576 57.7212C27.3647 57.554 27.4382 57.2529 27.4382 57.2529H24.9297C24.9297 57.2529 25.0568 58.2229 26.0669 58.3099Z" fill="#2C7747"/>
<path d="M29.0371 57.2662C29.0371 57.2662 29.2445 58.0421 30.1944 58.0355C31.0306 58.0355 31.3316 57.2461 31.3316 57.2461C31.3316 57.2461 29.0772 57.2662 29.0371 57.2662Z" fill="#2C7747"/>
<path d="M28.3482 59.4475C28.8507 59.4475 29.258 59.0402 29.258 58.5377C29.258 58.0352 28.8507 57.6279 28.3482 57.6279C27.8458 57.6279 27.4385 58.0352 27.4385 58.5377C27.4385 59.0402 27.8458 59.4475 28.3482 59.4475Z" fill="#2C7747"/>
<path d="M26.3343 57.9958C26.4489 57.9958 26.5417 57.903 26.5417 57.7884C26.5417 57.6739 26.4489 57.5811 26.3343 57.5811C26.2198 57.5811 26.127 57.6739 26.127 57.7884C26.127 57.903 26.2198 57.9958 26.3343 57.9958Z" fill="#2C7747"/>
<path d="M28.2941 59.18C28.4382 59.18 28.555 59.0632 28.555 58.9191C28.555 58.775 28.4382 58.6582 28.2941 58.6582C28.15 58.6582 28.0332 58.775 28.0332 58.9191C28.0332 59.0632 28.15 59.18 28.2941 59.18Z" fill="#2C7747"/>
<path d="M28.1407 58.4709C28.2368 58.4709 28.3147 58.393 28.3147 58.297C28.3147 58.2009 28.2368 58.123 28.1407 58.123C28.0447 58.123 27.9668 58.2009 27.9668 58.297C27.9668 58.393 28.0447 58.4709 28.1407 58.4709Z" fill="#2C7747"/>
<path d="M29.9396 57.8147C30.0356 57.8147 30.1135 57.7368 30.1135 57.6407C30.1135 57.5447 30.0356 57.4668 29.9396 57.4668C29.8435 57.4668 29.7656 57.5447 29.7656 57.6407C29.7656 57.7368 29.8435 57.8147 29.9396 57.8147Z" fill="#2C7747"/>
<path d="M30.4747 57.6545C30.5708 57.6545 30.6486 57.5766 30.6486 57.4806C30.6486 57.3845 30.5708 57.3066 30.4747 57.3066C30.3787 57.3066 30.3008 57.3845 30.3008 57.4806C30.3008 57.5766 30.3787 57.6545 30.4747 57.6545Z" fill="#2C7747"/>
<path d="M29.7933 67.8153C29.713 67.8153 29.6461 67.7484 29.6528 67.6682L30.014 46.4959C30.014 46.4157 30.0809 46.3622 30.1612 46.3555C30.2415 46.3555 30.3017 46.4224 30.3017 46.5026L29.9405 67.6749C29.9405 67.7484 29.8736 67.8153 29.7933 67.8153Z" fill="#53B175"/>
<path d="M34.7503 67.7689C34.67 67.7689 34.6031 67.702 34.6098 67.6217L34.9711 46.6034C34.9711 46.5231 35.038 46.4629 35.1182 46.4629C35.1985 46.4629 35.2587 46.5298 35.2587 46.6101L34.8975 67.6284C34.8908 67.702 34.8306 67.7689 34.7503 67.7689Z" fill="#53B175"/>
<path fill-rule="evenodd" clip-rule="evenodd" d="M32.429 46.5893H32.4624C32.4958 46.5893 32.5293 46.576 32.5494 46.5559C32.5828 46.5291 32.6029 46.489 32.6029 46.4422C32.6029 46.3887 32.5561 45.1578 32.1079 44.2146C31.8068 43.5858 31.2516 43.1376 30.7231 43.0907C30.4489 43.064 30.0475 43.1376 29.7197 43.6058C29.4187 44.034 29.3451 44.4554 29.499 44.8501C29.9538 46.0341 32.3286 46.5693 32.429 46.5893ZM29.9602 43.773C30.1475 43.5054 30.3749 43.3716 30.6358 43.3716C30.6559 43.3716 30.6759 43.3716 30.7094 43.3783C31.1375 43.4117 31.6058 43.7997 31.86 44.3416C32.1811 45.0239 32.2814 45.8868 32.3149 46.2681C31.7596 46.121 30.1073 45.6126 29.7729 44.7496C29.6524 44.4419 29.7126 44.1208 29.9602 43.773Z" fill="#53B175"/>
<path fill-rule="evenodd" clip-rule="evenodd" d="M32.3484 46.6094C32.3752 46.6428 32.4153 46.6629 32.4554 46.6629C32.4621 46.6629 32.4621 46.6629 32.4688 46.6562C32.5156 46.6562 33.6863 46.5559 34.6095 46.1277C35.1848 45.8602 35.6263 45.3384 35.74 44.8032C35.8069 44.4754 35.7467 44.1677 35.5594 43.9537C35.2249 43.5657 34.8168 43.4185 34.382 43.5188C33.5325 43.7195 32.7431 44.8501 32.3217 46.4823C32.3083 46.5291 32.3217 46.5759 32.3484 46.6094ZM34.449 43.7999C34.5159 43.7865 34.5761 43.7798 34.643 43.7798C34.8972 43.7798 35.1314 43.9002 35.3521 44.141C35.4792 44.2882 35.5193 44.5089 35.4658 44.7498C35.3655 45.2046 34.9842 45.6462 34.4959 45.8736C33.8403 46.1813 33.0309 46.3084 32.6562 46.3552C33.0576 44.9571 33.7466 43.9604 34.449 43.7999Z" fill="#53B175"/>
<path d="M31.706 46.6227C30.4618 46.6227 29.2108 46.1612 28.0001 45.713C26.8829 45.3049 25.826 44.9169 24.7891 44.8567C22.4745 44.7296 22.1267 46.3016 22.1133 46.3685C22.0999 46.4421 22.0263 46.4956 21.9461 46.4823C21.8658 46.4689 21.819 46.3953 21.8323 46.315C21.839 46.295 22.2337 44.4286 24.8025 44.5691C25.8795 44.6293 27.0033 45.044 28.0937 45.4387C29.5253 45.9672 31.0103 46.509 32.4285 46.2682C32.5088 46.2548 32.5823 46.3083 32.5957 46.3819C32.6091 46.4622 32.5556 46.5358 32.482 46.5492C32.2211 46.6027 31.9669 46.6227 31.706 46.6227Z" fill="#53B175"/>
<path d="M22.1398 51.0855C19.9055 51.0855 18.8017 49.1054 18.795 49.0787C18.7549 49.0118 18.7816 48.9248 18.8552 48.8847C18.9221 48.8445 19.0091 48.8713 19.0492 48.9449C19.0626 48.9649 20.2199 51.0387 22.5478 50.7778C24.0998 50.6039 24.9226 49.9617 25.8792 49.2258C26.4143 48.8111 26.9629 48.3829 27.692 47.9883C30.2875 46.5835 32.3814 46.3627 32.4683 46.356C32.5486 46.3493 32.6155 46.4029 32.6222 46.4831C32.6289 46.5634 32.5753 46.6303 32.4951 46.637C32.475 46.637 30.3611 46.8644 27.8258 48.2358C27.1167 48.6171 26.5749 49.0385 26.0464 49.4466C25.0965 50.1824 24.2068 50.8781 22.5746 51.0587C22.4274 51.0788 22.2802 51.0855 22.1398 51.0855Z" fill="#53B175"/>
<defs>
<filter id="filter0_d_1504_3185" x="0.0995903" y="0.270267" width="111.386" height="111.911" filterUnits="userSpaceOnUse" color-interpolation-filters="sRGB">
<feFlood flood-opacity="0" result="BackgroundImageFix"/>
<feColorMatrix in="SourceAlpha" type="matrix" values="0 0 0 0 0 0 0 0 0 0 0 0 0 0 0 0 0 0 127 0" result="hardAlpha"/>
<feOffset dy="9.72292"/>
<feGaussianBlur stdDeviation="11.8064"/>
<feColorMatrix type="matrix" values="0 0 0 0 0 0 0 0 0 0 0 0 0 0 0 0 0 0 0.15 0"/>
<feBlend mode="normal" in2="BackgroundImageFix" result="effect1_dropShadow_1504_3185"/>
<feBlend mode="normal" in="SourceGraphic" in2="effect1_dropShadow_1504_3185" result="shape"/>
</filter>
</defs>
</svg>
