<svg width="50" height="50" viewBox="0 0 50 50" fill="none" xmlns="http://www.w3.org/2000/svg">
<g filter="url(#filter0_d_1_17088)">
<rect x="10" y="6" width="30" height="30" rx="15" fill="white"/>
</g>
<path fill-rule="evenodd" clip-rule="evenodd" d="M21.7801 15.2442V17.1294C21.2401 17.8476 21.1501 18.9248 21.7801 19.5532C21.943 19.7698 22.0731 20.0191 22.21 20.2814C22.3001 20.4538 22.393 20.6319 22.5001 20.81C23.5801 22.7849 26.0101 23.5031 27.8101 21.0793C27.9901 20.81 28.0801 20.6304 28.1701 20.3611C28.2001 20.3013 28.2201 20.2315 28.2401 20.1616C28.2801 20.022 28.3201 19.8824 28.4401 19.8225C29.1601 19.1941 29.1601 18.3862 29.0701 17.5783C28.8901 17.3987 28.7101 17.2192 28.6201 17.0396C28.6201 16.8601 28.6426 16.6806 28.6651 16.501C28.6876 16.3215 28.7101 16.1419 28.7101 15.9624C28.7101 14.5261 28.1701 13.7182 26.9101 13.2693C26.1001 13 25.2901 13 24.4801 13C23.8501 13 23.3101 13.2693 22.9501 13.7182C22.8601 13.8977 22.6801 14.0772 22.5001 14.0772C21.9601 14.3465 21.7801 14.7056 21.7801 15.2442ZM22.4101 19.1043H22.2301C22.1879 18.936 22.1655 18.7676 22.1443 18.6085C22.1203 18.4283 22.0979 18.2599 22.0501 18.1169C22.2301 17.9373 22.4101 17.7578 22.5901 17.668C22.5901 17.1942 22.565 16.7453 22.5414 16.3215C22.5202 15.9424 22.5001 15.5833 22.5001 15.2442C22.6617 15.0831 22.8001 14.9334 22.9278 14.7954C23.1557 14.5491 23.3494 14.3396 23.5801 14.167C23.6701 14.0772 23.9401 13.8977 24.2101 13.8977C25.1101 13.8079 26.0101 13.7182 26.9101 14.167C27.5401 14.4363 27.9001 14.9749 27.9001 15.6931C27.9001 15.9968 27.8791 16.3005 27.8574 16.6144C27.8341 16.9499 27.8101 17.297 27.8101 17.668C27.9001 17.8476 28.0801 18.0271 28.2601 18.2066L28.2601 18.2066C28.1701 18.476 28.1701 18.835 28.1701 19.1043V19.1043C28.1701 19.0146 28.0801 19.0146 28.0801 19.0146C27.9001 19.4634 27.6301 19.9123 27.3601 20.3611L27.3601 20.3611C27.0901 20.81 26.8201 21.2588 26.3701 21.5281C25.2001 22.3361 23.6701 21.7974 23.0401 20.3611C22.9501 20.1367 22.8376 19.9347 22.7251 19.7327C22.6126 19.5308 22.5001 19.3288 22.4101 19.1043ZM22.5 22.5156L22.5 22.5156C21.15 23.0542 19.8 23.6826 18.72 24.6701C18.27 25.1189 18 25.6575 18 26.2859V28.3506C18 29.1586 18.36 29.5176 19.17 29.4279H31.23C32.04 29.4279 32.4 29.0688 32.4 28.2609V26.645C32.49 25.5678 32.04 24.7598 31.14 24.1315C30.15 23.4133 29.07 22.7849 27.9 22.4258C27.45 22.8747 27 23.3011 26.55 23.7275C26.1 24.1539 25.65 24.5803 25.2 25.0292C24.21 24.2212 23.4 23.4133 22.5 22.5156ZM21.42 25.3882C22.14 25.2087 22.5 25.5678 22.68 26.7348C22.59 26.7797 22.5 26.847 22.41 26.9143C22.32 26.9816 22.23 27.049 22.14 27.0939L22.41 27.6325C22.86 27.5427 23.22 27.4529 23.58 27.3632C23.4 25.2087 22.86 24.6701 21.69 24.5803C21.645 24.4456 21.6 24.3334 21.555 24.2212C21.51 24.109 21.465 23.9968 21.42 23.8621C21.5944 23.8042 21.7687 23.7088 21.9673 23.6001C22.0762 23.5405 22.1925 23.4769 22.32 23.4133C22.7593 23.8515 23.22 24.2682 23.6917 24.6949C24.1864 25.1425 24.6932 25.6009 25.2 26.1064C26.1 25.2087 27.09 24.311 28.08 23.4133C28.374 23.5892 28.668 23.7269 28.9871 23.8762C29.1564 23.9555 29.3328 24.0381 29.52 24.1315C29.4635 24.3569 29.3715 24.5823 29.2886 24.7855C29.2395 24.906 29.1935 25.0187 29.16 25.1189C27.99 25.3882 27.63 25.7473 27.54 26.4655C27.45 27.0939 27.81 27.6325 28.35 27.9018C28.98 28.0813 29.61 27.9916 29.97 27.5427C30.42 27.0041 30.42 26.3757 29.88 25.478C29.925 25.3433 29.97 25.1863 30.015 25.0292C30.06 24.8721 30.105 24.715 30.15 24.5803C31.23 25.0292 31.68 25.6575 31.68 26.645V28.6199C30.96 28.8893 19.62 28.979 18.81 28.7097C18.81 28.6199 18.7875 28.5302 18.765 28.4404C18.7425 28.3506 18.72 28.2609 18.72 28.1711V27.2734C18.72 25.478 18.99 25.1189 20.7 24.2212C20.7 24.4008 20.79 24.5803 20.88 24.7598C19.685 25.6964 20.0281 26.7943 20.3738 27.9007C20.3926 27.9609 20.4114 28.0211 20.43 28.0813C20.88 28.0813 21.33 28.0813 21.69 27.7222C21.69 27.1955 21.4479 27.2 21.2123 27.2044C21.1267 27.206 21.042 27.2076 20.97 27.1836C20.61 26.1962 20.7 25.5678 21.42 25.3882ZM29.61 26.645L28.89 27.3632C28.7835 27.2215 28.677 27.1078 28.576 27C28.421 26.8345 28.279 26.6829 28.17 26.4655L28.8 25.8371C29.25 25.9269 29.52 26.1064 29.61 26.645Z" fill="#7165E3"/>
<defs>
<filter id="filter0_d_1_17088" x="0" y="0" width="50" height="50" filterUnits="userSpaceOnUse" color-interpolation-filters="sRGB">
<feFlood flood-opacity="0" result="BackgroundImageFix"/>
<feColorMatrix in="SourceAlpha" type="matrix" values="0 0 0 0 0 0 0 0 0 0 0 0 0 0 0 0 0 0 127 0" result="hardAlpha"/>
<feOffset dy="4"/>
<feGaussianBlur stdDeviation="5"/>
<feComposite in2="hardAlpha" operator="out"/>
<feColorMatrix type="matrix" values="0 0 0 0 0 0 0 0 0 0 0 0 0 0 0 0 0 0 0.1 0"/>
<feBlend mode="normal" in2="BackgroundImageFix" result="effect1_dropShadow_1_17088"/>
<feBlend mode="normal" in="SourceGraphic" in2="effect1_dropShadow_1_17088" result="shape"/>
</filter>
</defs>
</svg>
