<svg width="50" height="50" viewBox="0 0 50 50" fill="none" xmlns="http://www.w3.org/2000/svg">
<g filter="url(#filter0_d_1_17099)">
<rect x="10" y="6" width="30" height="30" rx="15" fill="white"/>
</g>
<path d="M19.9375 27.1875C19.9375 28.1179 20.6946 28.875 21.625 28.875C22.5554 28.875 23.3125 28.1179 23.3125 27.1875C23.3125 26.2571 22.5554 25.5 21.625 25.5C20.6946 25.5 19.9375 26.2571 19.9375 27.1875ZM22.1875 27.1875C22.1875 27.4974 21.9349 27.75 21.625 27.75C21.3151 27.75 21.0625 27.4974 21.0625 27.1875C21.0625 26.8776 21.3151 26.625 21.625 26.625C21.9349 26.625 22.1875 26.8776 22.1875 27.1875Z" fill="#505050"/>
<path d="M30.0625 27.1875C30.0625 26.2571 29.3054 25.5 28.375 25.5C27.4446 25.5 26.6875 26.2571 26.6875 27.1875C26.6875 28.1179 27.4446 28.875 28.375 28.875C29.3054 28.875 30.0625 28.1179 30.0625 27.1875ZM27.8125 27.1875C27.8125 26.8776 28.0651 26.625 28.375 26.625C28.6849 26.625 28.9375 26.8776 28.9375 27.1875C28.9375 27.4974 28.6849 27.75 28.375 27.75C28.0651 27.75 27.8125 27.4974 27.8125 27.1875Z" fill="#505050"/>
<path d="M18.3063 13.6875C18.376 14.3518 19.1523 21.7251 19.2721 22.8641C19.3626 23.7253 20.0843 24.375 20.9506 24.375H29.716C30.5063 24.375 31.2004 23.8136 31.3664 23.0408L32.7175 16.7357C32.7889 16.4016 32.7068 16.0579 32.4919 15.7929C32.2771 15.5274 31.9581 15.375 31.6167 15.375H19.6152L19.3722 13.0665C19.3418 12.7796 19.1005 12.5625 18.8125 12.5625H17.125C16.8145 12.5625 16.5625 12.8145 16.5625 13.125C16.5625 13.4355 16.8145 13.6875 17.125 13.6875H18.3063ZM31.6167 16.5L30.2661 22.8051C30.2104 23.0627 29.9793 23.25 29.7154 23.25H20.9506C20.6614 23.25 20.4213 23.0334 20.3909 22.7466L19.7333 16.5H31.6167Z" fill="#505050"/>
<defs>
<filter id="filter0_d_1_17099" x="0" y="0" width="50" height="50" filterUnits="userSpaceOnUse" color-interpolation-filters="sRGB">
<feFlood flood-opacity="0" result="BackgroundImageFix"/>
<feColorMatrix in="SourceAlpha" type="matrix" values="0 0 0 0 0 0 0 0 0 0 0 0 0 0 0 0 0 0 127 0" result="hardAlpha"/>
<feOffset dy="4"/>
<feGaussianBlur stdDeviation="5"/>
<feComposite in2="hardAlpha" operator="out"/>
<feColorMatrix type="matrix" values="0 0 0 0 0 0 0 0 0 0 0 0 0 0 0 0 0 0 0.1 0"/>
<feBlend mode="normal" in2="BackgroundImageFix" result="effect1_dropShadow_1_17099"/>
<feBlend mode="normal" in="SourceGraphic" in2="effect1_dropShadow_1_17099" result="shape"/>
</filter>
</defs>
</svg>
