<svg width="50" height="50" viewBox="0 0 50 50" fill="none" xmlns="http://www.w3.org/2000/svg">
<g filter="url(#filter0_d_1_8424)">
<rect x="10" y="6" width="30" height="30" rx="15" fill="white"/>
</g>
<path d="M25.7909 27.9039L25.7893 27.9054C25.3469 28.307 24.6647 28.3068 24.2224 27.8994L24.22 27.8972L24.1284 27.8139L24.1275 27.8131C21.9295 25.8245 20.1553 24.216 18.9374 22.7064C17.7269 21.2059 17.1184 19.8651 17.1667 18.4177C17.2115 17.1549 17.8596 15.9461 18.8984 15.2388L18.8987 15.2387C20.8567 13.9036 23.2936 14.5143 24.6202 16.067L25.0004 16.5119L25.3805 16.067C26.7082 14.513 29.1445 13.8966 31.101 15.2379L31.1023 15.2388C32.1412 15.9462 32.7894 17.1551 32.834 18.4182L32.834 18.4186C32.8862 19.8652 32.2783 21.2056 31.0663 22.7086C29.8514 24.2153 28.083 25.8221 25.895 27.81L25.8742 27.8289L25.8725 27.8305L25.7909 27.9039Z" stroke="#F3603F"/>
<defs>
<filter id="filter0_d_1_8424" x="0" y="0" width="50" height="50" filterUnits="userSpaceOnUse" color-interpolation-filters="sRGB">
<feFlood flood-opacity="0" result="BackgroundImageFix"/>
<feColorMatrix in="SourceAlpha" type="matrix" values="0 0 0 0 0 0 0 0 0 0 0 0 0 0 0 0 0 0 127 0" result="hardAlpha"/>
<feOffset dy="4"/>
<feGaussianBlur stdDeviation="5"/>
<feComposite in2="hardAlpha" operator="out"/>
<feColorMatrix type="matrix" values="0 0 0 0 0 0 0 0 0 0 0 0 0 0 0 0 0 0 0.1 0"/>
<feBlend mode="normal" in2="BackgroundImageFix" result="effect1_dropShadow_1_8424"/>
<feBlend mode="normal" in="SourceGraphic" in2="effect1_dropShadow_1_8424" result="shape"/>
</filter>
</defs>
</svg>
