<svg width="50" height="50" viewBox="0 0 50 50" fill="none" xmlns="http://www.w3.org/2000/svg">
<g filter="url(#filter0_d_1_11004)">
<rect x="10" y="6" width="30" height="30" rx="15" fill="#53B175"/>
</g>
<path d="M25.7905 27.9039L25.7889 27.9054C25.3466 28.307 24.6643 28.3068 24.2221 27.8994L24.2197 27.8972L24.128 27.8139L24.1271 27.8131C21.9292 25.8245 20.1549 24.216 18.9371 22.7064C17.7266 21.2059 17.118 19.8651 17.1664 18.4177C17.2111 17.1549 17.8593 15.9461 18.8981 15.2388L18.8983 15.2387C20.8564 13.9036 23.2932 14.5143 24.6199 16.067L25 16.5119L25.3802 16.067C26.7078 14.513 29.1441 13.8966 31.1006 15.2379L31.1019 15.2388C32.1409 15.9462 32.7891 17.1551 32.8336 18.4182L32.8337 18.4186C32.8859 19.8652 32.2779 21.2056 31.066 22.7086C29.851 24.2153 28.0826 25.8221 25.8946 27.81L25.8739 27.8289L25.8721 27.8305L25.7905 27.9039Z" stroke="white"/>
<defs>
<filter id="filter0_d_1_11004" x="0" y="0" width="50" height="50" filterUnits="userSpaceOnUse" color-interpolation-filters="sRGB">
<feFlood flood-opacity="0" result="BackgroundImageFix"/>
<feColorMatrix in="SourceAlpha" type="matrix" values="0 0 0 0 0 0 0 0 0 0 0 0 0 0 0 0 0 0 127 0" result="hardAlpha"/>
<feOffset dy="4"/>
<feGaussianBlur stdDeviation="5"/>
<feComposite in2="hardAlpha" operator="out"/>
<feColorMatrix type="matrix" values="0 0 0 0 0 0 0 0 0 0 0 0 0 0 0 0 0 0 0.1 0"/>
<feBlend mode="normal" in2="BackgroundImageFix" result="effect1_dropShadow_1_11004"/>
<feBlend mode="normal" in="SourceGraphic" in2="effect1_dropShadow_1_11004" result="shape"/>
</filter>
</defs>
</svg>
