<svg width="15" height="14" viewBox="0 0 15 14" fill="none" xmlns="http://www.w3.org/2000/svg">
<g clip-path="url(#clip0_1_17120)">
<path d="M7.41748 0C4.50289 0 2.14014 2.36275 2.14014 5.27735C2.14014 6.25206 2.33092 7.25878 2.87841 7.98438L7.41748 14L11.9565 7.98438C12.4538 7.32533 12.6948 6.16022 12.6948 5.27735C12.6948 2.36275 10.3321 0 7.41748 0ZM7.41748 3.05652C8.64384 3.05652 9.6383 4.05099 9.6383 5.27734C9.6383 6.5037 8.64384 7.49817 7.41748 7.49817C6.19113 7.49817 5.19666 6.5037 5.19666 5.27735C5.19666 4.05099 6.19113 3.05652 7.41748 3.05652Z" fill="#377DFF"/>
</g>
<defs>
<clipPath id="clip0_1_17120">
<rect width="14" height="14" fill="white" transform="translate(0.41748)"/>
</clipPath>
</defs>
</svg>
