<svg width="140" height="45" viewBox="0 0 140 45" fill="none" xmlns="http://www.w3.org/2000/svg">
<path fill-rule="evenodd" clip-rule="evenodd" d="M14.2995 24.9465C14.2995 25.3397 14.1006 25.5366 13.9023 25.9298C13.7034 26.323 13.5051 26.9132 13.3062 27.5027C13.3062 28.0928 12.9091 28.486 12.7102 29.0756C12.7102 29.4688 12.5113 30.0589 12.313 30.4521C12.1141 30.8454 11.9158 31.0423 11.9158 31.4355C11.5186 32.0256 11.1215 32.6151 10.5254 33.0084C10.1282 33.2053 9.73106 33.4016 9.135 33.4016C8.73783 33.4016 8.14177 33.4016 7.54631 33.2047L7.34742 33.0078L4.36891 24.7502V34.3837C4.36891 34.777 4.36891 35.1702 4.36891 35.5634C4.36891 35.9566 4.36891 36.1535 4.36891 36.3498C4.36891 36.5467 4.36891 36.7431 4.36891 36.7431L4.5678 37.5295H3.97174C2.9785 37.5295 1.78758 37.3326 0.993234 36.7431C0.198886 35.9566 0 34.9739 0 33.9905V18.4592L0.397174 18.2623H0.596061H0.794946L0.993833 18.0654C0.993833 18.0654 1.19272 18.0654 1.39101 18.0654C1.58989 18.0654 1.78818 18.0654 1.98707 18.0654C2.58313 18.0654 3.17859 18.0654 3.77405 18.2623C4.37011 18.4592 4.76729 18.6556 5.36275 19.0488C5.75992 19.442 6.35598 20.0321 6.55427 20.6217C7.15033 21.2118 7.34862 21.9982 7.74579 22.7841C7.74579 22.981 7.74579 22.981 7.94468 23.1773C7.94468 23.3742 8.14357 23.5705 8.14357 23.9637C8.34245 24.1606 8.34245 24.5538 8.54074 24.9471C8.54074 25.3403 8.73963 25.5372 8.93791 25.9304C8.93791 26.3236 9.1368 26.9138 9.33509 27.307L10.9238 22.7852C11.1227 21.9988 11.5198 21.2124 11.917 20.6228C12.3142 20.0327 12.9103 19.4432 13.3074 19.05C13.9035 18.6567 14.3007 18.4598 14.8961 18.2635C15.4922 18.0666 16.0876 18.0666 16.6831 18.0666C16.882 18.0666 17.0803 18.0666 17.2792 18.0666C17.4781 18.0666 17.4781 18.0666 17.6763 18.0666V18.2635C17.8752 18.2635 17.8752 18.2635 18.0735 18.2635L18.6696 18.4604V34.3849C18.6696 34.7781 18.6696 35.1714 18.6696 35.5646C18.6696 35.9578 18.6696 36.1547 18.6696 36.351C18.6696 36.5479 18.6696 36.7442 18.6696 36.7442L18.8685 37.5307H18.0741C17.0809 37.5307 16.0888 37.3338 15.2939 36.7442C14.4995 35.9578 14.1024 34.9751 14.1024 33.9917L14.3013 24.9483L14.3001 24.9494L14.2995 24.9465Z" fill="#53B175"/>
<path fill-rule="evenodd" clip-rule="evenodd" d="M34.7529 35.9559C34.554 36.546 34.1569 36.7423 33.7597 36.9392C33.3625 37.3324 32.7665 37.3324 32.3693 37.3324C31.9721 37.5293 31.5749 37.5293 31.1778 37.5293C29.7874 37.5293 28.1993 37.5293 26.8089 37.1361C25.8156 36.9392 24.6247 36.546 23.8304 35.7596C22.8371 34.9731 22.2417 33.7941 21.8451 32.8107C21.4479 31.4341 21.249 29.665 21.249 28.289V23.3734C21.249 22.1938 21.4479 21.211 22.0434 20.2277C22.2423 19.8345 22.4405 19.4413 22.8377 19.2443C23.0366 18.8511 23.4338 18.6542 23.831 18.6542C24.2281 18.4573 24.427 18.4573 24.6253 18.261C25.0225 18.261 25.2214 18.261 25.6185 18.261C26.0157 18.0641 26.4129 18.0641 26.8101 18.0641C27.2072 18.0641 27.6044 18.0641 28.0016 18.0641H30.3846C31.179 18.0641 31.9733 18.0641 32.7677 18.0641C33.1648 18.0641 33.3637 18.0641 33.7609 17.8672H34.5552V18.6536C34.5552 19.2438 34.5552 19.8333 34.1581 20.4228C33.9592 20.816 33.562 21.0129 33.1648 21.4062C32.7677 21.6031 32.1716 21.6031 31.7744 21.7994C31.3773 21.7994 30.9801 21.7994 30.5829 21.7994H26.0157C26.0157 21.7994 26.0157 21.7994 25.8168 21.7994V21.9963C25.6179 22.1932 25.6179 22.1932 25.6179 22.3895L25.8168 25.142H32.3699V25.7322C32.3699 26.5186 32.171 27.305 31.5755 27.8946C30.9795 28.4847 29.9868 28.8779 29.1925 28.8779H25.8168C25.8168 29.4681 25.8168 30.4508 26.0157 31.0403C26.2146 31.6305 26.4129 32.22 26.8101 32.6132C27.2072 33.0064 27.6044 33.3996 28.2005 33.5966C28.9948 33.7935 29.7892 33.7935 30.5835 33.7935C31.3779 33.7935 32.3705 33.7935 33.1648 33.7935C33.562 33.7935 33.9592 33.5966 34.3564 33.5966H35.1507V34.383C35.1507 34.9731 35.1507 35.5627 34.7535 35.9559H34.7529Z" fill="#53B175"/>
<path fill-rule="evenodd" clip-rule="evenodd" d="M41.3059 25.1424H47.6601V21.6034C47.6601 20.6201 48.0573 19.6379 48.8516 18.8509C49.646 18.2608 50.6386 18.0645 51.6318 18.0645H52.2279V18.6546C52.2279 18.8515 52.2279 19.0478 52.029 19.2447C52.029 19.4416 52.029 19.6379 52.029 19.8348C52.029 20.425 52.029 20.8182 52.029 21.2114V34.3834C52.029 34.7766 52.029 35.1698 52.029 35.7599C52.029 35.9568 52.029 36.1531 52.029 36.35C52.029 36.547 52.029 36.7433 52.2279 36.7433V37.5297H51.6318C50.6386 37.5297 49.4477 37.3328 48.8516 36.7433C47.8584 35.9568 47.6601 34.9741 47.6601 33.9907V28.8789H41.3059V34.3834C41.3059 34.7766 41.3059 35.1698 41.3059 35.7599C41.3059 35.9568 41.3059 36.1531 41.3059 36.35C41.3059 36.547 41.3059 36.7433 41.5048 36.7433V37.5297H40.9088C39.9155 37.5297 38.7246 37.3328 37.9302 36.7433C37.1359 35.9568 36.937 34.9741 36.937 33.9907V21.6052C36.937 20.6219 37.1359 19.6397 37.9302 18.8527C38.7246 18.2625 39.9155 18.0662 40.9088 18.0662H41.5048V18.6564C41.3059 18.8533 41.3059 19.0496 41.3059 19.2465C41.3059 19.4434 41.3059 19.6397 41.3059 19.8366C41.3059 20.4267 41.3059 20.82 41.3059 21.2132V25.1454V25.1442V25.1424Z" fill="#53B175"/>
<path fill-rule="evenodd" clip-rule="evenodd" d="M60.7671 30.058C60.5682 29.8611 60.3699 29.8611 60.3699 29.8611C60.171 29.8611 59.9727 29.8611 59.5756 29.6642C59.5756 29.6642 59.5756 29.6642 59.3767 29.6642V34.3828C59.3767 34.776 59.3767 35.1692 59.3767 35.7594C59.5756 35.9563 59.5756 36.1526 59.5756 36.3495C59.5756 36.5464 59.5756 36.7427 59.5756 36.7427V37.5291H58.9795C57.9863 37.5291 56.9942 37.3322 56.1993 36.7427C55.4049 35.9563 55.2061 34.9735 55.2061 33.9902V22.7837C55.2061 21.9973 55.2061 21.2108 55.6032 20.4244C56.0004 19.8343 56.3976 19.2447 56.9936 18.8515C57.5897 18.4583 58.384 18.2614 59.1778 18.0651C59.9721 17.8682 60.7665 17.8682 61.5608 17.8682C62.1569 17.8682 62.7524 17.8682 63.3478 17.8682C64.1422 18.0651 64.7382 18.0651 65.3331 18.2614C65.9292 18.4583 66.7235 18.8515 67.3184 19.2447C67.9144 19.4416 68.3116 19.8349 68.9071 20.4244C69.3042 21.0145 69.7014 21.604 69.9003 22.1936C70.0992 22.98 70.2975 23.5701 70.2975 24.356C70.0986 25.5356 69.9003 26.5184 69.1059 27.5017C68.7088 28.0919 67.9144 28.6814 67.1207 29.0746C67.3196 29.0746 67.3196 29.0746 67.3196 29.2715C67.7167 29.4684 68.1139 30.058 68.3128 30.4512C68.5117 30.8444 68.71 31.4345 68.9089 31.8278C69.1077 32.4179 69.306 32.8111 69.7032 33.4006C69.9021 33.7938 70.1004 34.1871 70.2993 34.384C70.4981 34.7772 70.6964 34.9741 70.8953 35.1704C71.0942 35.5636 71.2925 35.7605 71.4914 35.9569L71.8886 36.3501L71.4914 36.7433C71.2925 36.9402 71.0942 37.1365 70.8953 37.1365H70.6964C70.4976 37.3334 70.2993 37.3334 69.9021 37.5297C69.5049 37.5297 69.306 37.5297 68.9089 37.5297C68.3128 37.3328 67.9156 37.3328 67.5185 36.9396C66.9224 36.7427 66.5252 36.3495 66.3269 35.9563C65.7309 35.563 65.3337 34.9729 65.1354 34.3834C64.5393 33.5969 64.1422 32.6142 63.745 31.8278C63.5461 31.4345 63.1489 31.0413 62.7518 30.6481C62.3546 30.4512 61.7585 30.2549 61.3614 30.058H61.1625C60.9636 30.058 60.9636 30.058 60.7653 30.058V30.0592L60.7671 30.058ZM59.3767 26.3227C59.7739 26.3227 59.9727 26.3227 60.171 26.5196C60.5682 26.5196 60.9654 26.5196 61.3626 26.5196C61.7597 26.7165 62.1569 26.7165 62.5541 26.7165C63.3484 26.7165 64.3411 26.5196 64.9371 26.1264C65.5332 25.7331 65.7315 24.9467 65.7315 24.3572C65.9303 23.767 65.7315 23.3738 65.5326 22.9806C65.3337 22.5874 65.1354 22.3905 64.7382 21.9973C64.3411 21.8004 63.745 21.604 63.3478 21.604C62.7518 21.4071 62.1563 21.4071 61.5608 21.4071C61.3619 21.604 60.7665 21.604 60.5676 21.8004C60.1704 21.8004 59.9715 21.9973 59.7733 22.1936C59.7733 22.1936 59.5744 22.3905 59.5744 22.5868C59.3755 22.5868 59.3755 22.7837 59.3755 22.98C59.3755 23.3732 59.3755 23.5701 59.3755 23.9634C59.3755 24.3566 59.3755 24.7498 59.3755 24.9467C59.3755 25.3399 59.3755 25.7331 59.3755 26.1264V26.3233H59.3767V26.3227Z" fill="#53B175"/>
<path fill-rule="evenodd" clip-rule="evenodd" d="M73.8732 34.3831V21.6044C73.8732 20.6211 74.0721 19.442 74.8664 18.8519C75.6608 18.2617 76.8517 18.0654 77.8449 18.0654H78.441L78.2421 18.6556C78.2421 18.8525 78.2421 19.0488 78.2421 19.0488C78.2421 19.442 78.2421 19.6389 78.2421 19.8352C78.2421 20.2284 78.2421 20.8186 78.2421 21.2118V33.9905C78.2421 34.9739 77.8449 35.956 77.0506 36.7431C76.2562 37.3332 75.2636 37.5295 74.2704 37.5295H73.6743V36.7431C73.6743 36.7431 73.6743 36.5461 73.8732 36.3498C73.8732 36.1529 73.8732 35.9566 73.8732 35.7597C73.8732 35.1696 73.8732 34.7764 73.8732 34.3831Z" fill="#53B175"/>
<path fill-rule="evenodd" clip-rule="evenodd" d="M94.9228 21.6041C94.7239 21.801 94.3267 21.9973 93.9295 21.9973C93.7307 21.9973 93.3335 21.8004 93.1352 21.8004C92.9363 21.6035 92.738 21.6035 92.3408 21.6035C92.142 21.4066 91.9437 21.4066 91.5465 21.2103C91.1493 21.2103 90.7521 21.2103 90.355 21.2103C89.7589 21.2103 89.1635 21.4072 88.568 21.6035C87.9719 21.8004 87.3765 22.1936 86.9793 22.7831C86.3832 23.3733 85.9861 23.9628 85.7878 24.7487C85.3906 25.732 85.3906 26.7142 85.3906 27.6975C85.3906 28.6808 85.3906 29.8599 85.7878 30.8433C85.9867 31.6297 86.3838 32.2198 86.9793 32.8088C87.3765 33.3989 87.9725 33.7921 88.568 33.9884C89.1641 34.1853 89.7595 34.3816 90.355 34.3816C90.951 34.3816 91.5465 34.3816 91.9437 34.1847C92.3408 33.9878 92.5397 33.7915 92.738 33.5946C92.9369 33.3977 93.1352 33.0045 93.1352 32.8082C93.3341 32.4149 93.3341 31.8248 93.3341 31.4316V30.2519C93.3341 30.055 93.3341 29.8587 93.1352 29.6618V29.4649H92.9363H91.7448C90.9504 29.4649 90.1561 29.268 89.5606 28.6785C88.9646 28.0883 88.5674 27.3019 88.5674 26.3192V25.729H92.9363C93.7306 25.729 94.525 25.9259 95.1205 26.3192C95.7165 26.5161 96.312 26.9093 96.7092 27.4988C96.908 27.892 97.1063 28.4822 97.3052 29.0717C97.5041 29.6618 97.5041 30.4483 97.5041 31.0372V32.0205C97.5041 32.807 97.3052 33.5934 97.1069 34.3799C96.7098 35.1663 96.3126 35.7564 95.7165 36.149C94.9222 36.7392 94.1278 37.1324 93.3335 37.3287C92.3402 37.7219 91.3482 37.7219 90.355 37.7219C89.1634 37.7219 87.9719 37.525 86.7804 37.1318C85.5889 36.7386 84.5963 35.9521 83.603 35.1663C82.8087 34.3799 82.0143 33.2008 81.6177 32.0205C81.0217 30.644 80.6245 29.268 80.6245 27.6951C80.6245 26.3186 81.0217 24.7463 81.6177 23.3697C82.0149 22.1901 82.8093 21.2073 83.603 20.4209C84.5963 19.4375 85.5883 18.848 86.7804 18.4554C87.9719 18.0621 89.1634 17.8652 90.355 17.8652C91.1493 17.8652 91.7454 17.8652 92.5391 18.0621C93.1352 18.259 93.5324 18.4554 94.1278 18.6523C94.525 18.8492 94.9222 19.2424 95.1211 19.4387C95.3199 19.6356 95.7171 20.0288 95.7171 20.2251L95.916 20.422L95.7171 20.8153C95.7171 20.8153 95.7171 21.0122 95.5182 21.0122C95.5182 21.2091 95.5182 21.2091 95.3193 21.4054C95.3193 21.4054 95.1205 21.6023 94.9222 21.6023L94.9228 21.6041Z" fill="#53B175"/>
<path fill-rule="evenodd" clip-rule="evenodd" d="M100.085 34.3831V21.6044C100.085 20.6211 100.483 19.442 101.277 18.8519C102.071 18.2617 103.064 18.0654 104.057 18.0654H104.653V18.6556C104.653 18.8525 104.653 19.0488 104.653 19.0488C104.454 19.442 104.454 19.6389 104.454 19.8352C104.454 20.2284 104.454 20.8186 104.454 21.2118V33.9905C104.454 34.9739 104.255 35.956 103.461 36.7431C102.667 37.3332 101.674 37.5295 100.681 37.5295H99.8865L100.085 36.7431C100.085 36.7431 100.085 36.5461 100.085 36.3498C100.085 36.1529 100.085 35.9566 100.085 35.7597C100.085 35.1696 100.085 34.7764 100.085 34.3831Z" fill="#53B175"/>
<path fill-rule="evenodd" clip-rule="evenodd" d="M122.724 34.1861C123.121 34.383 123.518 34.383 123.915 34.383C124.512 34.383 125.107 34.1861 125.702 33.9898C126.299 33.7929 126.894 33.3997 127.291 32.8101C127.887 32.22 128.284 31.4336 128.483 30.8446C128.88 29.8613 128.88 28.8791 128.88 27.6989C128.88 26.7155 128.88 25.7334 128.483 24.75C128.284 23.9636 127.887 23.3734 127.291 22.7845C126.894 22.1944 126.298 21.8012 125.702 21.6048C125.106 21.2116 124.511 21.2116 123.915 21.2116C123.319 21.2116 122.724 21.2116 122.128 21.6048C121.532 21.8018 120.937 22.195 120.54 22.7845C119.944 23.3746 119.547 23.9642 119.348 24.75C118.951 25.5364 118.951 26.5192 118.951 27.5025V27.6995C118.951 28.6828 118.951 29.8619 119.348 30.8452C119.547 31.4353 119.944 32.2218 120.54 32.8107C120.937 33.4008 121.533 33.7941 122.128 33.9904C122.327 33.9904 122.526 34.1873 122.725 34.1873V34.1861H122.724ZM123.915 37.7251C122.724 37.7251 121.532 37.5282 120.341 37.1349C119.944 36.938 119.348 36.7417 118.951 36.3485C118.354 36.1516 117.759 35.7584 117.164 35.1688C116.369 34.3824 115.575 33.2033 115.178 32.0231C114.781 31.433 114.781 31.0397 114.582 30.4502C114.383 29.6638 114.383 28.681 114.383 27.6977C114.383 26.3211 114.383 24.9451 114.979 23.7655C114.979 23.7655 114.979 23.5686 115.178 23.5686C115.575 22.3889 116.37 21.2093 117.164 20.4228C118.157 19.4395 119.149 18.8499 120.341 18.4573C121.532 18.0641 122.724 17.8672 123.915 17.8672C125.107 17.8672 126.299 18.0641 127.49 18.4573C128.682 18.8505 129.674 19.4407 130.667 20.4228C131.661 21.2093 132.256 22.3883 132.852 23.5686C133.448 24.9451 133.646 26.3211 133.646 27.6971C133.646 29.27 133.447 30.6459 132.852 32.0225C132.256 33.2022 131.66 34.3818 130.667 35.1682C129.674 35.9547 128.682 36.7411 127.49 37.1338C126.299 37.527 125.107 37.7239 123.915 37.7239V37.7245V37.7251Z" fill="#53B175"/>
<path fill-rule="evenodd" clip-rule="evenodd" d="M104.057 1.74764C95.9156 -2.18455 88.3699 1.74764 88.3699 1.74764H88.5688C89.9592 2.33777 91.5473 3.71315 92.9377 5.48293C94.5264 7.64534 95.1218 9.02191 95.9162 10.5948C96.7105 12.1677 98.2992 13.3473 99.0936 13.7405C101.675 15.1171 105.249 15.1171 107.434 13.7405C105.647 10.0052 100.881 5.28662 98.1009 3.91065H98.2998C98.1009 3.71374 109.023 7.25271 109.023 16.6894C109.023 41.6579 105.647 39.4949 88.3711 41.6579H92.9383H95.3213L95.9174 42.6413L99.6902 41.6579L101.081 43.4271L103.662 41.6579L105.846 40.8715C109.222 39.8881 106.442 42.6407 104.853 45H105.25C106.64 43.8203 108.03 42.4444 109.42 41.0678C110.214 41.2647 110.811 41.461 111.604 41.6579L113.391 44.4105L113.59 44.2136C112.994 40.0851 116.171 39.4949 118.157 42.837C118.157 43.0339 118.555 43.0339 118.555 43.2302H118.753V41.6573L121.136 43.0339L122.13 41.461C125.704 42.8376 125.307 42.4444 129.08 41.461C112.002 41.461 111.009 32.8108 111.208 16.6894C111.407 8.43178 118.158 6.07306 117.959 6.26937H118.158C116.173 7.44903 112.995 11.3812 112.002 14.3301C113.987 15.3134 116.569 14.9202 118.356 13.7399C118.952 13.3467 119.945 12.3634 120.341 10.9874C120.938 9.80775 121.136 8.825 122.128 7.05521C122.923 5.48234 124.114 4.30268 125.107 3.90946V3.71255C125.107 3.71255 119.15 1.55014 113.59 5.08912C109.221 7.84165 110.015 10.9868 110.214 13.1498C109.221 8.62809 109.221 4.10637 104.058 1.74705L104.057 1.74764Z" fill="url(#paint0_linear_1_17068)"/>
<path d="M136.425 11.9707C137.021 11.9707 137.617 12.1676 138.212 12.3639C138.61 12.7571 139.206 13.1504 139.404 13.7405C139.801 14.3306 140 14.9201 140 15.5097C140 16.0998 139.801 16.6893 139.404 17.2789C139.205 17.869 138.808 18.2622 138.212 18.4585C137.616 18.8517 137.021 19.0486 136.425 19.0486C135.829 19.0486 135.234 18.8517 134.638 18.4585C134.042 18.2616 133.645 17.8684 133.248 17.2789C133.049 16.6887 132.851 16.0992 132.851 15.5097C132.851 14.9196 133.05 14.33 133.248 13.7405C133.645 13.1504 134.042 12.7571 134.638 12.3639C135.234 12.167 135.83 11.9707 136.425 11.9707ZM136.425 12.5608C135.829 12.5608 135.432 12.7577 134.837 12.954C134.44 13.151 134.042 13.5442 133.843 13.9374C133.446 14.5275 133.446 14.9207 133.446 15.5103C133.446 15.9035 133.446 16.4936 133.843 16.8868C134.042 17.477 134.44 17.6733 134.837 18.0665C135.433 18.2634 135.83 18.4597 136.425 18.4597C136.823 18.4597 137.419 18.2628 137.816 18.0665C138.412 17.6733 138.61 17.4764 139.007 16.8868C139.206 16.4936 139.405 15.9035 139.405 15.5103C139.405 14.9201 139.206 14.5269 139.007 13.9374C138.61 13.5442 138.411 13.151 137.816 12.954C137.419 12.7571 136.823 12.5608 136.425 12.5608ZM134.837 17.4758V13.5436H136.227C136.624 13.5436 136.823 13.7405 137.021 13.7405C137.419 13.7405 137.419 13.9374 137.618 14.1337C137.816 14.3306 137.816 14.5269 137.816 14.7238C137.816 14.9207 137.618 15.117 137.419 15.314C137.22 15.5109 137.022 15.7072 136.625 15.7072C136.824 15.7072 137.022 15.9041 137.022 15.9041C137.221 16.101 137.419 16.2973 137.618 16.6905L138.015 17.477H137.221L137.022 16.8868C136.625 16.2967 136.426 16.1004 136.228 15.9035C136.228 15.9035 136.029 15.9035 135.831 15.9035H135.433V17.4764H134.837H134.837V17.4758ZM135.432 15.3134H136.227C136.624 15.3134 136.823 15.3134 137.021 15.1165C137.021 15.1165 137.22 14.9196 137.22 14.7232C137.22 14.5263 137.021 14.5263 137.021 14.33C137.021 14.33 136.822 14.33 136.822 14.1331C136.623 14.1331 136.425 14.1331 136.226 14.1331H135.432V15.3128L135.432 15.3134Z" fill="#2B2A29"/>
<defs>
<linearGradient id="paint0_linear_1_17068" x1="106.043" y1="4.87501" x2="111.105" y2="44.2627" gradientUnits="userSpaceOnUse">
<stop stop-color="#6EEA9B"/>
<stop offset="0.2" stop-color="#53B175"/>
<stop offset="0.388235" stop-color="#53B175"/>
<stop offset="0.541176" stop-color="#C88D5E"/>
<stop offset="1" stop-color="#AB7A19"/>
</linearGradient>
</defs>
</svg>
