<svg width="50" height="50" viewBox="0 0 50 50" fill="none" xmlns="http://www.w3.org/2000/svg">
<g filter="url(#filter0_d_1_17083)">
<rect x="10" y="6" width="30" height="30" rx="15" fill="white"/>
</g>
<path d="M24.1862 24.3378C24.7955 24.3378 25.3988 24.2184 25.9617 23.9866C26.5245 23.7547 27.036 23.4148 27.4668 22.9864C27.8976 22.5579 28.2393 22.0493 28.4725 21.4895C28.7056 20.9297 28.8256 20.3297 28.8256 19.7237C28.8256 19.1178 28.7056 18.5178 28.4725 17.958C28.2393 17.3982 27.8976 16.8896 27.4668 16.4611C27.036 16.0327 26.5245 15.6928 25.9617 15.4609C25.3988 15.229 24.7955 15.1097 24.1862 15.1097C22.9558 15.1097 21.7758 15.5958 20.9057 16.4611C20.0356 17.3264 19.5469 18.5 19.5469 19.7237C19.5469 20.9475 20.0356 22.1211 20.9057 22.9864C21.7758 23.8517 22.9558 24.3378 24.1862 24.3378ZM29.0731 23.4965L31.8413 26.2495C31.9151 26.3205 31.9739 26.4054 32.0144 26.4993C32.0548 26.5931 32.0761 26.694 32.0769 26.7961C32.0777 26.8983 32.0581 26.9995 32.0191 27.094C31.9802 27.1885 31.9227 27.2743 31.85 27.3464C31.7774 27.4186 31.691 27.4756 31.596 27.5142C31.5009 27.5528 31.3991 27.5722 31.2964 27.5713C31.1937 27.5703 31.0923 27.549 30.998 27.5086C30.9037 27.4683 30.8184 27.4096 30.7471 27.3361L27.979 24.5831C26.736 25.5427 25.172 25.9951 23.6054 25.8483C22.0388 25.7014 20.5873 24.9663 19.5465 23.7926C18.5057 22.6189 17.9538 21.0948 18.003 19.5307C18.0523 17.9665 18.6991 16.4798 19.8118 15.3732C20.9245 14.2666 22.4193 13.6233 23.9921 13.5743C25.5649 13.5253 27.0973 14.0742 28.2775 15.1093C29.4576 16.1445 30.1968 17.588 30.3444 19.146C30.4921 20.7041 30.0372 22.2595 29.0723 23.4957L29.0731 23.4965Z" fill="#282828"/>
<defs>
<filter id="filter0_d_1_17083" x="0" y="0" width="50" height="50" filterUnits="userSpaceOnUse" color-interpolation-filters="sRGB">
<feFlood flood-opacity="0" result="BackgroundImageFix"/>
<feColorMatrix in="SourceAlpha" type="matrix" values="0 0 0 0 0 0 0 0 0 0 0 0 0 0 0 0 0 0 127 0" result="hardAlpha"/>
<feOffset dy="4"/>
<feGaussianBlur stdDeviation="5"/>
<feComposite in2="hardAlpha" operator="out"/>
<feColorMatrix type="matrix" values="0 0 0 0 0 0 0 0 0 0 0 0 0 0 0 0 0 0 0.1 0"/>
<feBlend mode="normal" in2="BackgroundImageFix" result="effect1_dropShadow_1_17083"/>
<feBlend mode="normal" in="SourceGraphic" in2="effect1_dropShadow_1_17083" result="shape"/>
</filter>
</defs>
</svg>
