<svg width="22" height="22" viewBox="0 0 22 22" fill="none" xmlns="http://www.w3.org/2000/svg">
<path fill-rule="evenodd" clip-rule="evenodd" d="M11 0.916748C5.43124 0.916748 0.916656 5.43133 0.916656 11.0001C0.916656 16.5688 5.43124 21.0834 11 21.0834C16.5687 21.0834 21.0833 16.5688 21.0833 11.0001C21.0833 5.43133 16.5687 0.916748 11 0.916748ZM11.9167 14.6667C11.9167 14.9099 11.8201 15.143 11.6482 15.3149C11.4763 15.4868 11.2431 15.5834 11 15.5834C10.7569 15.5834 10.5237 15.4868 10.3518 15.3149C10.1799 15.143 10.0833 14.9099 10.0833 14.6667V11.9167H7.33332C7.09021 11.9167 6.85705 11.8202 6.68514 11.6483C6.51323 11.4764 6.41666 11.2432 6.41666 11.0001C6.41666 10.757 6.51323 10.5238 6.68514 10.3519C6.85705 10.18 7.09021 10.0834 7.33332 10.0834H10.0833V7.33342C10.0833 7.0903 10.1799 6.85714 10.3518 6.68523C10.5237 6.51333 10.7569 6.41675 11 6.41675C11.2431 6.41675 11.4763 6.51333 11.6482 6.68523C11.8201 6.85714 11.9167 7.0903 11.9167 7.33342V10.0834H14.6667C14.9098 10.0834 15.1429 10.18 15.3148 10.3519C15.4867 10.5238 15.5833 10.757 15.5833 11.0001C15.5833 11.2432 15.4867 11.4764 15.3148 11.6483C15.1429 11.8202 14.9098 11.9167 14.6667 11.9167H11.9167V14.6667Z" fill="#A5A7B2"/>
</svg>
