<svg width="28" height="34" viewBox="0 0 28 34" fill="none" xmlns="http://www.w3.org/2000/svg">
<path fill-rule="evenodd" clip-rule="evenodd" d="M28 25.3064C27.2343 27.0055 26.8688 27.7639 25.8828 29.2651C24.5091 31.3614 22.571 33.9725 20.1693 33.9946C18.0359 34.0146 17.4876 32.6034 14.5915 32.6204C11.6953 32.6374 11.0917 34.0197 8.95831 33.9998C6.55664 33.9784 4.72167 31.6206 3.34655 29.5228C-0.497313 23.6598 -0.898943 16.7799 1.47178 13.1226C3.15642 10.5219 5.81528 9.00222 8.31423 9.00222C10.8589 9.00222 12.4588 10.4 14.5634 10.4C16.6048 10.4 17.848 9 20.7906 9C23.0146 9 25.3714 10.2132 27.0508 12.3096C21.5481 15.3304 22.4428 23.2012 28 25.3064V25.3064Z" fill="#53B175"/>
<path fill-rule="evenodd" clip-rule="evenodd" d="M19.2918 5.39699C20.4013 3.9966 21.2424 2.02086 20.9366 0C19.1243 0.121838 17.0062 1.25599 15.769 2.73384C14.6457 4.07482 13.7182 6.06409 14.0791 7.99771C16.0558 8.05863 18.1028 6.89665 19.2918 5.39699Z" fill="#53B175"/>
</svg>
