<svg width="21" height="20" viewBox="0 0 21 20" fill="none" xmlns="http://www.w3.org/2000/svg">
<g clip-path="url(#clip0_1_11228)">
<path d="M17.7207 3.75C18.0522 3.75 18.3702 3.8817 18.6046 4.11612C18.839 4.35054 18.9707 4.66848 18.9707 5V15C18.9707 15.3315 18.839 15.6495 18.6046 15.8839C18.3702 16.1183 18.0522 16.25 17.7207 16.25H2.7207C2.38918 16.25 2.07124 16.1183 1.83682 15.8839C1.6024 15.6495 1.4707 15.3315 1.4707 15V5C1.4707 4.66848 1.6024 4.35054 1.83682 4.11612C2.07124 3.8817 2.38918 3.75 2.7207 3.75H17.7207ZM2.7207 2.5C2.05766 2.5 1.42178 2.76339 0.952936 3.23223C0.484095 3.70107 0.220703 4.33696 0.220703 5L0.220703 15C0.220703 15.663 0.484095 16.2989 0.952936 16.7678C1.42178 17.2366 2.05766 17.5 2.7207 17.5H17.7207C18.3837 17.5 19.0196 17.2366 19.4885 16.7678C19.9573 16.2989 20.2207 15.663 20.2207 15V5C20.2207 4.33696 19.9573 3.70107 19.4885 3.23223C19.0196 2.76339 18.3837 2.5 17.7207 2.5H2.7207Z" fill="#53B175"/>
<path d="M2.7207 6.875C2.7207 6.70924 2.78655 6.55027 2.90376 6.43306C3.02097 6.31585 3.17994 6.25 3.3457 6.25H5.8457C6.01146 6.25 6.17043 6.31585 6.28764 6.43306C6.40486 6.55027 6.4707 6.70924 6.4707 6.875V8.125C6.4707 8.29076 6.40486 8.44973 6.28764 8.56694C6.17043 8.68415 6.01146 8.75 5.8457 8.75H3.3457C3.17994 8.75 3.02097 8.68415 2.90376 8.56694C2.78655 8.44973 2.7207 8.29076 2.7207 8.125V6.875ZM2.7207 10.625C2.7207 10.4592 2.78655 10.3003 2.90376 10.1831C3.02097 10.0658 3.17994 10 3.3457 10H9.5957C9.76146 10 9.92043 10.0658 10.0376 10.1831C10.1549 10.3003 10.2207 10.4592 10.2207 10.625C10.2207 10.7908 10.1549 10.9497 10.0376 11.0669C9.92043 11.1842 9.76146 11.25 9.5957 11.25H3.3457C3.17994 11.25 3.02097 11.1842 2.90376 11.0669C2.78655 10.9497 2.7207 10.7908 2.7207 10.625ZM2.7207 13.125C2.7207 12.9592 2.78655 12.8003 2.90376 12.6831C3.02097 12.5658 3.17994 12.5 3.3457 12.5H4.5957C4.76146 12.5 4.92043 12.5658 5.03764 12.6831C5.15486 12.8003 5.2207 12.9592 5.2207 13.125C5.2207 13.2908 5.15486 13.4497 5.03764 13.5669C4.92043 13.6842 4.76146 13.75 4.5957 13.75H3.3457C3.17994 13.75 3.02097 13.6842 2.90376 13.5669C2.78655 13.4497 2.7207 13.2908 2.7207 13.125ZM6.4707 13.125C6.4707 12.9592 6.53655 12.8003 6.65376 12.6831C6.77097 12.5658 6.92994 12.5 7.0957 12.5H8.3457C8.51146 12.5 8.67043 12.5658 8.78764 12.6831C8.90485 12.8003 8.9707 12.9592 8.9707 13.125C8.9707 13.2908 8.90485 13.4497 8.78764 13.5669C8.67043 13.6842 8.51146 13.75 8.3457 13.75H7.0957C6.92994 13.75 6.77097 13.6842 6.65376 13.5669C6.53655 13.4497 6.4707 13.2908 6.4707 13.125ZM10.2207 13.125C10.2207 12.9592 10.2866 12.8003 10.4038 12.6831C10.521 12.5658 10.6799 12.5 10.8457 12.5H12.0957C12.2615 12.5 12.4204 12.5658 12.5376 12.6831C12.6549 12.8003 12.7207 12.9592 12.7207 13.125C12.7207 13.2908 12.6549 13.4497 12.5376 13.5669C12.4204 13.6842 12.2615 13.75 12.0957 13.75H10.8457C10.6799 13.75 10.521 13.6842 10.4038 13.5669C10.2866 13.4497 10.2207 13.2908 10.2207 13.125ZM13.9707 13.125C13.9707 12.9592 14.0366 12.8003 14.1538 12.6831C14.271 12.5658 14.4299 12.5 14.5957 12.5H15.8457C16.0115 12.5 16.1704 12.5658 16.2876 12.6831C16.4049 12.8003 16.4707 12.9592 16.4707 13.125C16.4707 13.2908 16.4049 13.4497 16.2876 13.5669C16.1704 13.6842 16.0115 13.75 15.8457 13.75H14.5957C14.4299 13.75 14.271 13.6842 14.1538 13.5669C14.0366 13.4497 13.9707 13.2908 13.9707 13.125Z" fill="#53B175"/>
</g>
<defs>
<clipPath id="clip0_1_11228">
<rect width="20" height="20" fill="white" transform="translate(0.220703)"/>
</clipPath>
</defs>
</svg>
