<svg width="20" height="20" viewBox="0 0 20 20" fill="none" xmlns="http://www.w3.org/2000/svg">
<g clip-path="url(#clip0_1_11215)">
<path d="M10 0C5.8363 0 2.46094 3.37535 2.46094 7.53907C2.46094 8.93152 2.73349 10.3697 3.51562 11.4063L10 20L16.4844 11.4063C17.1948 10.4648 17.5391 8.80032 17.5391 7.53907C17.5391 3.37535 14.1637 0 10 0ZM10 4.36645C11.7519 4.36645 13.1726 5.78713 13.1726 7.53905C13.1726 9.291 11.7519 10.7117 10 10.7117C8.24807 10.7117 6.8274 9.291 6.8274 7.53907C6.8274 5.78713 8.24807 4.36645 10 4.36645Z" fill="#53B175"/>
</g>
<defs>
<clipPath id="clip0_1_11215">
<rect width="20" height="20" fill="white"/>
</clipPath>
</defs>
</svg>
