<svg width="31" height="30" viewBox="0 0 31 30" fill="none" xmlns="http://www.w3.org/2000/svg">
<g clip-path="url(#clip0_1_12087)">
<path d="M24.2878 18.4894H22.1535C21.5345 18.4894 21.0327 17.9876 21.0327 17.3686V7.77068C21.0327 7.1517 21.5345 6.6499 22.1535 6.6499H27.5707C29.3179 6.6499 30.7394 8.07133 30.7394 9.81853V12.0378C30.7394 15.5952 27.8452 18.4894 24.2878 18.4894ZM23.2743 16.2479H24.2878C26.6093 16.2479 28.4979 14.3593 28.4979 12.0378V9.81859C28.4979 9.30736 28.082 8.89146 27.5707 8.89146H23.2743V16.2479Z" fill="#CBE2FF"/>
<path d="M28.4978 9.81867V12.0379C28.4978 14.2638 26.7611 16.0906 24.5718 16.2373V16.248H25.5853C27.9068 16.248 29.7954 14.3594 29.7954 12.038V9.81873C29.7954 9.3075 29.3795 8.8916 28.8682 8.8916H27.5707C28.0818 8.89148 28.4978 9.30744 28.4978 9.81867Z" fill="#CBE2FF"/>
<path d="M28.4978 9.81867V12.0379C28.4978 14.2638 26.7611 16.0906 24.5718 16.2373V16.248H25.5853C27.9068 16.248 29.7954 14.3594 29.7954 12.038V9.81873C29.7954 9.3075 29.3795 8.8916 28.8682 8.8916H27.5707C28.0818 8.89148 28.4978 9.30744 28.4978 9.81867Z" fill="black" fill-opacity="0.2"/>
<path d="M25.7283 5.95842V9.36588C23.6702 12.5559 21.8639 12.5563 17.9989 12.5563C14.1339 12.5563 14.1339 14.9707 10.2689 14.9707C6.40387 14.9707 4.31781 9.86153 2.53955 6.95141V5.95848C2.53955 5.29209 3.07979 4.75244 3.74617 4.75244H24.5222C25.188 4.75238 25.7283 5.29203 25.7283 5.95842Z" fill="#CBE2FF"/>
<path d="M2.53955 5.95848V6.95141C4.19336 9.65779 6.11371 14.2654 9.48326 14.8973C9.41131 14.4714 9.37328 14.034 9.37328 13.5876V5.959C9.37328 5.2925 9.9131 4.75262 10.5797 4.75262L10.5791 4.75244H3.74617C3.07979 4.75244 2.53955 5.29209 2.53955 5.95848Z" fill="#CBE2FF"/>
<path d="M2.53955 5.95848V6.95141C4.19336 9.65779 6.11371 14.2654 9.48326 14.8973C9.41131 14.4714 9.37328 14.034 9.37328 13.5876V5.959C9.37328 5.2925 9.9131 4.75262 10.5797 4.75262L10.5791 4.75244H3.74617C3.07979 4.75244 2.53955 5.29209 2.53955 5.95848Z" fill="black" fill-opacity="0.1"/>
<path d="M25.7283 9.36613V13.5873C25.7283 17.8995 22.2327 21.3951 17.9204 21.3951H10.3474C6.03514 21.3951 2.53955 17.8995 2.53955 13.5873V6.95166C6.40393 6.95166 6.40393 9.36613 10.2689 9.36613C14.134 9.36613 14.134 6.95166 17.9989 6.95166C21.8639 6.95166 21.8639 9.36613 25.7283 9.36613Z" fill="#D4ECAC"/>
<path d="M17.1682 21.3951C12.8617 21.388 9.37334 17.8954 9.37334 13.5879V9.31762C6.37727 8.97748 6.07955 6.95166 2.53955 6.95166V13.5873C2.53955 17.8996 6.03514 21.3951 10.3474 21.3951H17.1682V21.3951Z" fill="#CCF49F"/>
<path d="M13.2994 18.6471V20.4767H11.4693C9.34635 20.4767 7.62598 18.7558 7.62598 16.6334V14.8032H9.45557C11.5785 14.8032 13.2994 16.5242 13.2994 18.6471Z" fill="#87DC5E"/>
<path d="M21.2086 12.5669V15.1184C21.2086 18.078 18.8098 20.4768 15.8503 20.4768H13.2993V17.9259C13.2993 14.9663 15.6981 12.567 18.6577 12.567H21.2086V12.5669Z" fill="#69CB3A"/>
<path d="M21.2086 12.5669L13.2993 20.4768V17.9259C13.2993 14.9663 15.6981 12.567 18.6577 12.567H21.2086V12.5669Z" fill="#87DC5E"/>
<path d="M13.2994 20.4767H11.4693C9.34635 20.4767 7.62598 18.7558 7.62598 16.6334V14.8032L13.2994 20.4767Z" fill="#69CB3A"/>
<path d="M3.09473 23.3891C3.23307 24.4523 4.13881 25.2479 5.21107 25.2479H23.0577C24.1299 25.2479 25.0357 24.4523 25.1741 23.3891L14.1344 21.9331L3.09473 23.3891Z" fill="#CBE2FF"/>
<path d="M10.2589 25.248H5.21125C4.13893 25.248 3.23307 24.4523 3.09473 23.3892L14.1344 21.9331L16.6585 22.266L8.1424 23.3892C8.28068 24.4523 9.18654 25.248 10.2589 25.248Z" fill="#CBE2FF"/>
<path d="M10.2589 25.248H5.21125C4.13893 25.248 3.23307 24.4523 3.09473 23.3892L14.1344 21.9331L16.6585 22.266L8.1424 23.3892C8.28068 24.4523 9.18654 25.248 10.2589 25.248Z" fill="black" fill-opacity="0.1"/>
<path d="M26.0735 20.4771H2.19525C1.39111 20.4771 0.739258 21.1289 0.739258 21.933C0.739258 22.7372 1.39111 23.389 2.19525 23.389H26.0735C26.8776 23.389 27.5295 22.7372 27.5295 21.933C27.5295 21.1289 26.8776 20.4771 26.0735 20.4771Z" fill="#CBE2FF"/>
<path d="M8.77557 22.962C9.03936 23.2257 9.40352 23.3886 9.80506 23.3886H2.19531C1.79318 23.3886 1.42902 23.2257 1.16582 22.962C0.90209 22.6988 0.739258 22.3346 0.739258 21.9331C0.739258 21.1288 1.39111 20.4771 2.19531 20.4771H9.805C9.00139 20.4771 8.34895 21.1289 8.34895 21.9331C8.34895 22.3346 8.51236 22.6988 8.77557 22.962Z" fill="#CBE2FF"/>
<path d="M8.77557 22.962C9.03936 23.2257 9.40352 23.3886 9.80506 23.3886H2.19531C1.79318 23.3886 1.42902 23.2257 1.16582 22.962C0.90209 22.6988 0.739258 22.3346 0.739258 21.9331C0.739258 21.1288 1.39111 20.4771 2.19531 20.4771H9.805C9.00139 20.4771 8.34895 21.1289 8.34895 21.9331C8.34895 22.3346 8.51236 22.6988 8.77557 22.962Z" fill="black" fill-opacity="0.1"/>
</g>
<defs>
<clipPath id="clip0_1_12087">
<rect width="30" height="30" fill="white" transform="translate(0.739258)"/>
</clipPath>
</defs>
</svg>
