<svg width="31" height="30" viewBox="0 0 31 30" fill="none" xmlns="http://www.w3.org/2000/svg">
<g clip-path="url(#clip0_1_12129)">
<path d="M18.1387 15L28.4835 13.4482L29.2438 13.7689L29.1301 14.3276C28.4629 17.7221 25.4878 20.1706 22.0283 20.1724H21.2421L18.1387 15Z" fill="#805333"/>
<path d="M9.86279 8.27588V10.9759L21.0766 17.0173C24.599 16.8414 27.6145 15.5742 29.2438 13.769C30.0555 12.9364 30.5229 11.828 30.5524 10.6655V8.27588H9.86279Z" fill="#A56A43"/>
<path d="M10.5766 10.5825C10.112 9.90283 9.86321 9.09884 9.86279 8.27557C9.86279 5.3635 13.2145 2.92212 17.7093 2.25488L26.2128 3.2273C29.1507 4.49454 31.4524 6.98764 30.2266 9.85833C29.0783 12.5532 25.0542 14.5394 20.2076 14.5394C19.5559 14.5394 19.3749 14.5135 19.318 14.5135L10.5766 10.5825Z" fill="#CB8252"/>
<path d="M28.2245 9.31017C27.3038 11.0947 24.0866 12.4136 20.2073 12.4136C18.8556 12.4224 17.5089 12.2484 16.2038 11.8964L12.5831 9.87914C12.3408 9.60498 12.156 9.28482 12.04 8.93776C13.478 8.03776 15.7073 6.35155 16.0745 4.69638C16.5866 2.38948 20.6521 -0.253624 22.7935 -0.00017616C25.2969 0.325686 26.6107 4.06534 27.9193 6.755C27.9969 6.91534 28.3745 7.68086 28.4366 7.71707C28.5732 8.25562 28.4973 8.82611 28.2245 9.31017Z" fill="#C03A2B"/>
<path d="M16.0694 4.69629C15.697 6.35146 13.4832 8.04284 12.0349 8.93767C11.378 6.81181 13.897 5.31698 16.0694 4.69629Z" fill="#805333"/>
<path d="M19.6906 4.65509C19.9762 4.65509 20.2078 4.42351 20.2078 4.13785C20.2078 3.85218 19.9762 3.62061 19.6906 3.62061C19.4049 3.62061 19.1733 3.85218 19.1733 4.13785C19.1733 4.42351 19.4049 4.65509 19.6906 4.65509Z" fill="#E64C3C"/>
<path d="M22.7936 6.20684C23.0793 6.20684 23.3108 5.97527 23.3108 5.6896C23.3108 5.40394 23.0793 5.17236 22.7936 5.17236C22.5079 5.17236 22.2764 5.40394 22.2764 5.6896C22.2764 5.97527 22.5079 6.20684 22.7936 6.20684Z" fill="#E64C3C"/>
<path d="M22.2765 9.30987C22.5622 9.30987 22.7938 9.07829 22.7938 8.79263C22.7938 8.50697 22.5622 8.27539 22.2765 8.27539C21.9909 8.27539 21.7593 8.50697 21.7593 8.79263C21.7593 9.07829 21.9909 9.30987 22.2765 9.30987Z" fill="#E64C3C"/>
<path d="M18.6559 7.75812C18.9416 7.75812 19.1732 7.52654 19.1732 7.24088C19.1732 6.95521 18.9416 6.72363 18.6559 6.72363C18.3702 6.72363 18.1387 6.95521 18.1387 7.24088C18.1387 7.52654 18.3702 7.75812 18.6559 7.75812Z" fill="#E64C3C"/>
<path d="M22.7936 3.62042C23.0793 3.62042 23.3108 3.38884 23.3108 3.10318C23.3108 2.81751 23.0793 2.58594 22.7936 2.58594C22.5079 2.58594 22.2764 2.81751 22.2764 3.10318C22.2764 3.38884 22.5079 3.62042 22.7936 3.62042Z" fill="#E64C3C"/>
<path d="M19.9332 23.5962L19.8195 24.1548C19.1523 27.5494 16.1772 29.9979 12.7177 29.9996H9.09704C5.62979 30.0078 2.64331 27.557 1.97463 24.1548L1.86084 23.5962H19.9332Z" fill="#805333"/>
<path d="M0.552246 18.1035V20.4932C0.552246 24.0156 5.20742 26.8966 10.8971 26.8966C16.5867 26.8966 21.2419 24.0414 21.2419 20.519V18.1035H0.552246Z" fill="#CB8252"/>
<path d="M8.3988 12.0825C3.90397 12.7498 0.552246 15.1911 0.552246 18.1032C0.552246 21.548 5.20742 24.3411 10.8971 24.3411C15.7178 24.3411 19.7678 22.3549 20.916 19.686C22.1367 16.8256 19.8816 14.3273 16.9022 13.0549L8.3988 12.0825Z" fill="#CF976A"/>
<path d="M18.9143 19.1378C17.9936 20.9223 14.7763 22.2412 10.897 22.2412C7.01771 22.2412 3.80047 20.9223 2.87978 19.1378C2.81931 19.0175 2.76745 18.893 2.72461 18.7654C4.16254 17.8654 6.39185 16.1792 6.75909 14.524C7.27633 12.2171 11.3418 9.57399 13.4832 9.86881C15.9867 10.1947 17.3005 13.9343 18.6091 16.624C18.6867 16.7843 19.0643 17.5498 19.1263 17.5861C19.252 18.1116 19.1764 18.6652 18.9143 19.1378Z" fill="#F0C419"/>
<path d="M6.75932 14.5239C6.3869 16.1791 4.17311 17.8705 2.72483 18.7653C2.06794 16.6394 4.5869 15.1446 6.75932 14.5239Z" fill="#805333"/>
<path d="M10.38 14.9998C10.6657 14.9998 10.8973 14.7682 10.8973 14.4826C10.8973 14.1969 10.6657 13.9653 10.38 13.9653C10.0944 13.9653 9.86279 14.1969 9.86279 14.4826C9.86279 14.7682 10.0944 14.9998 10.38 14.9998Z" fill="#F29C1F"/>
<path d="M14.5177 17.5862C14.8034 17.5862 15.035 17.3547 15.035 17.069C15.035 16.7833 14.8034 16.5518 14.5177 16.5518C14.2321 16.5518 14.0005 16.7833 14.0005 17.069C14.0005 17.3547 14.2321 17.5862 14.5177 17.5862Z" fill="#F29C1F"/>
<path d="M11.4142 20.1722C11.6999 20.1722 11.9315 19.9406 11.9315 19.6549C11.9315 19.3693 11.6999 19.1377 11.4142 19.1377C11.1285 19.1377 10.897 19.3693 10.897 19.6549C10.897 19.9406 11.1285 20.1722 11.4142 20.1722Z" fill="#F29C1F"/>
<path d="M7.27652 19.6551C7.56218 19.6551 7.79376 19.4235 7.79376 19.1378C7.79376 18.8522 7.56218 18.6206 7.27652 18.6206C6.99085 18.6206 6.75928 18.8522 6.75928 19.1378C6.75928 19.4235 6.99085 19.6551 7.27652 19.6551Z" fill="#F29C1F"/>
<path d="M13.4831 13.4481C13.7687 13.4481 14.0003 13.2165 14.0003 12.9308C14.0003 12.6452 13.7687 12.4136 13.4831 12.4136C13.1974 12.4136 12.9658 12.6452 12.9658 12.9308C12.9658 13.2165 13.1974 13.4481 13.4831 13.4481Z" fill="#F29C1F"/>
</g>
<defs>
<clipPath id="clip0_1_12129">
<rect width="30" height="30" fill="white" transform="translate(0.552246)"/>
</clipPath>
</defs>
</svg>
