<svg width="31" height="30" viewBox="0 0 31 30" fill="none" xmlns="http://www.w3.org/2000/svg">
<path d="M16.0064 29.9998H15.8817C15.313 29.9998 14.8521 29.5388 14.8521 28.9701V11.8818H17.0361V28.9701C17.0361 29.5388 16.5751 29.9998 16.0064 29.9998Z" fill="#FDDEB0"/>
<path d="M17.0359 11.8818V28.9698C17.0359 29.5385 16.5754 29.9995 16.0067 29.9995H15.8816C15.7435 29.9995 15.6114 29.9724 15.4912 29.9223C15.8664 29.7685 16.1301 29.3998 16.1301 28.9697V11.8818H17.0359Z" fill="#FDD79B"/>
<path d="M15.9441 12.7623C19.4684 12.7623 22.3253 9.90537 22.3253 6.38115C22.3253 2.85694 19.4684 0 15.9441 0C12.4199 0 9.56299 2.85694 9.56299 6.38115C9.56299 9.90537 12.4199 12.7623 15.9441 12.7623Z" fill="#D4ECAC"/>
<path d="M22.3255 6.38109C22.3255 9.90563 19.4685 12.7622 15.9445 12.7622C14.5325 12.7622 13.2277 12.3035 12.1709 11.5274C12.9818 11.9006 13.8837 12.1083 14.8343 12.1083C18.3583 12.1083 21.2154 9.25178 21.2154 5.72725C21.2154 3.61512 20.1892 1.74293 18.6083 0.581543C20.8025 1.59053 22.3255 3.80777 22.3255 6.38109Z" fill="#69CB3A"/>
<path d="M22.2004 8.32266H9.68814C9.18377 8.32266 8.7749 7.91379 8.7749 7.40941V5.35318C8.7749 4.84881 9.18377 4.43994 9.68814 4.43994H22.2004C22.7048 4.43994 23.1137 4.84881 23.1137 5.35318V7.40941C23.1136 7.91379 22.7047 8.32266 22.2004 8.32266Z" fill="#A2E62E"/>
<path d="M23.1134 5.35318V7.40947C23.1134 7.91367 22.7049 8.32272 22.2001 8.32272H9.68814C9.18342 8.32272 8.7749 7.91367 8.7749 7.40947V7.03717H21.0263C21.5305 7.03717 21.9395 6.62813 21.9395 6.12393V4.43994H22.2001C22.7049 4.43994 23.1134 4.8484 23.1134 5.35318Z" fill="#69CB3A"/>
</svg>
