<svg width="24" height="30" viewBox="0 0 24 30" fill="none" xmlns="http://www.w3.org/2000/svg">
<path d="M20.715 10.5853V7.12012C20.715 6.86365 20.5071 6.65576 20.2506 6.65576H9.7251C9.46863 6.65576 9.26074 6.86365 9.26074 7.12012V10.5853H20.715Z" fill="#DBEDFF"/>
<path d="M12.3489 6.65576H9.7251C9.46863 6.65576 9.26074 6.86365 9.26074 7.12012V10.5853H11.9675V7.29648C11.9674 7.02098 12.1221 6.77998 12.3489 6.65576Z" fill="#B5DCFF"/>
<path d="M23.0494 0.435046C22.8112 0.0201435 22.2818 -0.123001 21.8671 0.115124L18.3003 2.16268C17.6678 2.52579 17.2749 3.20436 17.2749 3.93368V10.5845H19.007V3.93368C19.007 3.823 19.0666 3.72005 19.1626 3.66497L22.7294 1.61735C23.1443 1.37923 23.2876 0.84989 23.0494 0.435046Z" fill="#B5DCFF"/>
<path d="M18.9196 1.80713L18.3003 2.16262C17.6678 2.52572 17.2749 3.2043 17.2749 3.93361V10.5845H18.1652V3.39039C18.1652 2.77217 18.4483 2.19115 18.9196 1.80713Z" fill="#8BCAFF"/>
<path d="M9.87988 27.9365L9.96953 29.6817C10.2482 29.8819 10.5897 30.0002 10.959 30.0002H19.0164C19.9544 30.0002 20.7149 29.2398 20.7149 28.3017V27.9365H9.87988Z" fill="#69CB3A"/>
<path d="M9.87988 27.9365L9.96953 29.6817C10.2482 29.8819 10.5897 30.0002 10.959 30.0002H12.3487C12.122 29.876 11.9672 29.635 11.9672 29.3595V27.9365H9.87988Z" fill="#69CB3A"/>
<path d="M9.87988 27.9365L9.96953 29.6817C10.2482 29.8819 10.5897 30.0002 10.959 30.0002H12.3487C12.122 29.876 11.9672 29.635 11.9672 29.3595V27.9365H9.87988Z" fill="black" fill-opacity="0.2"/>
<path d="M9.26074 10.4639V15.8756C12.5268 16.5279 14.9879 19.4107 14.9879 22.8685C14.9879 24.9138 14.1267 26.7577 12.7474 28.0581H20.7151V10.4639H9.26074Z" fill="#FFB640"/>
<path d="M20.7151 10.4639H9.26074V15.8755L9.88635 28.0581H20.7151V10.4639Z" fill="#69CB3A"/>
<path d="M9.26074 10.4639V15.8755L9.88635 28.0581H11.9675V10.4639H9.26074Z" fill="#69CB3A"/>
<path d="M9.26074 10.4639V15.8755L9.88635 28.0581H11.9675V10.4639H9.26074Z" fill="black" fill-opacity="0.2"/>
<path d="M7.85611 29.9998C11.7947 29.9998 14.9876 26.8069 14.9876 22.8683C14.9876 18.9297 11.7947 15.7368 7.85611 15.7368C3.91749 15.7368 0.724609 18.9297 0.724609 22.8683C0.724609 26.8069 3.91749 29.9998 7.85611 29.9998Z" fill="#69CB3A"/>
<path d="M7.85611 29.9998C11.7947 29.9998 14.9876 26.8069 14.9876 22.8683C14.9876 18.9297 11.7947 15.7368 7.85611 15.7368C3.91749 15.7368 0.724609 18.9297 0.724609 22.8683C0.724609 26.8069 3.91749 29.9998 7.85611 29.9998Z" fill="white" fill-opacity="0.2"/>
<path d="M4.64816 22.8683C4.64816 19.6101 6.83324 16.8623 9.81795 16.0102C9.19469 15.8322 8.53656 15.7368 7.85617 15.7368C3.91756 15.7368 0.724609 18.9297 0.724609 22.8683C0.724609 26.807 3.9175 29.9999 7.85617 29.9999C8.53656 29.9999 9.19469 29.9045 9.81795 29.7265C6.8333 28.8744 4.64816 26.1266 4.64816 22.8683Z" fill="#69CB3A"/>
<path d="M7.85606 28.3459C10.8813 28.3459 13.3337 25.8935 13.3337 22.8683C13.3337 19.843 10.8813 17.3906 7.85606 17.3906C4.83084 17.3906 2.37842 19.843 2.37842 22.8683C2.37842 25.8935 4.83084 28.3459 7.85606 28.3459Z" fill="#69CB3A"/>
<path d="M7.1633 17.4341C4.46518 17.7746 2.37842 20.0777 2.37842 22.8683C2.37842 25.6589 4.46518 27.962 7.1633 28.3025C5.62492 26.9944 4.64805 25.0459 4.64805 22.8683C4.64805 20.6907 5.62492 18.7421 7.1633 17.4341Z" fill="#69CB3A"/>
<path d="M7.1633 17.4341C4.46518 17.7746 2.37842 20.0777 2.37842 22.8683C2.37842 25.6589 4.46518 27.962 7.1633 28.3025C5.62492 26.9944 4.64805 25.0459 4.64805 22.8683C4.64805 20.6907 5.62492 18.7421 7.1633 17.4341Z" fill="black" fill-opacity="0.04"/>
<path d="M7.85617 16.938C4.58764 16.938 1.92578 19.5983 1.92578 22.8684C1.92578 26.1346 4.58336 28.7987 7.85617 28.7987C11.1224 28.7987 13.7865 26.1412 13.7865 22.8684C13.7865 19.602 11.1288 16.938 7.85617 16.938ZM2.87336 22.225C2.98943 21.3204 3.34656 20.4904 3.87865 19.8018C3.94111 19.7209 4.06035 19.7128 4.13266 19.7851L6.53652 22.1889C6.62019 22.2726 6.56096 22.4156 6.4426 22.4156H3.04117C2.93939 22.4156 2.86041 22.326 2.87336 22.225ZM3.87865 25.9349C3.34656 25.2463 2.98943 24.4162 2.87336 23.5117C2.86041 23.4107 2.93939 23.3211 3.04123 23.3211H6.44266C6.56096 23.3211 6.62019 23.4641 6.53658 23.5478L4.13271 25.9516C4.06041 26.0239 3.94117 26.0158 3.87865 25.9349ZM7.40342 27.6833C7.40342 27.7851 7.31383 27.8641 7.21281 27.8511C6.30824 27.7351 5.4782 27.3779 4.78955 26.8458C4.70869 26.7834 4.70061 26.6641 4.77285 26.5918L7.17672 24.188C7.26039 24.1043 7.40342 24.1635 7.40342 24.2818V27.6833ZM7.40342 21.4549C7.40342 21.5732 7.26039 21.6324 7.17672 21.5487L4.77285 19.1449C4.70061 19.0726 4.70869 18.9534 4.78955 18.8909C5.4782 18.3587 6.30824 18.0016 7.21281 17.8855C7.31383 17.8726 7.40342 17.9515 7.40342 18.0534V21.4549ZM11.8336 19.8018C12.3657 20.4905 12.7229 21.3205 12.8389 22.2251C12.8519 22.3261 12.7729 22.4157 12.6711 22.4157H9.26969C9.15139 22.4157 9.09215 22.2727 9.17576 22.189L11.5796 19.7851C11.6519 19.7128 11.7712 19.721 11.8336 19.8018ZM8.30887 18.0534C8.30887 17.9516 8.39846 17.8726 8.49947 17.8856C9.40404 18.0016 10.234 18.3588 10.9227 18.8909C11.0036 18.9533 11.0117 19.0726 10.9394 19.1449L8.53557 21.5487C8.45189 21.6324 8.30887 21.5732 8.30887 21.4548V18.0534ZM10.9227 26.8458C10.234 27.3779 9.40404 27.7351 8.49947 27.8511C8.39846 27.8641 8.30887 27.7851 8.30887 27.6833V24.2819C8.30887 24.1636 8.45189 24.1044 8.53557 24.188L10.9394 26.5918C11.0117 26.6641 11.0036 26.7833 10.9227 26.8458ZM12.8389 23.5117C12.7229 24.4162 12.3657 25.2462 11.8336 25.9349C11.7712 26.0157 11.6519 26.0238 11.5796 25.9516L9.17576 23.5477C9.09209 23.464 9.15133 23.321 9.26969 23.321H12.6711C12.7729 23.3211 12.8519 23.4107 12.8389 23.5117Z" fill="#69CB3A"/>
<path d="M7.85617 16.938C4.58764 16.938 1.92578 19.5983 1.92578 22.8684C1.92578 26.1346 4.58336 28.7987 7.85617 28.7987C11.1224 28.7987 13.7865 26.1412 13.7865 22.8684C13.7865 19.602 11.1288 16.938 7.85617 16.938ZM2.87336 22.225C2.98943 21.3204 3.34656 20.4904 3.87865 19.8018C3.94111 19.7209 4.06035 19.7128 4.13266 19.7851L6.53652 22.1889C6.62019 22.2726 6.56096 22.4156 6.4426 22.4156H3.04117C2.93939 22.4156 2.86041 22.326 2.87336 22.225ZM3.87865 25.9349C3.34656 25.2463 2.98943 24.4162 2.87336 23.5117C2.86041 23.4107 2.93939 23.3211 3.04123 23.3211H6.44266C6.56096 23.3211 6.62019 23.4641 6.53658 23.5478L4.13271 25.9516C4.06041 26.0239 3.94117 26.0158 3.87865 25.9349ZM7.40342 27.6833C7.40342 27.7851 7.31383 27.8641 7.21281 27.8511C6.30824 27.7351 5.4782 27.3779 4.78955 26.8458C4.70869 26.7834 4.70061 26.6641 4.77285 26.5918L7.17672 24.188C7.26039 24.1043 7.40342 24.1635 7.40342 24.2818V27.6833ZM7.40342 21.4549C7.40342 21.5732 7.26039 21.6324 7.17672 21.5487L4.77285 19.1449C4.70061 19.0726 4.70869 18.9534 4.78955 18.8909C5.4782 18.3587 6.30824 18.0016 7.21281 17.8855C7.31383 17.8726 7.40342 17.9515 7.40342 18.0534V21.4549ZM11.8336 19.8018C12.3657 20.4905 12.7229 21.3205 12.8389 22.2251C12.8519 22.3261 12.7729 22.4157 12.6711 22.4157H9.26969C9.15139 22.4157 9.09215 22.2727 9.17576 22.189L11.5796 19.7851C11.6519 19.7128 11.7712 19.721 11.8336 19.8018ZM8.30887 18.0534C8.30887 17.9516 8.39846 17.8726 8.49947 17.8856C9.40404 18.0016 10.234 18.3588 10.9227 18.8909C11.0036 18.9533 11.0117 19.0726 10.9394 19.1449L8.53557 21.5487C8.45189 21.6324 8.30887 21.5732 8.30887 21.4548V18.0534ZM10.9227 26.8458C10.234 27.3779 9.40404 27.7351 8.49947 27.8511C8.39846 27.8641 8.30887 27.7851 8.30887 27.6833V24.2819C8.30887 24.1636 8.45189 24.1044 8.53557 24.188L10.9394 26.5918C11.0117 26.6641 11.0036 26.7833 10.9227 26.8458ZM12.8389 23.5117C12.7229 24.4162 12.3657 25.2462 11.8336 25.9349C11.7712 26.0157 11.6519 26.0238 11.5796 25.9516L9.17576 23.5477C9.09209 23.464 9.15133 23.321 9.26969 23.321H12.6711C12.7729 23.3211 12.8519 23.4107 12.8389 23.5117Z" fill="white" fill-opacity="0.4"/>
<path d="M1.92578 22.8686C1.92578 26.1224 4.5632 28.7783 7.81885 28.7985C7.35684 28.4893 6.93332 28.1276 6.55615 27.7218C5.90623 27.5478 5.30787 27.2465 4.78961 26.846C4.70875 26.7836 4.70066 26.6643 4.77291 26.592L5.36887 25.9961C5.22561 25.7029 5.10303 25.398 5.00049 25.084L4.13271 25.9518C4.06047 26.024 3.94123 26.0159 3.87871 25.9351C3.34662 25.2464 2.98949 24.4164 2.87342 23.5118C2.86047 23.4108 2.93945 23.3212 3.04129 23.3212H4.66387C4.65449 23.1714 4.64816 23.0207 4.64816 22.8685C4.64816 22.7162 4.65449 22.5656 4.66387 22.4158H3.04129C2.93945 22.4158 2.86047 22.3262 2.87342 22.2252C2.98949 21.3206 3.34662 20.4905 3.87871 19.8019C3.94117 19.721 4.06041 19.7129 4.13271 19.7852L5.00049 20.653C5.10303 20.339 5.22561 20.034 5.36887 19.7409L4.77291 19.1449C4.70066 19.0727 4.70875 18.9535 4.78961 18.8909C5.30787 18.4905 5.90629 18.1892 6.55621 18.0151C6.93338 17.6094 7.35689 17.2477 7.8189 16.9385C4.56742 16.9589 1.92578 19.6109 1.92578 22.8686Z" fill="#69CB3A"/>
<path d="M1.92578 22.8686C1.92578 26.1224 4.5632 28.7783 7.81885 28.7985C7.35684 28.4893 6.93332 28.1276 6.55615 27.7218C5.90623 27.5478 5.30787 27.2465 4.78961 26.846C4.70875 26.7836 4.70066 26.6643 4.77291 26.592L5.36887 25.9961C5.22561 25.7029 5.10303 25.398 5.00049 25.084L4.13271 25.9518C4.06047 26.024 3.94123 26.0159 3.87871 25.9351C3.34662 25.2464 2.98949 24.4164 2.87342 23.5118C2.86047 23.4108 2.93945 23.3212 3.04129 23.3212H4.66387C4.65449 23.1714 4.64816 23.0207 4.64816 22.8685C4.64816 22.7162 4.65449 22.5656 4.66387 22.4158H3.04129C2.93945 22.4158 2.86047 22.3262 2.87342 22.2252C2.98949 21.3206 3.34662 20.4905 3.87871 19.8019C3.94117 19.721 4.06041 19.7129 4.13271 19.7852L5.00049 20.653C5.10303 20.339 5.22561 20.034 5.36887 19.7409L4.77291 19.1449C4.70066 19.0727 4.70875 18.9535 4.78961 18.8909C5.30787 18.4905 5.90629 18.1892 6.55621 18.0151C6.93338 17.6094 7.35689 17.2477 7.8189 16.9385C4.56742 16.9589 1.92578 19.6109 1.92578 22.8686Z" fill="white" fill-opacity="0.2"/>
</svg>
