<svg width="31" height="30" viewBox="0 0 31 30" fill="none" xmlns="http://www.w3.org/2000/svg">
<g clip-path="url(#clip0_1_12228)">
<path d="M23.1906 26.8964H6.64609C5.14662 26.8953 3.8623 25.8231 3.59436 24.3479L1.9873 15.5171H27.8494L26.2459 24.3479C25.9775 25.8241 24.6911 26.8974 23.1906 26.8964Z" fill="#BF7341"/>
<path d="M7.37256 26.8964H23.1903C24.6898 26.8954 25.9741 25.8231 26.242 24.3479L27.8491 15.5171H24.4436C19.9353 22.0235 12.0634 25.3871 7.37256 26.8964Z" fill="#B56D3E"/>
<path d="M12.3319 13.4483H6.125V3.10348C6.125 1.38932 7.51432 0 9.22842 0C10.9426 0 12.3319 1.38932 12.3319 3.10348V13.4483Z" fill="#C96E23"/>
<path d="M8.51637 8.67938L11.1025 6.61084L10.4564 5.80302L7.87024 7.87156L8.51637 8.67938Z" fill="#B5611D"/>
<path d="M26.2977 13.4485H20.0908V12.414C20.0908 10.6999 21.4801 9.31055 23.1943 9.31055C24.9085 9.31055 26.2978 10.6999 26.2978 12.414V13.4485H26.2977Z" fill="#C96E23"/>
<path d="M22.6766 10.8618H21.6421V11.8963H22.6766V10.8618Z" fill="#B5611D"/>
<path d="M25.263 11.3789H24.2285V12.4134H25.263V11.3789Z" fill="#B5611D"/>
<path d="M22.3242 13.4483H15.6001L21.0218 1.70689C21.5003 0.667266 22.5394 0.00105469 23.6835 0H23.8811C24.5473 0 25.1938 0.226523 25.7137 0.642949C26.7622 1.48143 27.1072 2.925 26.5516 4.14727L22.3242 13.4483Z" fill="#D68033"/>
<path d="M21.4331 5.15332L25.0537 4.11816L24.7693 3.12346L21.1487 4.15862L21.4331 5.15332Z" fill="#C96E23"/>
<path d="M20.8559 8.57283L20.5435 7.58646L23.2026 6.74805L23.515 7.73494L20.8559 8.57283Z" fill="#C96E23"/>
<path d="M18.1773 12.3896L21.4453 11.3555L21.1332 10.3692L17.8652 11.4034L18.1773 12.3896Z" fill="#C96E23"/>
<path d="M1.98711 13.4482H27.8492C28.4207 13.4482 28.8836 13.9112 28.8836 14.4827C28.8836 15.0542 28.4207 15.5172 27.8492 15.5172H1.98711C1.41559 15.5172 0.952637 15.0543 0.952637 14.4827C0.952637 13.9112 1.41559 13.4482 1.98711 13.4482Z" fill="#BF7341"/>
<path d="M25.263 13.4483V12.4138C25.263 6.70031 20.6317 2.06895 14.9182 2.06895C9.20471 2.06895 4.57334 6.70031 4.57334 12.4138V13.4483H2.50439V12.4138C2.50439 5.55773 8.06213 0 14.9182 0C21.7742 0 27.332 5.55773 27.332 12.4138V13.4483H25.263Z" fill="#965735"/>
<path d="M20.0904 13.4481C19.9477 8.26223 17.6899 4.1377 14.918 4.1377C12.1461 4.1377 9.8884 8.26217 9.74561 13.4481H20.0904Z" fill="#F09E3E"/>
<path d="M15.0243 10.4821L12.332 11.3795C12.3326 10.1433 13.1245 9.04621 14.2976 8.65621L16.9872 7.75879C16.9872 8.99447 16.1964 10.0915 15.0243 10.4821Z" fill="#D68033"/>
<path d="M19.6193 9.83984C18.1865 11.3833 16.4486 12.6123 14.5156 13.4481H20.0905C20.061 12.2321 19.9032 11.0228 19.6193 9.83984Z" fill="#EB9634"/>
<path d="M24.2285 17.5864H21.125V18.6209H24.2285V17.5864Z" fill="#965735"/>
<path d="M19.0561 17.5864H15.9526V18.6209H19.0561V17.5864Z" fill="#965735"/>
<path d="M13.8838 17.5864H10.7803V18.6209H13.8838V17.5864Z" fill="#965735"/>
<path d="M8.71139 17.5864H5.60791V18.6209H8.71139V17.5864Z" fill="#965735"/>
<path d="M8.71139 20.6899H5.60791V21.7244H8.71139V20.6899Z" fill="#965735"/>
<path d="M8.71139 23.7935H5.60791V24.8279H8.71139V23.7935Z" fill="#965735"/>
<path d="M9.74596 13.4485H3.53906V12.414C3.53906 10.6999 4.92838 9.31055 6.64254 9.31055C8.3567 9.31055 9.74602 10.6999 9.74602 12.414V13.4485H9.74596Z" fill="#D68033"/>
<path d="M9.74567 12.4137C9.74619 11.4976 9.34119 10.6287 8.6393 10.04C7.93998 11.5075 6.77824 12.7049 5.33203 13.4481H9.74567V12.4137Z" fill="#D97A27"/>
<path d="M6.12529 10.8618H5.09082V11.8963H6.12529V10.8618Z" fill="#C96E23"/>
<path d="M8.19414 11.3789H7.15967V12.4134H8.19414V11.3789Z" fill="#C96E23"/>
<path d="M27.3319 16.0345H3.53875C3.25322 16.0345 3.02148 15.8027 3.02148 15.5172C3.02148 15.2317 3.25322 15 3.53875 15H27.3319C27.6174 15 27.8491 15.2317 27.8491 15.5173C27.8491 15.8028 27.6174 16.0345 27.3319 16.0345Z" fill="#965735"/>
<path d="M30.9529 22.2412C30.9529 23.0982 30.2582 23.7929 29.4011 23.7929V28.9654C29.4011 29.5369 28.9382 29.9998 28.3667 29.9998H12.8494C12.2779 29.9998 11.8149 29.5369 11.8149 28.9654V23.7929C10.9579 23.7929 10.2632 23.0983 10.2632 22.2412C10.2632 21.3841 10.9578 20.6895 11.8149 20.6895H29.4011C30.2582 20.6895 30.9529 21.3841 30.9529 22.2412Z" fill="#F09E3E"/>
<path d="M27.5266 23.793C27.5178 23.8028 27.5074 23.8111 27.4986 23.8209C26.0742 26.8209 23.5159 28.7973 21.3398 29.9999H28.3666C28.9381 29.9999 29.4011 29.5369 29.4011 28.9654V23.793H27.5266Z" fill="#F09235"/>
<path d="M21.6425 22.2412C21.6425 23.0982 20.9479 23.7929 20.0908 23.7929V28.9654C20.0908 29.5369 19.6278 29.9998 19.0563 29.9998H12.8494C12.2779 29.9998 11.8149 29.5369 11.8149 28.9654V23.7929C10.9579 23.7929 10.2632 23.0983 10.2632 22.2412C10.2632 21.3841 10.9578 20.6895 11.8149 20.6895H20.0908C20.9479 20.6895 21.6425 21.3841 21.6425 22.2412Z" fill="#F0DBC2"/>
<path d="M27.3318 22.2412H26.2974V23.2757H27.3318V22.2412Z" fill="#D68033"/>
<path d="M24.7454 23.793H23.7109V24.8274H24.7454V23.793Z" fill="#D68033"/>
<path d="M27.8489 26.3794H26.8145V27.4139H27.8489V26.3794Z" fill="#D68033"/>
<path d="M22.6766 27.4136H21.6421V28.448H22.6766V27.4136Z" fill="#D68033"/>
</g>
<defs>
<clipPath id="clip0_1_12228">
<rect width="30" height="30" fill="white" transform="translate(0.952637)"/>
</clipPath>
</defs>
</svg>
