<svg width="18" height="18" viewBox="0 0 18 18" fill="none" xmlns="http://www.w3.org/2000/svg">
<path d="M17.335 9C17.335 9.37583 17.1908 9.73913 16.9214 10.0022C16.6582 10.2716 16.2948 10.4219 15.9188 10.4219H10.2542V16.0844C10.2542 16.4602 10.1039 16.8235 9.83441 17.0866C9.57123 17.3497 9.21406 17.5 8.83809 17.5C8.46213 17.5 8.09869 17.3497 7.83551 17.0866C7.56607 16.8235 7.41568 16.4602 7.41568 16.0844V10.4219H1.75111C1.37514 10.4219 1.0117 10.2716 0.748525 10.0022C0.485348 9.73913 0.334961 9.37583 0.334961 9C0.334961 8.62417 0.485348 8.26713 0.748525 7.99779C1.0117 7.73471 1.37514 7.58438 1.75111 7.58438H7.41568V1.92189C7.41568 1.54606 7.56607 1.18276 7.83551 0.919676C8.09869 0.650332 8.46213 0.5 8.83809 0.5C9.21406 0.5 9.57123 0.650332 9.83441 0.919676C10.1039 1.18276 10.2542 1.54606 10.2542 1.92189V7.58438H15.9188C16.2948 7.58438 16.6582 7.73471 16.9214 7.99779C17.1908 8.26713 17.335 8.62417 17.335 9Z" fill="white"/>
</svg>
