<svg width="30" height="30" viewBox="0 0 30 30" fill="none" xmlns="http://www.w3.org/2000/svg">
<rect opacity="0.1" width="30" height="30" rx="8" fill="#F3603F"/>
<g clip-path="url(#clip0_1_17153)">
<path d="M21.5498 12.9676V12.5498C21.5498 8.92964 18.6206 6 15 6C11.3884 6 8.45015 8.93825 8.45015 12.5498V12.9676C7.01351 13.375 5.91604 14.747 6.00505 16.4054C6.10127 18.1978 7.60486 19.5999 9.37407 19.5999C10.2459 19.5999 10.9528 18.8963 10.9528 18.0239V14.4153C10.9528 13.5894 10.316 12.9085 9.50896 12.8448V12.5499C9.50896 9.52212 11.9722 7.05885 15 7.05885C18.035 7.05885 20.491 9.51453 20.491 12.5499V12.8447C19.6849 12.9076 19.0471 13.5889 19.0471 14.4153V18.0239C19.0471 18.8496 19.6811 19.526 20.491 19.5939C20.491 21.0269 19.369 22.0235 18.1104 22.0235H16.958C16.7462 21.4868 16.2228 21.1058 15.6117 21.1058H14.3882C13.5903 21.1058 12.9412 21.755 12.9412 22.5529C12.9412 23.3508 13.5903 23.9999 14.3882 23.9999H15.6117C16.2228 23.9999 16.7462 23.619 16.958 23.0823H18.1104C20.0069 23.0823 21.5498 21.5392 21.5498 19.6425V19.4689C22.9007 19.0796 23.9166 17.8645 23.9949 16.4054C24.0836 14.7527 22.9915 13.3765 21.5498 12.9676ZM9.89402 14.4153V18.0239C9.89402 18.2913 9.6884 18.5474 9.33316 18.5407C8.12449 18.517 7.12701 17.5541 7.06232 16.3487C6.99028 15.007 8.05295 13.8982 9.38011 13.8982H9.38918C9.66754 13.8993 9.89402 14.1312 9.89402 14.4153ZM15.6117 22.9411H14.3882C14.1742 22.9411 14 22.7669 14 22.5529C14 22.3388 14.1742 22.1646 14.3882 22.1646H15.6117C15.8261 22.1646 16.0005 22.3394 15.9999 22.5539C15.9993 22.7675 15.8254 22.9411 15.6117 22.9411ZM22.9376 16.3487C22.8729 17.5541 21.8755 18.517 20.6668 18.5407C20.3181 18.5477 20.1059 18.297 20.1059 18.0239V14.4153C20.1059 14.1312 20.3324 13.8993 20.6088 13.8982H20.6198C21.9472 13.8982 23.0097 15.0071 22.9376 16.3487Z" fill="#F3603F"/>
<path d="M15.3743 19.1458L17.819 16.7012C18.5805 15.9397 18.5806 14.7071 17.819 13.9455C17.1185 13.245 15.9045 13.1045 15 14.0088C14.1078 13.1168 12.8922 13.2344 12.1811 13.9455C11.4195 14.7071 11.4194 15.9396 12.1811 16.7012L14.6257 19.1458C14.8324 19.3525 15.1676 19.3525 15.3743 19.1458ZM12.9297 14.6942C13.2766 14.3473 13.8411 14.3473 14.188 14.6942L14.6256 15.1318C14.8323 15.3385 15.1676 15.3385 15.3743 15.1318L15.8119 14.6942C16.1589 14.3473 16.7233 14.3472 17.0702 14.6942C17.4179 15.0419 17.418 15.6047 17.0702 15.9525L14.9999 18.0227L12.9297 15.9525C12.582 15.6048 12.582 15.042 12.9297 14.6942Z" fill="#F3603F"/>
</g>
<defs>
<clipPath id="clip0_1_17153">
<rect width="18" height="18" fill="white" transform="translate(6 6)"/>
</clipPath>
</defs>
</svg>
