<svg width="30" height="30" viewBox="0 0 30 30" fill="none" xmlns="http://www.w3.org/2000/svg">
<rect opacity="0.2" width="30" height="30" rx="8" fill="#B0B7C3"/>
<path opacity="0.4" d="M18.0567 7.5H20.5962C21.6479 7.5 22.5001 8.35939 22.5001 9.41997V11.9809C22.5001 13.0415 21.6479 13.9009 20.5962 13.9009H18.0567C17.005 13.9009 16.1528 13.0415 16.1528 11.9809V9.41997C16.1528 8.35939 17.005 7.5 18.0567 7.5Z" fill="#B0B7C3"/>
<path d="M11.9434 16.0991C12.9951 16.0991 13.8473 16.9585 13.8473 18.0191V20.58C13.8473 21.6399 12.9951 22.5 11.9434 22.5H9.40389C8.35219 22.5 7.5 21.6399 7.5 20.58V18.0191C7.5 16.9585 8.35219 16.0991 9.40389 16.0991H11.9434ZM20.5961 16.0991C21.6478 16.0991 22.5 16.9585 22.5 18.0191V20.58C22.5 21.6399 21.6478 22.5 20.5961 22.5H18.0566C17.0049 22.5 16.1527 21.6399 16.1527 20.58V18.0191C16.1527 16.9585 17.0049 16.0991 18.0566 16.0991H20.5961ZM11.9434 7.5C12.9951 7.5 13.8473 8.35939 13.8473 9.41997V11.9809C13.8473 13.0415 12.9951 13.9009 11.9434 13.9009H9.40389C8.35219 13.9009 7.5 13.0415 7.5 11.9809V9.41997C7.5 8.35939 8.35219 7.5 9.40389 7.5H11.9434Z" fill="#B0B7C3"/>
</svg>
