<svg width="31" height="30" viewBox="0 0 31 30" fill="none" xmlns="http://www.w3.org/2000/svg">
<rect opacity="0.1" width="30.6278" height="30" rx="8" fill="#F3603F"/>
<path d="M21.829 17.4052L20.4508 16.0478V12.703C20.4691 11.4609 20.0281 10.2543 19.209 9.30592C18.39 8.35754 17.2483 7.73146 15.9947 7.54327C15.2672 7.44943 14.5277 7.50863 13.8254 7.71694C13.1231 7.92525 12.4742 8.27787 11.922 8.75127C11.3699 9.22467 10.9272 9.80797 10.6234 10.4622C10.3197 11.1165 10.1618 11.8267 10.1605 12.5455V16.0478L8.78234 17.4052C8.60923 17.5776 8.49184 17.7961 8.44484 18.0335C8.39784 18.2709 8.42332 18.5166 8.5181 18.7398C8.61287 18.9631 8.77273 19.1541 8.97769 19.2888C9.18266 19.4236 9.42363 19.4962 9.67049 19.4975H12.2431V19.7525C12.2788 20.5139 12.6213 21.2303 13.1953 21.7448C13.7694 22.2593 14.5283 22.5299 15.3057 22.4974C16.0831 22.5299 16.8419 22.2593 17.416 21.7448C17.9901 21.2303 18.3325 20.5139 18.3682 19.7525V19.4975H20.9408C21.1877 19.4962 21.4287 19.4236 21.6336 19.2888C21.8386 19.1541 21.9984 18.9631 22.0932 18.7398C22.188 18.5166 22.2135 18.2709 22.1665 18.0335C22.1195 17.7961 22.0021 17.5776 21.829 17.4052ZM16.837 19.7525C16.7945 20.1133 16.6116 20.444 16.3263 20.6759C16.0411 20.9079 15.6755 21.023 15.3057 20.9975C14.9359 21.023 14.5703 20.9079 14.285 20.6759C13.9997 20.444 13.8168 20.1133 13.7744 19.7525V19.4975H16.837V19.7525ZM10.3366 17.9976L11.2401 17.1127C11.3834 16.9732 11.4971 16.8072 11.5746 16.6244C11.6521 16.4417 11.692 16.2457 11.6918 16.0478V12.5455C11.6922 12.0395 11.8031 11.5396 12.017 11.0791C12.231 10.6186 12.543 10.2083 12.9321 9.87563C13.3161 9.53491 13.771 9.27998 14.2654 9.12847C14.7598 8.97697 15.282 8.93251 15.7957 8.99818C16.6811 9.13901 17.4848 9.5884 18.0588 10.2636C18.6328 10.9389 18.9385 11.7945 18.9195 12.673V16.0478C18.9183 16.2452 18.957 16.4408 19.0332 16.6236C19.1094 16.8063 19.2217 16.9725 19.3636 17.1127L20.2747 17.9976H10.3366Z" fill="#F3603F"/>
</svg>
