<svg width="30" height="30" viewBox="0 0 30 30" fill="none" xmlns="http://www.w3.org/2000/svg">
<rect opacity="0.1" width="30" height="30" rx="10" fill="#505050"/>
<path d="M15.705 22.5H14.2875C13.9533 22.5 13.6328 22.3672 13.3965 22.131C13.1602 21.8947 13.0275 21.5742 13.0275 21.24V20.4225C13.0234 20.3743 13.0058 20.3283 12.9766 20.2898C12.9473 20.2513 12.9078 20.2219 12.8625 20.205C12.8166 20.1756 12.7633 20.16 12.7087 20.16C12.6542 20.16 12.6009 20.1756 12.555 20.205L12 20.805C11.8836 20.9222 11.7451 21.0153 11.5926 21.0788C11.4401 21.1423 11.2765 21.175 11.1112 21.175C10.946 21.175 10.7824 21.1423 10.6299 21.0788C10.4774 21.0153 10.3389 20.9222 10.2225 20.805L9.195 19.8C9.07606 19.6838 8.98161 19.545 8.9172 19.3917C8.85279 19.2384 8.81974 19.0738 8.82 18.9075C8.82048 18.5674 8.95526 18.2412 9.195 18L9.75 17.445C9.77679 17.4037 9.79105 17.3555 9.79105 17.3062C9.79105 17.257 9.77679 17.2088 9.75 17.1675C9.705 17.055 9.63 16.9725 9.525 16.9725H8.76C8.42514 16.9705 8.10467 16.8361 7.86859 16.5986C7.6325 16.3611 7.49999 16.0399 7.5 15.705V14.2875C7.5 13.9533 7.63275 13.6328 7.86905 13.3965C8.10534 13.1602 8.42583 13.0275 8.76 13.0275H9.5775C9.62566 13.0234 9.67168 13.0058 9.71019 12.9766C9.7487 12.9473 9.77811 12.9078 9.795 12.8625C9.8244 12.8166 9.84003 12.7633 9.84003 12.7087C9.84003 12.6542 9.8244 12.6009 9.795 12.555L9.195 12C9.07776 11.8836 8.98472 11.7451 8.92122 11.5926C8.85773 11.4401 8.82504 11.2765 8.82504 11.1112C8.82504 10.946 8.85773 10.7824 8.92122 10.6299C8.98472 10.4774 9.07776 10.3389 9.195 10.2225L10.2 9.195C10.315 9.07663 10.4526 8.98247 10.6046 8.91807C10.7566 8.85367 10.9199 8.82032 11.085 8.82C11.2547 8.81926 11.4228 8.85199 11.5799 8.91634C11.7369 8.98069 11.8796 9.07539 12 9.195L12.555 9.75C12.5963 9.77679 12.6445 9.79105 12.6937 9.79105C12.743 9.79105 12.7912 9.77679 12.8325 9.75C12.945 9.705 13.0275 9.63 13.0275 9.525V8.76C13.0295 8.42514 13.1639 8.10467 13.4014 7.86859C13.6389 7.6325 13.9601 7.49999 14.295 7.5H15.75C16.0842 7.5 16.4047 7.63275 16.641 7.86905C16.8772 8.10534 17.01 8.42583 17.01 8.76V9.5775C17.0141 9.62566 17.0317 9.67168 17.0609 9.71019C17.0902 9.7487 17.1297 9.77811 17.175 9.795C17.2209 9.8244 17.2742 9.84003 17.3287 9.84003C17.3833 9.84003 17.4366 9.8244 17.4825 9.795L18 9.195C18.1164 9.07776 18.2549 8.98472 18.4074 8.92122C18.5599 8.85773 18.7235 8.82504 18.8887 8.82504C19.054 8.82504 19.2176 8.85773 19.3701 8.92122C19.5226 8.98472 19.6611 9.07776 19.7775 9.195L20.805 10.2C20.9236 10.3164 21.0178 10.4553 21.0822 10.6086C21.1466 10.7618 21.1798 10.9263 21.18 11.0925C21.1836 11.2615 21.1522 11.4294 21.0876 11.5856C21.0231 11.7418 20.9268 11.8829 20.805 12L20.25 12.555C20.2232 12.5963 20.2089 12.6445 20.2089 12.6937C20.2089 12.743 20.2232 12.7912 20.25 12.8325C20.295 12.945 20.37 13.0275 20.475 13.0275H21.2925C21.6182 13.0429 21.9253 13.1833 22.1502 13.4193C22.3751 13.6554 22.5004 13.969 22.5 14.295V15.75C22.5 16.0842 22.3672 16.4047 22.131 16.641C21.8947 16.8772 21.5742 17.01 21.24 17.01H20.4225C20.3743 17.0141 20.3283 17.0317 20.2898 17.0609C20.2513 17.0902 20.2219 17.1297 20.205 17.175C20.1782 17.2163 20.1639 17.2645 20.1639 17.3137C20.1639 17.363 20.1782 17.4112 20.205 17.4525L20.7825 18.03C20.8997 18.1464 20.9928 18.2849 21.0563 18.4374C21.1198 18.5899 21.1525 18.7535 21.1525 18.9187C21.1525 19.084 21.1198 19.2476 21.0563 19.4001C20.9928 19.5526 20.8997 19.6911 20.7825 19.8075L19.8 20.805C19.6849 20.9234 19.5474 21.0175 19.3954 21.0819C19.2434 21.1463 19.0801 21.1797 18.915 21.18C18.5801 21.1756 18.26 21.0411 18.0225 20.805L17.445 20.25C17.4037 20.2232 17.3555 20.2089 17.3062 20.2089C17.257 20.2089 17.2088 20.2232 17.1675 20.25C17.055 20.295 16.9725 20.37 16.9725 20.475V21.2925C16.9571 21.6182 16.8167 21.9253 16.5807 22.1502C16.3446 22.3751 16.031 22.5004 15.705 22.5ZM14.5275 21H15.4725V20.4225C15.4757 20.0766 15.5815 19.7395 15.7764 19.4538C15.9713 19.1681 16.2466 18.9466 16.5675 18.8175C16.8897 18.6767 17.2465 18.635 17.5925 18.6978C17.9384 18.7606 18.2578 18.9249 18.51 19.17L18.915 19.575L19.575 18.915L19.17 18.5025C18.9265 18.2542 18.7623 17.9391 18.6982 17.5972C18.6341 17.2554 18.673 16.9022 18.81 16.5825C18.9403 16.263 19.1622 15.9893 19.4479 15.7958C19.7335 15.6022 20.07 15.4976 20.415 15.495H21V14.5275H20.4225C20.0766 14.5243 19.7395 14.4185 19.4538 14.2236C19.1681 14.0287 18.9466 13.7534 18.8175 13.4325C18.6767 13.1103 18.635 12.7535 18.6978 12.4075C18.7606 12.0616 18.9249 11.7422 19.17 11.49L19.575 11.085L18.915 10.425L18.5025 10.83C18.2503 11.0604 17.9375 11.2139 17.601 11.2725C17.2645 11.331 16.9182 11.2922 16.603 11.1606C16.2878 11.029 16.0167 10.8101 15.8218 10.5296C15.6268 10.2492 15.516 9.91882 15.5025 9.5775V9H14.5275V9.5775C14.5243 9.92336 14.4185 10.2605 14.2236 10.5462C14.0287 10.8319 13.7534 11.0534 13.4325 11.1825C13.1103 11.3233 12.7535 11.365 12.4075 11.3022C12.0616 11.2394 11.7422 11.0751 11.49 10.83L11.085 10.425L10.425 11.085L10.83 11.4975C11.0604 11.7497 11.2139 12.0625 11.2725 12.399C11.331 12.7355 11.2922 13.0818 11.1606 13.397C11.029 13.7122 10.8101 13.9833 10.5296 14.1782C10.2492 14.3732 9.91882 14.484 9.5775 14.4975H9V15.4425H9.5775C9.92336 15.4457 10.2605 15.5515 10.5462 15.7464C10.8319 15.9413 11.0534 16.2166 11.1825 16.5375C11.3233 16.8597 11.365 17.2165 11.3022 17.5625C11.2394 17.9084 11.0751 18.2278 10.83 18.48L10.425 18.885L11.085 19.545L11.4975 19.14C11.7497 18.9096 12.0625 18.7561 12.399 18.6975C12.7355 18.639 13.0818 18.6778 13.397 18.8094C13.7122 18.941 13.9833 19.1599 14.1782 19.4404C14.3732 19.7208 14.484 20.0512 14.4975 20.3925L14.5275 21Z" fill="#505050"/>
<path d="M15 17.625C14.4808 17.625 13.9733 17.471 13.5416 17.1826C13.11 16.8942 12.7735 16.4842 12.5748 16.0045C12.3761 15.5249 12.3242 14.9971 12.4254 14.4879C12.5267 13.9787 12.7767 13.511 13.1438 13.1438C13.511 12.7767 13.9787 12.5267 14.4879 12.4254C14.9971 12.3242 15.5249 12.3761 16.0045 12.5748C16.4842 12.7735 16.8942 13.11 17.1826 13.5416C17.471 13.9733 17.625 14.4808 17.625 15C17.625 15.6962 17.3484 16.3639 16.8562 16.8562C16.3639 17.3484 15.6962 17.625 15 17.625ZM15 13.875C14.7775 13.875 14.56 13.941 14.375 14.0646C14.19 14.1882 14.0458 14.3639 13.9606 14.5695C13.8755 14.775 13.8532 15.0012 13.8966 15.2195C13.94 15.4377 14.0472 15.6382 14.2045 15.7955C14.3618 15.9528 14.5623 16.06 14.7805 16.1034C14.9988 16.1468 15.225 16.1245 15.4305 16.0394C15.6361 15.9542 15.8118 15.81 15.9354 15.625C16.059 15.44 16.125 15.2225 16.125 15C16.125 14.7016 16.0065 14.4155 15.7955 14.2045C15.5845 13.9935 15.2984 13.875 15 13.875Z" fill="#505050"/>
</svg>
