<svg width="19" height="21" viewBox="0 0 19 21" fill="none" xmlns="http://www.w3.org/2000/svg">
<path d="M18.1592 5.60019C18.1592 7.03236 17.5903 8.40587 16.5776 9.41857C15.5649 10.4313 14.1913 11.0002 12.7592 11.0002C11.327 11.0002 9.9535 10.4313 8.9408 9.41857C7.92811 8.40587 7.35918 7.03236 7.35918 5.60019C7.35918 4.16803 7.92811 2.79451 8.9408 1.78182C9.9535 0.769122 11.327 0.200195 12.7592 0.200195C14.1913 0.200195 15.5649 0.769122 16.5776 1.78182C17.5903 2.79451 18.1592 4.16803 18.1592 5.60019ZM13.3592 3.20019C13.3592 3.04106 13.296 2.88845 13.1834 2.77593C13.0709 2.66341 12.9183 2.60019 12.7592 2.60019C12.6001 2.60019 12.4474 2.66341 12.3349 2.77593C12.2224 2.88845 12.1592 3.04106 12.1592 3.20019V5.00019H10.3592C10.2001 5.00019 10.0474 5.06341 9.93492 5.17593C9.82239 5.28845 9.75918 5.44106 9.75918 5.60019C9.75918 5.75932 9.82239 5.91194 9.93492 6.02446C10.0474 6.13698 10.2001 6.20019 10.3592 6.20019H12.1592V8.00019C12.1592 8.15932 12.2224 8.31194 12.3349 8.42446C12.4474 8.53698 12.6001 8.60019 12.7592 8.60019C12.9183 8.60019 13.0709 8.53698 13.1834 8.42446C13.296 8.31194 13.3592 8.15932 13.3592 8.00019V6.20019H15.1592C15.3183 6.20019 15.4709 6.13698 15.5834 6.02446C15.696 5.91194 15.7592 5.75932 15.7592 5.60019C15.7592 5.44106 15.696 5.28845 15.5834 5.17593C15.4709 5.06341 15.3183 5.00019 15.1592 5.00019H13.3592V3.20019ZM13.3592 18.8218V12.1738C13.7652 12.1371 14.1669 12.0628 14.5592 11.9518V20.0002C14.5591 20.1108 14.5284 20.2193 14.4705 20.3135C14.4127 20.4078 14.3299 20.4843 14.2313 20.5344C14.1327 20.5846 14.0221 20.6065 13.9119 20.5978C13.8016 20.5891 13.6959 20.55 13.6064 20.485L7.35918 15.9418L1.11198 20.485C1.0225 20.55 0.916781 20.5891 0.806503 20.5978C0.696224 20.6065 0.58568 20.5846 0.487086 20.5344C0.388492 20.4843 0.305686 20.4078 0.247819 20.3135C0.189951 20.2193 0.159275 20.1108 0.15918 20.0002V4.40019C0.15918 3.60455 0.47525 2.84148 1.03786 2.27887C1.60047 1.71627 2.36353 1.4002 3.15918 1.4002H7.66758C7.36195 1.77036 7.09759 2.17273 6.87918 2.60019H3.15918C2.68179 2.60019 2.22395 2.78984 1.88639 3.1274C1.54882 3.46497 1.35918 3.92281 1.35918 4.40019V18.8218L7.00638 14.7154C7.10891 14.6409 7.23242 14.6007 7.35918 14.6007C7.48594 14.6007 7.60945 14.6409 7.71198 14.7154L13.3592 18.8218Z" fill="#A5A7B2"/>
</svg>
