<svg width="24" height="24" viewBox="0 0 24 24" fill="none" xmlns="http://www.w3.org/2000/svg">
<path d="M11.6491 4.05357L12.5183 4.92278L13.3875 4.05357C13.9574 3.47865 14.6353 3.02196 15.3822 2.70971C16.129 2.39747 16.9302 2.23582 17.7398 2.23405C18.5493 2.23227 19.3512 2.39041 20.0994 2.69938C20.8477 3.00836 21.5275 3.46207 22.0999 4.03449C22.6723 4.60691 23.1261 5.28675 23.435 6.03499C23.744 6.78323 23.9021 7.58513 23.9004 8.39465C23.8986 9.20417 23.7369 10.0054 23.4247 10.7522C23.1125 11.4991 22.6558 12.177 22.0808 12.7469L13.3888 21.4402C13.2746 21.5545 13.139 21.6452 12.9897 21.707C12.8405 21.7689 12.6805 21.8008 12.5189 21.8008C12.3574 21.8008 12.1974 21.7689 12.0481 21.707C11.8989 21.6452 11.7633 21.5545 11.6491 21.4402L2.95581 12.7481C2.37308 12.18 1.90894 11.5019 1.59032 10.7531C1.2717 10.0042 1.10495 9.19955 1.09974 8.38576C1.09452 7.57196 1.25095 6.76523 1.55994 6.01237C1.86894 5.2595 2.32435 4.57548 2.89976 3.99999C3.47517 3.42449 4.15913 2.96899 4.91195 2.65988C5.66478 2.35078 6.47149 2.19424 7.28528 2.19934C8.09908 2.20444 8.90376 2.37108 9.65265 2.68959C10.4015 3.0081 11.0797 3.47214 11.6479 4.0548L11.6491 4.05357Z" fill="#F3603F"/>
</svg>
