<svg width="31" height="30" viewBox="0 0 31 30" fill="none" xmlns="http://www.w3.org/2000/svg">
<path d="M24.5542 23.5415L15.9526 18.1089L24.5542 12.6763H25.9124C26.1624 12.6763 26.3651 12.879 26.3651 13.129V23.0887C26.3651 23.3388 26.1624 23.5415 25.9124 23.5415H24.5542Z" fill="#99583C"/>
<path d="M5.54004 23.0887V21.7306L6.44547 20.8252L5.54004 19.9197V13.129C5.54004 12.879 5.74274 12.6763 5.99276 12.6763H24.5541V23.5415H5.99276C5.74274 23.5415 5.54004 23.3388 5.54004 23.0887Z" fill="#BA6541"/>
<path d="M24.5542 10.8652L15.9526 5.43259L24.5542 0H25.9124C26.1624 0 26.3651 0.202696 26.3651 0.452716V1.81086L25.4597 2.7163L26.3651 3.62173V10.4125C26.3651 10.6625 26.1624 10.8652 25.9124 10.8652H24.5542Z" fill="#99583C"/>
<path d="M5.54004 10.4125V0.452716C5.54004 0.202696 5.74274 0 5.99276 0H24.5541V10.8652H5.99276C5.74274 10.8652 5.54004 10.6625 5.54004 10.4125Z" fill="#BA6541"/>
<path d="M23.6488 14.4868H21.8379V16.2977H23.6488C24.1488 16.2977 24.5542 15.8923 24.5542 15.3922C24.5542 14.8922 24.1488 14.4868 23.6488 14.4868Z" fill="#FFD787"/>
<path d="M22.7431 15.3922C22.7431 14.8922 22.3378 14.4868 21.8377 14.4868H20.9323C20.4322 14.4868 20.0269 14.8922 20.0269 15.3922C20.0269 15.8923 20.4322 16.2977 20.9323 16.2977H21.8377C22.3378 16.2977 22.7431 15.8923 22.7431 15.3922Z" fill="#FFE9C4"/>
<path d="M20.9324 18.1089H19.1216V19.9198H20.9324C21.4325 19.9198 21.8379 19.5144 21.8379 19.0143C21.8379 18.5143 21.4325 18.1089 20.9324 18.1089Z" fill="#FFD787"/>
<path d="M20.0268 19.0143C20.0268 18.5143 19.6215 18.1089 19.1214 18.1089H18.216C17.7159 18.1089 17.3105 18.5143 17.3105 19.0143C17.3105 19.5144 17.7159 19.9198 18.216 19.9198H19.1214C19.6215 19.9198 20.0268 19.5144 20.0268 19.0143Z" fill="#FFE9C4"/>
<path d="M8.25667 19.9194H6.4458V21.7303H8.25667C8.75671 21.7303 9.1621 21.3249 9.1621 20.8249C9.1621 20.3248 8.75671 19.9194 8.25667 19.9194Z" fill="#FFD787"/>
<path d="M6.44547 19.9194H5.54004V21.7303H6.44547C6.94551 21.7303 7.3509 21.3249 7.3509 20.8249C7.3509 20.3248 6.94551 19.9194 6.44547 19.9194Z" fill="#FFE9C4"/>
<path d="M10.973 7.24365H9.16211V9.05452H10.973C11.473 9.05452 11.8784 8.64913 11.8784 8.14909C11.8784 7.64905 11.473 7.24365 10.973 7.24365Z" fill="#FFD787"/>
<path d="M10.0674 8.14909C10.0674 7.64905 9.66198 7.24365 9.16194 7.24365H8.25651C7.75647 7.24365 7.35107 7.64905 7.35107 8.14909C7.35107 8.64913 7.75647 9.05452 8.25651 9.05452H9.16194C9.66198 9.05452 10.0674 8.64913 10.0674 8.14909Z" fill="#FFE9C4"/>
<path d="M24.5544 1.81104L23.6489 2.71647L24.5544 3.6219H26.3652V1.81104H24.5544Z" fill="#FFD787"/>
<path d="M23.6486 1.81104C23.1486 1.81104 22.7432 2.21643 22.7432 2.71647C22.7432 3.21651 23.1486 3.6219 23.6486 3.6219H24.554V1.81104H23.6486Z" fill="#FFE9C4"/>
<path d="M10.0674 15.3926L10.9728 18.1089H12.7837C13.7838 18.1089 14.5945 17.2981 14.5945 16.298L10.0674 15.3926Z" fill="#10B25F"/>
<path d="M9.16194 18.1089H10.9728C11.9729 18.1089 12.7837 17.2981 12.7837 16.298L10.0674 15.3926L7.35107 16.298C7.35107 17.2981 8.1618 18.1089 9.16194 18.1089Z" fill="#5CC563"/>
<path d="M12.7835 14.4868H10.9727L12.7835 16.2977H14.5944C14.5944 15.2975 13.7836 14.4868 12.7835 14.4868Z" fill="#5CC563"/>
<path d="M10.9728 14.4868H9.16194C8.1618 14.4868 7.35107 15.2975 7.35107 16.2977H12.7837C12.7837 15.2975 11.9729 14.4868 10.9728 14.4868Z" fill="#83D47F"/>
<path d="M10.0674 2.71631L10.9728 5.4326H12.7837C13.7838 5.4326 14.5945 4.62188 14.5945 3.62174L10.0674 2.71631Z" fill="#10B25F"/>
<path d="M9.16194 5.4326H10.9728C11.9729 5.4326 12.7837 4.62188 12.7837 3.62174L10.0674 2.71631L7.35107 3.62174C7.35107 4.62188 8.1618 5.4326 9.16194 5.4326Z" fill="#5CC563"/>
<path d="M12.7835 1.81104H10.9727L12.7835 3.6219H14.5944C14.5944 2.62176 13.7836 1.81104 12.7835 1.81104Z" fill="#5CC563"/>
<path d="M10.9728 1.81104H9.16194C8.1618 1.81104 7.35107 2.62176 7.35107 3.6219H12.7837C12.7837 2.62176 11.9729 1.81104 10.9728 1.81104Z" fill="#83D47F"/>
<path d="M20.0269 6.33789L20.9323 9.05419H22.7432C23.7432 9.05419 24.554 8.24347 24.554 7.24332L20.0269 6.33789Z" fill="#10B25F"/>
<path d="M19.1214 9.05419H20.9323C21.9324 9.05419 22.7431 8.24347 22.7431 7.24332L20.0268 6.33789L17.3105 7.24332C17.3105 8.24347 18.1213 9.05419 19.1214 9.05419Z" fill="#5CC563"/>
<path d="M22.7435 5.43262H20.9326L22.7435 7.24348H24.5544C24.5544 6.24334 23.7436 5.43262 22.7435 5.43262Z" fill="#5CC563"/>
<path d="M20.9323 5.43262H19.1214C18.1213 5.43262 17.3105 6.24334 17.3105 7.24348H22.7431C22.7431 6.24334 21.9324 5.43262 20.9323 5.43262Z" fill="#83D47F"/>
<path d="M3.66895 27.1628C4.82838 27.1628 5.94025 27.6236 6.75973 28.4438L7.51866 29.2033C8.02812 29.7132 8.71939 29.9997 9.44023 29.9997H22.4652C23.186 29.9997 23.8772 29.7132 24.3868 29.2033L25.1457 28.4438C25.965 27.6236 27.0769 27.1628 28.2363 27.1628V26.2573H3.66895V27.1628Z" fill="#CBE2FF"/>
<path d="M30.0472 25.3521H28.2363V27.1629H30.0472C30.5472 27.1629 30.9526 26.7575 30.9526 26.2575C30.9526 25.7574 30.5472 25.3521 30.0472 25.3521Z" fill="#CBE2FF"/>
<path d="M29.1418 26.2575C29.1418 25.7574 28.7364 25.3521 28.2363 25.3521H1.85807C1.35803 25.3521 0.952637 25.7574 0.952637 26.2575C0.952637 26.7575 1.35803 27.1629 1.85807 27.1629H28.2363C28.7364 27.1629 29.1418 26.7575 29.1418 26.2575Z" fill="#E1EEFF"/>
<path d="M10.9727 22.1828C11.2228 22.1828 11.4255 21.9801 11.4255 21.7301C11.4255 21.48 11.2228 21.2773 10.9727 21.2773C10.7227 21.2773 10.52 21.48 10.52 21.7301C10.52 21.9801 10.7227 22.1828 10.9727 22.1828Z" fill="#99583C"/>
<path d="M12.7838 20.3722C13.0338 20.3722 13.2365 20.1695 13.2365 19.9195C13.2365 19.6695 13.0338 19.4668 12.7838 19.4668C12.5337 19.4668 12.3311 19.6695 12.3311 19.9195C12.3311 20.1695 12.5337 20.3722 12.7838 20.3722Z" fill="#99583C"/>
<path d="M20.9327 22.1828C21.1827 22.1828 21.3854 21.9801 21.3854 21.7301C21.3854 21.48 21.1827 21.2773 20.9327 21.2773C20.6827 21.2773 20.48 21.48 20.48 21.7301C20.48 21.9801 20.6827 22.1828 20.9327 22.1828Z" fill="#99583C"/>
<path d="M19.1217 2.26334C19.3717 2.26334 19.5744 2.06065 19.5744 1.81063C19.5744 1.5606 19.3717 1.35791 19.1217 1.35791C18.8716 1.35791 18.6689 1.5606 18.6689 1.81063C18.6689 2.06065 18.8716 2.26334 19.1217 2.26334Z" fill="#99583C"/>
<path d="M20.9327 4.07438C21.1827 4.07438 21.3854 3.87169 21.3854 3.62166C21.3854 3.37163 21.1827 3.16895 20.9327 3.16895C20.6827 3.16895 20.48 3.37163 20.48 3.62166C20.48 3.87169 20.6827 4.07438 20.9327 4.07438Z" fill="#99583C"/>
</svg>
