<svg width="35" height="22" viewBox="0 0 35 22" fill="none" xmlns="http://www.w3.org/2000/svg">
<path d="M33.0352 4.31966C31.5835 1.34758 28.1823 -0.122917 25.0226 0.855313L24.9978 0.863016C20.1655 2.35908 14.9937 2.35908 10.1614 0.863016L10.1366 0.855313C6.9769 -0.122917 3.57571 1.34765 2.12393 4.31966C0.0648087 8.53506 0.0648087 13.4645 2.12393 17.6799C3.57571 20.6519 6.9769 22.1224 10.1366 21.1442L10.1614 21.1365C14.9937 19.6404 20.1655 19.6404 24.9978 21.1365L25.0226 21.1442C28.1823 22.1224 31.5835 20.6519 33.0352 17.6799C35.0944 13.4645 35.0944 8.53506 33.0352 4.31966Z" fill="#69CB3A"/>
<path d="M33.0353 4.31966C32.1276 2.46128 30.4577 1.19 28.5612 0.737305C29.2726 1.32845 29.8706 2.07459 30.2989 2.95142C32.3581 7.16682 32.3581 12.0962 30.2989 16.3116C28.8472 19.2836 25.446 20.7542 22.2863 19.776L22.2615 19.7683C17.4291 18.2722 12.2574 18.2722 7.42511 19.7683L7.40027 19.776C6.21625 20.1425 4.99836 20.1652 3.86182 19.894C5.56175 21.3064 7.90921 21.8338 10.1367 21.1442L10.1615 21.1365C14.9938 19.6404 20.1656 19.6404 24.9979 21.1365L25.0227 21.1442C28.1824 22.1224 31.5836 20.6519 33.0353 17.6799C35.0945 13.4645 35.0945 8.53506 33.0353 4.31966Z" fill="#69CB3A"/>
<path d="M33.0353 4.31966C32.1276 2.46128 30.4577 1.19 28.5612 0.737305C29.2726 1.32845 29.8706 2.07459 30.2989 2.95142C32.3581 7.16682 32.3581 12.0962 30.2989 16.3116C28.8472 19.2836 25.446 20.7542 22.2863 19.776L22.2615 19.7683C17.4291 18.2722 12.2574 18.2722 7.42511 19.7683L7.40027 19.776C6.21625 20.1425 4.99836 20.1652 3.86182 19.894C5.56175 21.3064 7.90921 21.8338 10.1367 21.1442L10.1615 21.1365C14.9938 19.6404 20.1656 19.6404 24.9979 21.1365L25.0227 21.1442C28.1824 22.1224 31.5836 20.6519 33.0353 17.6799C35.0945 13.4645 35.0945 8.53506 33.0353 4.31966Z" fill="black" fill-opacity="0.1"/>
<path d="M23.1195 15.1535C19.4368 15.552 15.7218 15.552 12.0391 15.1535C11.4811 15.0931 11.0347 14.6624 10.9544 14.1069L10.8961 13.7042C10.6368 11.9105 10.6368 10.0888 10.8961 8.29507L10.9544 7.89238C11.0347 7.33683 11.4811 6.90618 12.0391 6.84575C15.7218 6.44725 19.4368 6.44725 23.1195 6.84575C23.6776 6.90612 24.1239 7.33683 24.2042 7.89238L24.2625 8.29507C24.5218 10.0888 24.5218 11.9105 24.2625 13.7042L24.2042 14.1069C24.1239 14.6624 23.6776 15.0931 23.1195 15.1535Z" fill="#69CB3A"/>
<path d="M23.1195 15.1535C19.4368 15.552 15.7218 15.552 12.0391 15.1535C11.4811 15.0931 11.0347 14.6624 10.9544 14.1069L10.8961 13.7042C10.6368 11.9105 10.6368 10.0888 10.8961 8.29507L10.9544 7.89238C11.0347 7.33683 11.4811 6.90618 12.0391 6.84575C15.7218 6.44725 19.4368 6.44725 23.1195 6.84575C23.6776 6.90612 24.1239 7.33683 24.2042 7.89238L24.2625 8.29507C24.5218 10.0888 24.5218 11.9105 24.2625 13.7042L24.2042 14.1069C24.1239 14.6624 23.6776 15.0931 23.1195 15.1535Z" fill="white" fill-opacity="0.3"/>
<path d="M33.2128 11.4901C33.2128 11.2068 32.9831 10.9771 32.6997 10.9771C32.4163 10.9771 32.1866 11.2068 32.1866 11.4901C32.1866 13.4071 31.7419 15.3308 30.9006 17.0532C30.2069 18.4733 28.7382 19.3908 27.1589 19.3908C26.7429 19.3908 26.3286 19.3278 25.927 19.2035L25.846 19.1784C22.7731 18.2341 19.4975 18.2463 16.3733 19.2136L10.1367 21.1444L10.1616 21.1367C12.4859 20.4172 14.8888 20.0438 17.2946 20.0164C20.0325 19.2906 22.8714 19.3379 25.5446 20.1593L25.6236 20.1837C26.1234 20.3385 26.6399 20.417 27.1588 20.417C29.1274 20.417 30.958 19.2734 31.8225 17.5037C32.732 15.6417 33.2128 13.5622 33.2128 11.4901Z" fill="#69CB3A"/>
<path d="M33.2128 11.4901C33.2128 11.2068 32.9831 10.9771 32.6997 10.9771C32.4163 10.9771 32.1866 11.2068 32.1866 11.4901C32.1866 13.4071 31.7419 15.3308 30.9006 17.0532C30.2069 18.4733 28.7382 19.3908 27.1589 19.3908C26.7429 19.3908 26.3286 19.3278 25.927 19.2035L25.846 19.1784C22.7731 18.2341 19.4975 18.2463 16.3733 19.2136L10.1367 21.1444L10.1616 21.1367C12.4859 20.4172 14.8888 20.0438 17.2946 20.0164C20.0325 19.2906 22.8714 19.3379 25.5446 20.1593L25.6236 20.1837C26.1234 20.3385 26.6399 20.417 27.1588 20.417C29.1274 20.417 30.958 19.2734 31.8225 17.5037C32.732 15.6417 33.2128 13.5622 33.2128 11.4901Z" fill="white" fill-opacity="0.3"/>
<path d="M21.3548 19.5063C20.2024 19.1965 19.0335 18.9705 17.8568 18.8281C17.3595 18.933 16.8645 19.0615 16.3733 19.2135L10.1367 21.1444L10.1616 21.1367C12.4859 20.4171 14.8888 20.0437 17.2946 20.0163C18.6343 19.6612 19.998 19.4912 21.3548 19.5063Z" fill="#69CB3A"/>
<path d="M21.3548 19.5063C20.2024 19.1965 19.0335 18.9705 17.8568 18.8281C17.3595 18.933 16.8645 19.0615 16.3733 19.2135L10.1367 21.1444L10.1616 21.1367C12.4859 20.4171 14.8888 20.0437 17.2946 20.0163C18.6343 19.6612 19.998 19.4912 21.3548 19.5063Z" fill="white" fill-opacity="0.3"/>
<path d="M33.2128 11.4901C33.2128 11.2068 32.9831 10.9771 32.6997 10.9771C32.4164 10.9771 32.1867 11.2068 32.1867 11.4901C32.1867 13.4071 31.742 15.3308 30.9006 17.0532C30.2169 18.453 28.78 19.3646 27.2264 19.3902C26.5571 19.7185 25.8344 19.9351 25.0884 20.0271C25.241 20.0687 25.3931 20.1128 25.5447 20.1593L25.6237 20.1837C26.1235 20.3385 26.64 20.417 27.1589 20.417C29.1275 20.417 30.9581 19.2734 31.8226 17.5037C32.7321 15.6417 33.2128 13.5622 33.2128 11.4901Z" fill="#69CB3A"/>
<path d="M33.2128 11.4901C33.2128 11.2068 32.9831 10.9771 32.6997 10.9771C32.4164 10.9771 32.1867 11.2068 32.1867 11.4901C32.1867 13.4071 31.742 15.3308 30.9006 17.0532C30.2169 18.453 28.78 19.3646 27.2264 19.3902C26.5571 19.7185 25.8344 19.9351 25.0884 20.0271C25.241 20.0687 25.3931 20.1128 25.5447 20.1593L25.6237 20.1837C26.1235 20.3385 26.64 20.417 27.1589 20.417C29.1275 20.417 30.9581 19.2734 31.8226 17.5037C32.7321 15.6417 33.2128 13.5622 33.2128 11.4901Z" fill="white" fill-opacity="0.3"/>
<path d="M9.28823 2.82882C12.361 3.77305 15.6366 3.76089 18.7609 2.79362L24.9975 0.862793C22.6745 1.58197 20.273 1.95538 17.8685 1.98307C15.1216 2.71686 12.2722 2.67223 9.58958 1.84786L9.51049 1.82343C9.01072 1.6687 8.49421 1.59021 7.97531 1.59021C6.0067 1.59021 4.17614 2.73379 3.31167 4.50352C2.40217 6.36548 1.92139 8.44493 1.92139 10.5171C1.92139 10.8004 2.15109 11.0301 2.43444 11.0301C2.7178 11.0301 2.9475 10.8004 2.9475 10.5171C2.9475 8.60012 3.39222 6.67639 4.23359 4.95395C4.9272 3.53392 6.39591 2.61638 7.97525 2.61638C8.39122 2.61638 8.80559 2.6794 9.20715 2.80371L9.28823 2.82882Z" fill="#69CB3A"/>
<path d="M9.28823 2.82882C12.361 3.77305 15.6366 3.76089 18.7609 2.79362L24.9975 0.862793C22.6745 1.58197 20.273 1.95538 17.8685 1.98307C15.1216 2.71686 12.2722 2.67223 9.58958 1.84786L9.51049 1.82343C9.01072 1.6687 8.49421 1.59021 7.97531 1.59021C6.0067 1.59021 4.17614 2.73379 3.31167 4.50352C2.40217 6.36548 1.92139 8.44493 1.92139 10.5171C1.92139 10.8004 2.15109 11.0301 2.43444 11.0301C2.7178 11.0301 2.9475 10.8004 2.9475 10.5171C2.9475 8.60012 3.39222 6.67639 4.23359 4.95395C4.9272 3.53392 6.39591 2.61638 7.97525 2.61638C8.39122 2.61638 8.80559 2.6794 9.20715 2.80371L9.28823 2.82882Z" fill="white" fill-opacity="0.3"/>
<path d="M21.4603 10.4534H13.6991C13.4157 10.4534 13.186 10.2237 13.186 9.9403C13.186 9.65695 13.4157 9.42725 13.6991 9.42725H21.4603C21.7436 9.42725 21.9733 9.65695 21.9733 9.9403C21.9733 10.2236 21.7436 10.4534 21.4603 10.4534Z" fill="#69CB3A"/>
<path d="M19.3313 12.5725H15.828C15.5446 12.5725 15.3149 12.3428 15.3149 12.0594C15.3149 11.7761 15.5446 11.5464 15.828 11.5464H19.3313C19.6146 11.5464 19.8443 11.7761 19.8443 12.0594C19.8444 12.3428 19.6146 12.5725 19.3313 12.5725Z" fill="#69CB3A"/>
</svg>
