<svg width="31" height="30" viewBox="0 0 31 30" fill="none" xmlns="http://www.w3.org/2000/svg">
<g clip-path="url(#clip0_1_12157)">
<path d="M10.1602 4.13818V9.82781C10.1602 10.3993 10.6231 10.8623 11.1946 10.8623C11.7662 10.8623 12.2291 10.3993 12.2291 9.82781C12.2291 9.25629 12.6921 8.79334 13.2636 8.79334C13.8351 8.79334 14.298 9.25629 14.298 9.82781V10.3451C14.298 10.9166 14.761 11.3795 15.3325 11.3795C15.904 11.3795 16.367 10.9166 16.367 10.3451V4.13818H10.1602Z" fill="#FFCD6B"/>
<path d="M27.2291 2.06885H16.8843V4.13779H27.2291C27.8006 4.13779 28.2636 3.67484 28.2636 3.10332C28.2636 2.5318 27.8001 2.06885 27.2291 2.06885Z" fill="#965735"/>
<path d="M4.47068 13.4482H22.0569C22.9139 13.4482 23.6086 14.1429 23.6086 15C23.6086 15.857 22.914 16.5517 22.0569 16.5517H4.47068C3.61363 16.5517 2.91895 15.8571 2.91895 15C2.919 14.1429 3.61363 13.4482 4.47068 13.4482Z" fill="#F0DBC2"/>
<path d="M21.5396 30H4.98785L3.34354 27.2069C1.28907 23.7161 1.97649 19.2611 4.98785 16.5518H21.5396C24.551 19.2611 25.2384 23.7161 23.1839 27.2069L21.5396 30Z" fill="#F0DBC2"/>
<path d="M12.229 0H14.2979C16.0121 0 17.4014 1.38932 17.4014 3.10348C17.4014 4.81764 16.0121 6.20695 14.2979 6.20695H12.229C10.5148 6.20695 9.12549 4.81764 9.12549 3.10348C9.12555 1.38932 10.5149 0 12.229 0Z" fill="#BF7341"/>
<path d="M24.0663 20.6895H2.46108C1.86934 22.8924 2.18745 25.2407 3.3435 27.2067L4.98782 29.9998H21.5396L23.1839 27.2067C24.3399 25.2407 24.658 22.8924 24.0663 20.6895Z" fill="#FFCD6B"/>
<path d="M13.782 0H12.7476V6.20689H13.782V0Z" fill="#FFCD6B"/>
<path d="M10.6772 0.41834V5.78834C10.9969 5.9735 11.3476 6.09918 11.7117 6.16023V0.0463867C11.3471 0.107441 10.9969 0.233125 10.6772 0.41834Z" fill="#FFCD6B"/>
<path d="M14.8154 0.0463867V6.16018C15.1796 6.09912 15.5303 5.97344 15.8499 5.78828V0.41834C15.5297 0.233125 15.1796 0.107441 14.8154 0.0463867Z" fill="#FFCD6B"/>
<path d="M21.5394 17.0687H7.57391C7.28838 17.0687 7.05664 16.837 7.05664 16.5514C7.05664 16.2659 7.28838 16.0342 7.57391 16.0342H21.5394C21.825 16.0342 22.0567 16.2659 22.0567 16.5514C22.0567 16.837 21.825 17.0687 21.5394 17.0687Z" fill="#E6CCAF"/>
<path d="M24.0661 20.6895H19.4109C18.2761 24.8532 15.3138 28.2774 11.3569 29.9998H21.5394L23.1837 27.2067C24.3397 25.2407 24.6578 22.8924 24.0661 20.6895Z" fill="#FFB75E"/>
</g>
<defs>
<clipPath id="clip0_1_12157">
<rect width="30" height="30" fill="white" transform="translate(0.214844)"/>
</clipPath>
</defs>
</svg>
