<svg width="31" height="30" viewBox="0 0 31 30" fill="none" xmlns="http://www.w3.org/2000/svg">
<g clip-path="url(#clip0_1_12189)">
<path d="M16.0758 25.9572C16.5866 25.9572 17.0007 25.5431 17.0007 25.0323C17.0007 24.5215 16.5866 24.1074 16.0758 24.1074C15.565 24.1074 15.1509 24.5215 15.1509 25.0323C15.1509 25.5431 15.565 25.9572 16.0758 25.9572Z" fill="#7FDBD5"/>
<path d="M19.9494 26.9735C20.4355 26.9735 20.8295 26.5795 20.8295 26.0935C20.8295 25.6074 20.4355 25.2134 19.9494 25.2134C19.4634 25.2134 19.0693 25.6074 19.0693 26.0935C19.0693 26.5795 19.4634 26.9735 19.9494 26.9735Z" fill="#38648C"/>
<path d="M17.2209 21.8793C17.707 21.8793 18.101 21.4853 18.101 20.9992C18.101 20.5132 17.707 20.1191 17.2209 20.1191C16.7348 20.1191 16.3408 20.5132 16.3408 20.9992C16.3408 21.4853 16.7348 21.8793 17.2209 21.8793Z" fill="#38648C"/>
<path d="M20.616 23.7506C21.2286 23.7506 21.7252 23.254 21.7252 22.6414C21.7252 22.0288 21.2286 21.5322 20.616 21.5322C20.0034 21.5322 19.5068 22.0288 19.5068 22.6414C19.5068 23.254 20.0034 23.7506 20.616 23.7506Z" fill="#7FDBD5"/>
<path d="M17.2209 30C17.8772 30 18.4092 29.468 18.4092 28.8118C18.4092 28.1555 17.8772 27.6235 17.2209 27.6235C16.5647 27.6235 16.0327 28.1555 16.0327 28.8118C16.0327 29.468 16.5647 30 17.2209 30Z" fill="#F28B74"/>
<path d="M12.3268 4.92493L8.30127 8.5097L13.4011 14.2364L17.4266 10.6517C19.008 9.24341 19.1483 6.81979 17.74 5.2384C16.3318 3.65702 13.9082 3.51668 12.3268 4.92493Z" fill="#7FDBD5"/>
<path d="M4.27554 12.0945L8.30105 8.50977L13.4008 14.2365L9.37531 17.8213C7.79392 19.2295 5.37036 19.0892 3.96206 17.5078C2.55376 15.9264 2.69415 13.5028 4.27554 12.0945Z" fill="#287D99"/>
<path opacity="0.1" d="M17.7402 5.23839C16.9423 4.34243 15.8185 3.90954 14.7067 3.95829C14.3921 4.98333 14.5059 6.13365 15.1183 7.11463L16.3878 9.14819C16.6066 9.49869 16.5347 9.95754 16.2176 10.2225C13.8424 12.2073 10.8044 14.3491 9.21554 15.0001C6.78565 15.9956 4.66268 13.4769 5.0054 11.4449L4.31862 12.0565C2.74496 13.4579 2.54797 15.8778 3.92885 17.4695C5.33188 19.0868 7.78163 19.2407 9.37568 17.8212L17.4267 10.6516C19.0081 9.2434 19.1484 6.81978 17.7402 5.23839Z" fill="black"/>
<path d="M16.1013 5.86509L18.9558 10.4375L25.4606 6.37668L22.6061 1.80424C21.4847 0.00798898 19.1195 -0.539102 17.3233 0.582268C15.5271 1.70364 14.9799 4.06884 16.1013 5.86509Z" fill="#76B7EB"/>
<path d="M21.8101 15.0102L18.9556 10.4378L25.4604 6.37695L28.3149 10.9494C29.4362 12.7456 28.8892 15.1108 27.0929 16.2322C25.2967 17.3536 22.9315 16.8065 21.8101 15.0102Z" fill="#D1EFF2"/>
<path opacity="0.1" d="M27.0932 16.2318C27.2658 16.124 27.4266 16.0046 27.5757 15.8755C23.0176 15.2056 17.0755 4.32465 17.3433 0.570312C17.3366 0.574355 17.3299 0.577988 17.3233 0.58209C15.527 1.70346 14.9799 4.06866 16.1013 5.86491L21.8103 15.0098C22.9317 16.8061 25.2969 17.3532 27.0932 16.2318Z" fill="black"/>
<path d="M10.7937 20.8726L15.4619 22.8062C15.6341 22.8775 15.8315 22.7958 15.9028 22.6236L18.579 16.1625C18.6504 15.9903 18.5686 15.7929 18.3964 15.7216L13.7282 13.788C11.7718 12.9776 9.52899 13.9066 8.71864 15.863C7.90829 17.8194 8.83735 20.0622 10.7937 20.8726Z" fill="#F28B74"/>
<path opacity="0.1" d="M15.9028 22.6237L16.5619 21.0325C11.0483 19.9831 9.19701 16.7247 9.62849 14.543C9.24675 14.903 8.93246 15.3469 8.71865 15.8631C7.90829 17.8194 8.8373 20.0623 10.7937 20.8726L15.4619 22.8063C15.6341 22.8777 15.8314 22.7959 15.9028 22.6237Z" fill="black"/>
<path d="M26.4225 20.8726L21.7542 22.8062C21.5821 22.8775 21.3847 22.7958 21.3134 22.6236L18.6371 16.1625C18.5658 15.9903 18.6475 15.7929 18.8197 15.7216L23.488 13.788C25.4443 12.9776 27.6872 13.9066 28.4975 15.863C29.3078 17.8194 28.3788 20.0622 26.4225 20.8726Z" fill="#76B7EB"/>
</g>
<defs>
<clipPath id="clip0_1_12189">
<rect width="30" height="30" fill="white" transform="translate(0.944336)"/>
</clipPath>
</defs>
</svg>
