<svg width="31" height="30" viewBox="0 0 31 30" fill="none" xmlns="http://www.w3.org/2000/svg">
<path d="M8.57178 12.8574H18.0956V28.0955C18.0956 28.4744 17.9451 28.8378 17.6772 29.1057C17.4093 29.3736 17.0459 29.5241 16.667 29.5241H10.0003C9.62147 29.5241 9.25811 29.3736 8.9902 29.1057C8.72229 28.8378 8.57178 28.4744 8.57178 28.0955V12.8574Z" fill="#AFEFDE"/>
<path d="M18.0956 19.7271C17.0765 21.4218 15.6932 22.8687 14.0461 23.963C12.3989 25.0574 10.529 25.7717 8.57178 26.0544V28.0954C8.57178 28.4743 8.72229 28.8376 8.9902 29.1055C9.25811 29.3734 9.62147 29.524 10.0003 29.524H16.667C17.0459 29.524 17.4093 29.3734 17.6772 29.1055C17.9451 28.8376 18.0956 28.4743 18.0956 28.0954V19.7271Z" fill="#96E0D7"/>
<path d="M11.4287 2.85742H15.2382V7.61933H11.4287V2.85742Z" fill="#AAD0FF"/>
<path d="M29.5237 24.2857L28.5713 10.4762L21.9047 1.90476L10.9523 0C10.9523 1.57798 11.4285 1.90476 12.857 2.38095C14.2856 2.85714 19.2109 4.7619 19.2109 4.7619L23.8094 12.381C23.8094 12.381 23.8094 16.1905 21.9047 17.619C19.6834 19.2851 12.7121 12.4767 12.7121 12.4767C12.2677 12.0843 11.6874 11.8813 11.0953 11.9111C10.5032 11.9408 9.94626 12.2009 9.54339 12.6358C9.14051 13.0707 8.92369 13.646 8.93926 14.2386C8.95483 14.8312 9.20154 15.3943 9.62669 15.8074L15.7142 21.7215C15.7142 21.7215 16.8369 24.9323 17.619 25.7143C19.0475 27.1429 20.4761 27.1429 20.4761 27.1429L20.9523 29.5238V30H30.9523V29.5238L29.5237 24.2857Z" fill="#FFDFC5"/>
<path d="M11.4287 6.19061V7.61918H15.2382V4.28662C14.7943 4.87755 14.219 5.35716 13.5579 5.6876C12.8967 6.01804 12.1678 6.19024 11.4287 6.19061Z" fill="#AAD0FF"/>
<path d="M29.5241 24.2856L29.003 16.729C28.071 21.6516 25.9901 26.1078 20.542 27.4701L20.9527 29.5237V29.9999H30.9527V29.5237L29.5241 24.2856Z" fill="#FFD5C7"/>
<path d="M25.9528 17.1429C26.8733 17.1429 27.6195 16.3967 27.6195 15.4762C27.6195 14.5558 26.8733 13.8096 25.9528 13.8096C25.0323 13.8096 24.2861 14.5558 24.2861 15.4762C24.2861 16.3967 25.0323 17.1429 25.9528 17.1429Z" fill="#FFF7E6"/>
<path d="M24.2864 20C24.8124 20 25.2387 19.5736 25.2387 19.0476C25.2387 18.5216 24.8124 18.0952 24.2864 18.0952C23.7604 18.0952 23.334 18.5216 23.334 19.0476C23.334 19.5736 23.7604 20 24.2864 20Z" fill="#FFF7E6"/>
<path d="M9.52416 4.76207C9.52416 4.13249 8.57178 4.1316 8.57178 4.76207C8.57178 5.39166 9.52416 5.39255 9.52416 4.76207Z" fill="#AAD0FF"/>
<path d="M6.66699 3.80992C6.66699 4.43951 7.61937 4.4404 7.61937 3.80992C7.61937 3.18034 6.66699 3.17945 6.66699 3.80992Z" fill="#AAD0FF"/>
<path d="M6.66699 5.71471C6.66699 6.34429 7.61937 6.34518 7.61937 5.71471C7.61937 5.08513 6.66699 5.08423 6.66699 5.71471Z" fill="#AAD0FF"/>
<path d="M5.2384 7.1433C5.50139 7.1433 5.71459 6.9301 5.71459 6.66711C5.71459 6.40412 5.50139 6.19092 5.2384 6.19092C4.9754 6.19092 4.76221 6.40412 4.76221 6.66711C4.76221 6.9301 4.9754 7.1433 5.2384 7.1433Z" fill="#AAD0FF"/>
<path d="M5.2384 5.23851C5.50139 5.23851 5.71459 5.02532 5.71459 4.76232C5.71459 4.49933 5.50139 4.28613 5.2384 4.28613C4.9754 4.28613 4.76221 4.49933 4.76221 4.76232C4.76221 5.02532 4.9754 5.23851 5.2384 5.23851Z" fill="#AAD0FF"/>
<path d="M5.2384 3.33373C5.50139 3.33373 5.71459 3.12053 5.71459 2.85754C5.71459 2.59455 5.50139 2.38135 5.2384 2.38135C4.9754 2.38135 4.76221 2.59455 4.76221 2.85754C4.76221 3.12053 4.9754 3.33373 5.2384 3.33373Z" fill="#AAD0FF"/>
<path d="M3.33361 6.19066C3.59661 6.19066 3.8098 5.97746 3.8098 5.71447C3.8098 5.45148 3.59661 5.23828 3.33361 5.23828C3.07062 5.23828 2.85742 5.45148 2.85742 5.71447C2.85742 5.97746 3.07062 6.19066 3.33361 6.19066Z" fill="#AAD0FF"/>
<path d="M3.33361 8.09545C3.59661 8.09545 3.8098 7.88225 3.8098 7.61926C3.8098 7.35626 3.59661 7.14307 3.33361 7.14307C3.07062 7.14307 2.85742 7.35626 2.85742 7.61926C2.85742 7.88225 3.07062 8.09545 3.33361 8.09545Z" fill="#AAD0FF"/>
<path d="M3.33361 4.28637C3.59661 4.28637 3.8098 4.07317 3.8098 3.81017C3.8098 3.54718 3.59661 3.33398 3.33361 3.33398C3.07062 3.33398 2.85742 3.54718 2.85742 3.81017C2.85742 4.07317 3.07062 4.28637 3.33361 4.28637Z" fill="#AAD0FF"/>
<path d="M3.33361 2.38109C3.59661 2.38109 3.8098 2.16789 3.8098 1.9049C3.8098 1.64191 3.59661 1.42871 3.33361 1.42871C3.07062 1.42871 2.85742 1.64191 2.85742 1.9049C2.85742 2.16789 3.07062 2.38109 3.33361 2.38109Z" fill="#AAD0FF"/>
<path d="M1.42883 5.23851C1.69182 5.23851 1.90502 5.02532 1.90502 4.76232C1.90502 4.49933 1.69182 4.28613 1.42883 4.28613C1.16583 4.28613 0.952637 4.49933 0.952637 4.76232C0.952637 5.02532 1.16583 5.23851 1.42883 5.23851Z" fill="#AAD0FF"/>
<path d="M1.42883 7.1433C1.69182 7.1433 1.90502 6.9301 1.90502 6.66711C1.90502 6.40412 1.69182 6.19092 1.42883 6.19092C1.16583 6.19092 0.952637 6.40412 0.952637 6.66711C0.952637 6.9301 1.16583 7.1433 1.42883 7.1433Z" fill="#AAD0FF"/>
<path d="M1.42883 9.04808C1.69182 9.04808 1.90502 8.83489 1.90502 8.57189C1.90502 8.3089 1.69182 8.0957 1.42883 8.0957C1.16583 8.0957 0.952637 8.3089 0.952637 8.57189C0.952637 8.83489 1.16583 9.04808 1.42883 9.04808Z" fill="#AAD0FF"/>
<path d="M1.42883 3.33373C1.69182 3.33373 1.90502 3.12053 1.90502 2.85754C1.90502 2.59455 1.69182 2.38135 1.42883 2.38135C1.16583 2.38135 0.952637 2.59455 0.952637 2.85754C0.952637 3.12053 1.16583 3.33373 1.42883 3.33373Z" fill="#AAD0FF"/>
<path d="M1.42883 1.42894C1.69182 1.42894 1.90502 1.21575 1.90502 0.952753C1.90502 0.68976 1.69182 0.476562 1.42883 0.476562C1.16583 0.476562 0.952637 0.68976 0.952637 0.952753C0.952637 1.21575 1.16583 1.42894 1.42883 1.42894Z" fill="#AAD0FF"/>
<path d="M9.04808 10.9528V9.04802C9.04838 8.79552 9.14882 8.55346 9.32736 8.37492C9.5059 8.19637 9.74797 8.09594 10.0005 8.09564H12.8576V10.4766C12.8576 11.1062 13.81 11.107 13.81 10.4766V8.09564H16.6671C16.9196 8.09594 17.1617 8.19637 17.3402 8.37492C17.5188 8.55346 17.6192 8.79552 17.6195 9.04802V12.3814H15.7148C15.5885 12.3814 15.4673 12.4315 15.378 12.5208C15.2887 12.6101 15.2386 12.7312 15.2386 12.8575C15.2386 12.9838 15.2887 13.105 15.378 13.1943C15.4673 13.2836 15.5885 13.3337 15.7148 13.3337H17.6195V14.2861C17.6195 14.9158 18.5719 14.9165 18.5719 14.2861V9.04802C18.5713 8.54302 18.3705 8.05887 18.0134 7.70178C17.6563 7.34469 17.1721 7.14383 16.6671 7.14326H15.7148V5.2385C15.7148 4.60885 14.7624 4.60808 14.7624 5.2385V7.14326H11.9052V3.80992C11.9052 3.18028 10.9528 3.17951 10.9528 3.80992V7.14326H10.0005C9.49546 7.14383 9.01131 7.34469 8.65422 7.70178C8.29713 8.05887 8.09627 8.54302 8.0957 9.04802V10.9528C8.0957 11.5824 9.04808 11.5832 9.04808 10.9528Z" fill="#AAD0FF"/>
</svg>
