<svg width="30" height="30" viewBox="0 0 30 30" fill="none" xmlns="http://www.w3.org/2000/svg">
<path d="M21.1128 5.09918H17.5972C17.1118 5.09918 16.7183 4.70567 16.7183 4.22027V0.878906C16.7183 0.393516 17.1118 0 17.5972 0H21.1128C21.5982 0 21.9917 0.393516 21.9917 0.878906V4.22027C21.9917 4.70572 21.5982 5.09918 21.1128 5.09918Z" fill="#AB7A19"/>
<path d="M21.1128 5.09918H17.5972C17.1118 5.09918 16.7183 4.70567 16.7183 4.22027V0.878906C16.7183 0.393516 17.1118 0 17.5972 0H21.1128C21.5982 0 21.9917 0.393516 21.9917 0.878906V4.22027C21.9917 4.70572 21.5982 5.09918 21.1128 5.09918Z" fill="black" fill-opacity="0.2"/>
<path d="M21.1123 0H19.3545V5.09918H21.1123C21.5977 5.09918 21.9912 4.70567 21.9912 4.22027V0.878906C21.9912 0.393516 21.5977 0 21.1123 0V0Z" fill="#AB7A19"/>
<path d="M11.247 25.1094C8.89103 25.1094 6.6255 24.1781 4.94784 22.5004C3.11444 20.667 2.17237 18.1312 2.3631 15.5432C2.39509 15.1087 2.74056 14.7632 3.17503 14.7312C5.76318 14.5406 8.29888 15.4826 10.1323 17.316C11.9657 19.1494 12.9077 21.6852 12.717 24.2732C12.685 24.7077 12.3396 25.0532 11.9051 25.0852C11.6854 25.1013 11.4655 25.1094 11.247 25.1094Z" fill="#69CB3A"/>
<path d="M7.53969 30C4.94692 30 2.48768 28.873 0.7925 26.9081C0.507969 26.5783 0.507969 26.0897 0.7925 25.7598C2.48768 23.7949 4.94692 22.668 7.53969 22.668C10.1325 22.668 12.5918 23.7949 14.2869 25.7598C14.5715 26.0897 14.5715 26.5782 14.2869 26.9081C12.5918 28.873 10.1325 30 7.53969 30Z" fill="#A7FB7E"/>
<path d="M24.9055 30H13.8044C13.6223 30 13.4447 29.9434 13.2962 29.8381C10.5226 27.8721 8.8667 24.6713 8.8667 21.276C8.8667 17.448 10.9527 13.9238 14.3106 12.0786C15.7199 11.3041 16.5282 9.93779 16.5282 8.32992V4.22022C16.5282 3.73482 16.9218 3.34131 17.4072 3.34131H21.3029C21.7883 3.34131 22.1818 3.73482 22.1818 4.22022V8.32992C22.1818 9.93785 22.99 11.3042 24.3994 12.0786C27.7573 13.9238 29.8433 17.4481 29.8433 21.276C29.8433 24.6713 28.1875 27.8721 25.4139 29.8381C25.2652 29.9434 25.0876 30 24.9055 30Z" fill="#DBEDFF"/>
<path d="M24.3988 12.0786C22.9895 11.3043 22.1812 9.93791 22.1812 8.32998V4.22022C22.1812 3.73482 21.7877 3.34131 21.3023 3.34131H19.3545V30H24.905C25.0871 30 25.2647 29.9434 25.4133 29.8381C28.1869 27.8721 29.8427 24.6713 29.8427 21.276C29.8428 17.4481 27.7568 13.9238 24.3988 12.0786Z" fill="#DBEDFF"/>
<path d="M24.3988 12.0786C22.9895 11.3043 22.1812 9.93791 22.1812 8.32998V4.22022C22.1812 3.73482 21.7877 3.34131 21.3023 3.34131H19.3545V30H24.905C25.0871 30 25.2647 29.9434 25.4133 29.8381C28.1869 27.8721 29.8427 24.6713 29.8427 21.276C29.8428 17.4481 27.7568 13.9238 24.3988 12.0786Z" fill="black" fill-opacity="0.1"/>
<path d="M10.624 21.2761C10.624 24.0111 11.915 26.5947 14.0913 28.2421H24.6177C26.7939 26.5946 28.0849 24.0111 28.0849 21.2761C28.0849 20.0639 27.833 18.8885 27.3676 17.8125H11.3413C10.8759 18.8885 10.624 20.0638 10.624 21.2761Z" fill="#69CB3A"/>
<path d="M10.624 21.2761C10.624 24.0111 11.915 26.5947 14.0913 28.2421H24.6177C26.7939 26.5946 28.0849 24.0111 28.0849 21.2761C28.0849 20.0639 27.833 18.8885 27.3676 17.8125H11.3413C10.8759 18.8885 10.624 20.0638 10.624 21.2761Z" fill="white" fill-opacity="0.3"/>
<path d="M22.1088 4.92822H16.6011C16.1157 4.92822 15.7222 4.53471 15.7222 4.04932C15.7222 3.56393 16.1157 3.17041 16.6011 3.17041H22.1088C22.5942 3.17041 22.9877 3.56393 22.9877 4.04932C22.9877 4.53471 22.5942 4.92822 22.1088 4.92822Z" fill="#DBEDFF"/>
<path d="M22.1088 4.92822H16.6011C16.1157 4.92822 15.7222 4.53471 15.7222 4.04932C15.7222 3.56393 16.1157 3.17041 16.6011 3.17041H22.1088C22.5942 3.17041 22.9877 3.56393 22.9877 4.04932C22.9877 4.53471 22.5942 4.92822 22.1088 4.92822Z" fill="black" fill-opacity="0.04"/>
<path d="M27.3677 17.8125H19.3545V28.2422H24.6177C26.7939 26.5947 28.0849 24.0112 28.0849 21.2762C28.085 20.0639 27.833 18.8886 27.3677 17.8125Z" fill="#69CB3A"/>
<path d="M22.1084 3.16992H19.3545V4.92773H22.1084C22.5938 4.92773 22.9873 4.53422 22.9873 4.04883C22.9873 3.56344 22.5938 3.16992 22.1084 3.16992Z" fill="#DBEDFF"/>
<path d="M22.1084 3.16992H19.3545V4.92773H22.1084C22.5938 4.92773 22.9873 4.53422 22.9873 4.04883C22.9873 3.56344 22.5938 3.16992 22.1084 3.16992Z" fill="black" fill-opacity="0.2"/>
</svg>
