<svg width="17" height="18" viewBox="0 0 17 18" fill="none" xmlns="http://www.w3.org/2000/svg">
<path d="M17 9C17 9.37583 16.8559 9.73913 16.5864 10.0022C16.3233 10.2716 15.9598 10.4219 15.5839 10.4219H9.91928V16.0844C9.91928 16.4602 9.76889 16.8235 9.49945 17.0866C9.23627 17.3497 8.8791 17.5 8.50313 17.5C8.12716 17.5 7.76373 17.3497 7.50055 17.0866C7.23111 16.8235 7.08072 16.4602 7.08072 16.0844V10.4219H1.41614C1.04018 10.4219 0.676742 10.2716 0.413564 10.0022C0.150387 9.73913 0 9.37583 0 9C0 8.62417 0.150387 8.26713 0.413564 7.99779C0.676742 7.73471 1.04018 7.58438 1.41614 7.58438H7.08072V1.92189C7.08072 1.54606 7.23111 1.18276 7.50055 0.919676C7.76373 0.650332 8.12716 0.5 8.50313 0.5C8.8791 0.5 9.23627 0.650332 9.49945 0.919676C9.76889 1.18276 9.91928 1.54606 9.91928 1.92189V7.58438H15.5839C15.9598 7.58438 16.3233 7.73471 16.5864 7.99779C16.8559 8.26713 17 8.62417 17 9Z" fill="#53B175"/>
</svg>
